<mxfile modified="2023-12-04T23:03:27.970Z" host="app.diagrams.net" agent="Mozilla/5.0 (Windows NT 10.0; Win64; x64) AppleWebKit/537.36 (KHTML, like Gecko) Chrome/119.0.0.0 Safari/537.36" etag="GzwOvqqIVyVfmitfQaER" version="22.1.5" type="github">
  <diagram id="WI9T0HZ2pTsCkuznbFz-" name="Page-1">
    <mxGraphModel dx="3556" dy="1209" grid="0" gridSize="10" guides="1" tooltips="1" connect="1" arrows="1" fold="1" page="0" pageScale="1" pageWidth="827" pageHeight="1169" background="#ffffff" math="0" shadow="0">
      <root>
        <mxCell id="0" />
        <mxCell id="1" parent="0" />
        <mxCell id="LB7Hno4nHKk7k6WSY0Ma-193" value="" style="rounded=0;whiteSpace=wrap;html=1;strokeColor=#121212;fontColor=#FFFFFF;fillColor=#e50914;shadow=0;gradientColor=#292828;gradientDirection=south;glass=0;noLabel=0;snapToPoint=0;perimeter=rectanglePerimeter;autosize=1;comic=0;fixDash=1;aspect=fixed;verticalAlign=middle;" parent="1" vertex="1">
          <mxGeometry x="-303" y="463" width="2061.41" height="1226" as="geometry" />
        </mxCell>
        <mxCell id="LB7Hno4nHKk7k6WSY0Ma-135" style="edgeStyle=none;rounded=0;orthogonalLoop=1;jettySize=auto;html=1;exitX=0.75;exitY=1;exitDx=0;exitDy=0;strokeColor=#f5f5f5;entryX=0.498;entryY=0.018;entryDx=0;entryDy=0;entryPerimeter=0;strokeWidth=6;comic=0;snapToPoint=0;fixDash=1;" parent="1" target="LB7Hno4nHKk7k6WSY0Ma-66" edge="1">
          <mxGeometry relative="1" as="geometry">
            <mxPoint x="667" y="1120" as="targetPoint" />
            <mxPoint x="666.75" y="817" as="sourcePoint" />
          </mxGeometry>
        </mxCell>
        <mxCell id="LB7Hno4nHKk7k6WSY0Ma-66" value="" style="image;aspect=fixed;html=1;points=[];align=center;fontSize=12;image=img/lib/azure2/other/Grafana.svg;comic=0;snapToPoint=0;fixDash=1;" parent="1" vertex="1">
          <mxGeometry x="611" y="1305" width="130.06" height="101" as="geometry" />
        </mxCell>
        <mxCell id="LB7Hno4nHKk7k6WSY0Ma-171" style="edgeStyle=none;rounded=0;orthogonalLoop=1;jettySize=auto;html=1;exitX=1;exitY=0.75;exitDx=0;exitDy=0;exitPerimeter=0;strokeColor=#ffffff;strokeWidth=6;comic=0;snapToPoint=0;fixDash=1;" parent="1" source="LB7Hno4nHKk7k6WSY0Ma-67" target="LB7Hno4nHKk7k6WSY0Ma-66" edge="1">
          <mxGeometry relative="1" as="geometry" />
        </mxCell>
        <object label="" id="LB7Hno4nHKk7k6WSY0Ma-67">
          <mxCell style="sketch=0;points=[[0,0,0],[0.25,0,0],[0.5,0,0],[0.75,0,0],[1,0,0],[0,1,0],[0.25,1,0],[0.5,1,0],[0.75,1,0],[1,1,0],[0,0.25,0],[0,0.5,0],[0,0.75,0],[1,0.25,0],[1,0.5,0],[1,0.75,0]];points=[[0,0,0],[0.25,0,0],[0.5,0,0],[0.75,0,0],[1,0,0],[0,1,0],[0.25,1,0],[0.5,1,0],[0.75,1,0],[1,1,0],[0,0.25,0],[0,0.5,0],[0,0.75,0],[1,0.25,0],[1,0.5,0],[1,0.75,0]];outlineConnect=0;fontColor=#232F3E;fillColor=#E7157B;strokeColor=#ffffff;dashed=0;verticalLabelPosition=bottom;verticalAlign=top;align=center;html=1;fontSize=12;fontStyle=0;aspect=fixed;shape=mxgraph.aws4.resourceIcon;resIcon=mxgraph.aws4.managed_service_for_prometheus;comic=0;snapToPoint=0;fixDash=1;" parent="1" vertex="1">
            <mxGeometry x="447" y="1133" width="99.31" height="99.31" as="geometry" />
          </mxCell>
        </object>
        <mxCell id="LB7Hno4nHKk7k6WSY0Ma-166" style="edgeStyle=none;rounded=0;orthogonalLoop=1;jettySize=auto;html=1;exitX=1;exitY=0.75;exitDx=0;exitDy=0;strokeColor=#FFFFFF;fillColor=#FFFFFF;fontStyle=1;fontSize=20;strokeWidth=6;comic=0;snapToPoint=0;fixDash=1;" parent="1" source="LB7Hno4nHKk7k6WSY0Ma-68" edge="1">
          <mxGeometry relative="1" as="geometry">
            <mxPoint x="591" y="742.4094387755099" as="targetPoint" />
          </mxGeometry>
        </mxCell>
        <mxCell id="LB7Hno4nHKk7k6WSY0Ma-68" value="GitHub" style="shape=image;verticalLabelPosition=bottom;labelBackgroundColor=#ffffff;verticalAlign=top;aspect=fixed;imageAspect=0;image=data:image/svg+xml,PHN2ZyB4bWxuczpjYz0iaHR0cDovL2NyZWF0aXZlY29tbW9ucy5vcmcvbnMjIiB4bWxuczpkYz0iaHR0cDovL3B1cmwub3JnL2RjL2VsZW1lbnRzLzEuMS8iIHhtbG5zOmlua3NjYXBlPSJodHRwOi8vd3d3Lmlua3NjYXBlLm9yZy9uYW1lc3BhY2VzL2lua3NjYXBlIiB4bWxuczpyZGY9Imh0dHA6Ly93d3cudzMub3JnLzE5OTkvMDIvMjItcmRmLXN5bnRheC1ucyMiIHhtbG5zOnNvZGlwb2RpPSJodHRwOi8vc29kaXBvZGkuc291cmNlZm9yZ2UubmV0L0RURC9zb2RpcG9kaS0wLmR0ZCIgeG1sbnM6c3ZnPSJodHRwOi8vd3d3LnczLm9yZy8yMDAwL3N2ZyIgeG1sbnM9Imh0dHA6Ly93d3cudzMub3JnLzIwMDAvc3ZnIiB4bWxuczp4bGluaz0iaHR0cDovL3d3dy53My5vcmcvMTk5OS94bGluayIgdmVyc2lvbj0iMS4xIiBpZD0ic3ZnMTc1NjcxIiBpbmtzY2FwZTp2ZXJzaW9uPSIwLjkyLjMgKDI0MDU1NDYsIDIwMTgtMDMtMTEpIiBzb2RpcG9kaTpkb2NuYW1lPSJnaXRodWIuc3ZnIiB4PSIwcHgiIHk9IjBweCIgdmlld0JveD0iMCAwIDQ1LjI3IDQ1LjI5IiBzdHlsZT0iZW5hYmxlLWJhY2tncm91bmQ6bmV3IDAgMCA0NS4yNyA0NS4yOTsiIHhtbDpzcGFjZT0icHJlc2VydmUiPiYjeGE7PHNvZGlwb2RpOm5hbWVkdmlldyBib3JkZXJjb2xvcj0iIzY2NjY2NiIgYm9yZGVyb3BhY2l0eT0iMSIgZml0LW1hcmdpbi1ib3R0b209IjAiIGZpdC1tYXJnaW4tbGVmdD0iMCIgZml0LW1hcmdpbi1yaWdodD0iMCIgZml0LW1hcmdpbi10b3A9IjAiIGdyaWR0b2xlcmFuY2U9IjEwIiBndWlkZXRvbGVyYW5jZT0iMTAiIGlkPSJuYW1lZHZpZXcxNzU2NzMiIGlua3NjYXBlOmN1cnJlbnQtbGF5ZXI9InN2ZzE3NTY3MSIgaW5rc2NhcGU6Y3g9IjMwLjE3ODAyNSIgaW5rc2NhcGU6Y3k9IjMwLjE5NDMxOSIgaW5rc2NhcGU6cGFnZW9wYWNpdHk9IjAiIGlua3NjYXBlOnBhZ2VzaGFkb3c9IjIiIGlua3NjYXBlOndpbmRvdy1oZWlnaHQ9IjEwMTciIGlua3NjYXBlOndpbmRvdy1tYXhpbWl6ZWQ9IjEiIGlua3NjYXBlOndpbmRvdy13aWR0aD0iMTkyMCIgaW5rc2NhcGU6d2luZG93LXg9Ii04IiBpbmtzY2FwZTp3aW5kb3cteT0iLTgiIGlua3NjYXBlOnpvb209IjEwLjA5NTE1OCIgb2JqZWN0dG9sZXJhbmNlPSIxMCIgcGFnZWNvbG9yPSIjZmZmZmZmIiBzaG93Z3JpZD0iZmFsc2UiPiYjeGE7CTwvc29kaXBvZGk6bmFtZWR2aWV3PiYjeGE7PGcgaWQ9ImcxNzU2NjkiIHRyYW5zZm9ybT0idHJhbnNsYXRlKC05LjU2MjU0MTcsLTkuNTYxMzEpIj4mI3hhOwk8dGl0bGUgaWQ9InRpdGxlMTc1NjU5Ij5QYWdlLTE8L3RpdGxlPiYjeGE7CTxnIGlkPSJncm91cDIyNTAtMSIgdHJhbnNmb3JtPSJ0cmFuc2xhdGUoOS41NjMwOCwtOS4zNzg2OSkiPiYjeGE7CQk8dGl0bGUgaWQ9InRpdGxlMTc1NjYxIj5HaXRIdWI8L3RpdGxlPiYjeGE7CQk8ZyBpZD0ic2hhcGUyMjUxLTIiPiYjeGE7CQkJPHRpdGxlIGlkPSJ0aXRsZTE3NTY2MyI+U2hlZXQuMjI1MTwvdGl0bGU+JiN4YTsJCQk8cGF0aCBpZD0icGF0aDE3NTY2NSIgaW5rc2NhcGU6Y29ubmVjdG9yLWN1cnZhdHVyZT0iMCIgZD0iTTIyLjYzLDE4Ljk0QzEwLjE0LDE4Ljk0LDAsMjkuMzMsMCw0Mi4xNSAgICAgYy0wLjA3LDkuODksNi4xNSwxOC43MywxNS40OCwyMi4wMWMxLjEzLDAuMjIsMS41NC0wLjUsMS41NC0xLjExYzAtMC42MiwwLTIuMDEsMC0zLjk1Yy02LjI5LDEuNDEtNy42Mi0zLjExLTcuNjItMy4xMSAgICAgYy0xLjAzLTIuNjgtMi41MS0zLjQtMi41MS0zLjRjLTIuMDYtMS40MSwwLjE1LTEuNDEsMC4xNS0xLjQxYzIuMjcsMC4xNiwzLjQ3LDIuMzksMy40NywyLjM5YzIuMDIsMy41NCw1LjMsMi41Miw2LjU4LDEuOTMgICAgIGMwLjEtMS4xNywwLjYtMi4yNiwxLjQyLTMuMUMxMy40OCw1MS44MSw4LjIsNDkuODIsOC4yLDQwLjkyYy0wLjA0LTIuMjksMC43OS00LjUxLDIuMzItNi4yMmMtMC42OS0yLTAuNjEtNC4xOSwwLjIyLTYuMTQgICAgIGMwLDAsMS45MS0wLjYyLDYuMjMsMi40YzMuNy0xLjA0LDcuNjItMS4wNCwxMS4zMiwwYzQuMzItMyw2LjIyLTIuMzcsNi4yMi0yLjM3YzAuODMsMS45NSwwLjkxLDQuMTQsMC4yMiw2LjE0ICAgICBjMS41MywxLjcsMi4zNywzLjkzLDIuMzMsNi4yMmMwLDguOTEtNS4yOSwxMC44OC0xMC4zMywxMS40NWMwLjgxLDAuNzEsMS41MywyLjEyLDEuNTMsNC4zYzAsMy4xMSwwLDUuNjEsMCw2LjM3ICAgICBjMCwwLjYyLDAuNDEsMS4zNCwxLjU2LDEuMTJjOS4zMy0zLjMsMTUuNTMtMTIuMTUsMTUuNDUtMjIuMDRDNDUuMjcsMjkuMzMsMzUuMTMsMTguOTQsMjIuNjMsMTguOTR6Ii8+JiN4YTsJCTwvZz4mI3hhOwk8L2c+JiN4YTs8L2c+JiN4YTs8L3N2Zz4=;spacingTop=4;comic=0;snapToPoint=0;fixDash=1;" parent="1" vertex="1">
          <mxGeometry x="287" y="558" width="134" height="134" as="geometry" />
        </mxCell>
        <mxCell id="LB7Hno4nHKk7k6WSY0Ma-157" style="edgeStyle=none;rounded=0;orthogonalLoop=1;jettySize=auto;html=1;exitX=1;exitY=0.5;exitDx=0;exitDy=0;strokeColor=#ffffff;strokeWidth=6;entryX=0;entryY=0.5;entryDx=0;entryDy=0;comic=0;snapToPoint=0;fixDash=1;" parent="1" source="LB7Hno4nHKk7k6WSY0Ma-63" edge="1" target="LB7Hno4nHKk7k6WSY0Ma-91">
          <mxGeometry relative="1" as="geometry">
            <mxPoint x="1034" y="759" as="targetPoint" />
          </mxGeometry>
        </mxCell>
        <mxCell id="LB7Hno4nHKk7k6WSY0Ma-63" value="Jenkins" style="shape=image;verticalLabelPosition=bottom;labelBackgroundColor=none;verticalAlign=top;aspect=fixed;imageAspect=0;image=data:image/svg+xml,PHN2ZyB4bWxuczpjYz0iaHR0cDovL2NyZWF0aXZlY29tbW9ucy5vcmcvbnMjIiB4bWxuczpkYz0iaHR0cDovL3B1cmwub3JnL2RjL2VsZW1lbnRzLzEuMS8iIHhtbG5zOmlua3NjYXBlPSJodHRwOi8vd3d3Lmlua3NjYXBlLm9yZy9uYW1lc3BhY2VzL2lua3NjYXBlIiB4bWxuczpyZGY9Imh0dHA6Ly93d3cudzMub3JnLzE5OTkvMDIvMjItcmRmLXN5bnRheC1ucyMiIHhtbG5zOnNvZGlwb2RpPSJodHRwOi8vc29kaXBvZGkuc291cmNlZm9yZ2UubmV0L0RURC9zb2RpcG9kaS0wLmR0ZCIgeG1sbnM6c3ZnPSJodHRwOi8vd3d3LnczLm9yZy8yMDAwL3N2ZyIgeG1sbnM9Imh0dHA6Ly93d3cudzMub3JnLzIwMDAvc3ZnIiB4bWxuczp4bGluaz0iaHR0cDovL3d3dy53My5vcmcvMTk5OS94bGluayIgdmVyc2lvbj0iMS4xIiBpZD0ic3ZnMjQ4MSIgaW5rc2NhcGU6dmVyc2lvbj0iMC45Mi4zICgyNDA1NTQ2LCAyMDE4LTAzLTExKSIgc29kaXBvZGk6ZG9jbmFtZT0iamVua2lucy5zdmciIHg9IjBweCIgeT0iMHB4IiB2aWV3Qm94PSIwIDAgNDMuMzkgNDcuODIiIHN0eWxlPSJlbmFibGUtYmFja2dyb3VuZDpuZXcgMCAwIDQzLjM5IDQ3LjgyOyIgeG1sOnNwYWNlPSJwcmVzZXJ2ZSI+JiN4YTs8c29kaXBvZGk6bmFtZWR2aWV3IGJvcmRlcmNvbG9yPSIjNjY2NjY2IiBib3JkZXJvcGFjaXR5PSIxIiBmaXQtbWFyZ2luLWJvdHRvbT0iMCIgZml0LW1hcmdpbi1sZWZ0PSIwIiBmaXQtbWFyZ2luLXJpZ2h0PSIwIiBmaXQtbWFyZ2luLXRvcD0iMCIgZ3JpZHRvbGVyYW5jZT0iMTAiIGd1aWRldG9sZXJhbmNlPSIxMCIgaWQ9Im5hbWVkdmlldzI0ODMiIGlua3NjYXBlOmN1cnJlbnQtbGF5ZXI9InN2ZzI0ODEiIGlua3NjYXBlOmN4PSIzOC45MDIzMDgiIGlua3NjYXBlOmN5PSI5LjMxNTMxNyIgaW5rc2NhcGU6cGFnZW9wYWNpdHk9IjAiIGlua3NjYXBlOnBhZ2VzaGFkb3c9IjIiIGlua3NjYXBlOndpbmRvdy1oZWlnaHQ9IjEwMTciIGlua3NjYXBlOndpbmRvdy1tYXhpbWl6ZWQ9IjEiIGlua3NjYXBlOndpbmRvdy13aWR0aD0iMTkyMCIgaW5rc2NhcGU6d2luZG93LXg9Ii04IiBpbmtzY2FwZTp3aW5kb3cteT0iLTgiIGlua3NjYXBlOnpvb209IjYuNTkyNzExNCIgb2JqZWN0dG9sZXJhbmNlPSIxMCIgcGFnZWNvbG9yPSIjZmZmZmZmIiBzaG93Z3JpZD0iZmFsc2UiPiYjeGE7CTwvc29kaXBvZGk6bmFtZWR2aWV3PiYjeGE7PGcgaWQ9ImcyNDc5IiB0cmFuc2Zvcm09InRyYW5zbGF0ZSgtMC43NSwtMC43NTA5OTM0NSkiPiYjeGE7CTx0aXRsZSBpZD0idGl0bGUyMzExIj5QYWdlLTE8L3RpdGxlPiYjeGE7CTxnIGlkPSJncm91cDE2NDEtMSIgdHJhbnNmb3JtPSJ0cmFuc2xhdGUoMC43NSwtMC43NSkiPiYjeGE7CQk8dGl0bGUgaWQ9InRpdGxlMjMxMyI+SmVua2luczwvdGl0bGU+JiN4YTsJCTxnIGlkPSJncm91cDE2NDItMiI+JiN4YTsJCQk8dGl0bGUgaWQ9InRpdGxlMjMxNSI+ZzE0NTI0PC90aXRsZT4mI3hhOwkJCTxnIGlkPSJzaGFwZTE2NDMtMyI+JiN4YTsJCQkJPHRpdGxlIGlkPSJ0aXRsZTIzMTciPnBhdGgxNDQ2MDwvdGl0bGU+JiN4YTsJCQkJPHBhdGggaWQ9InBhdGgyMzE5IiBpbmtzY2FwZTpjb25uZWN0b3ItY3VydmF0dXJlPSIwIiBzdHlsZT0iZmlsbDojMjgyNDI1OyIgZD0iTTQwLjY2LDM4LjEyYy0wLjcxLTAuNzUtMS41LTEuMzctMi4yNS0yLjA1ICAgICAgYy0wLjU3LTAuNDItMC43MS0xLjIyLTAuMzEtMS44MWMzLjM5LTYuMjYsMy44LTEyLjk4LDIuODYtMTkuODZjLTAuOTMtNi40Ny03LTEyLjQtMTMuNjgtMTIuODVjLTEuODgtMC4wOS0zLjc3LTAuMDUtNS42NSwwLjExICAgICAgYy00LjIyLDAuNzUtNy44OCwyLjY5LTExLjM4LDVDOC45Niw3LjQ5LDgsOC43NCw3LjUxLDEwLjE5Yy0wLjA4LDAuMjItMC4xOCwwLjUyLTAuMzUsMC42M2MtMS44NywxLjA2LTIuMzcsMi44Ni0yLjU2LDQuNzUgICAgICBjLTAuMDcsMS4wOC0wLjA1LDIuMTYsMC4wNywzLjIzYzAuMDgsMC42OS0wLjA1LDEuMzktMC4zNiwyLjAyYy0xLjAzLDIuMTYtMC42OSw0LjM1LDAuMTYsNi40OGMwLjYxLDEuOCwyLjA3LDMuMTcsMy45LDMuNjcgICAgICBjMC4yNiwwLjExLDAuNDYsMC4zMywwLjU2LDAuNTljMC40NywxLjEzLDAuODMsMi4zMSwxLjM1LDMuNDJjMC41MywxLjExLDAuNTYsMS41NS0wLjYxLDIuMjVjLTIuOCwxLjczLTUuNjQsMy4zOS04LjQ3LDUuMDkgICAgICBjLTAuNDMsMC4zMi0wLjg0LDAuNjktMS4yLDEuMDl2MS4xMmMwLjUyLDEuNDgsMS4yLDMuMjksMS43Miw0Ljc5aDM5LjQyYzAuNzUtMi4zNiwxLjUtNS4wNCwyLjI1LTcuNHYtMC43NSAgICAgIEM0Mi40NSw0MC4xNSw0MS42MSwzOS4xLDQwLjY2LDM4LjEyeiBNMzAuMjksNDMuNjRjMC4wNywwLjU4LTAuMzUsMS4xMS0wLjkzLDEuMTdjLTAuMDMsMC0wLjA2LDAuMDEtMC4wOSwwLjAxICAgICAgYy0wLjU3LDAuMDYtMC44Ny0wLjQ3LTAuODktMS43N2MwLjI2LTAuMjIsMC41Ni0wLjM4LDAuODgtMC40OEMyOS45Miw0Mi41NywzMC4yNyw0My4wMiwzMC4yOSw0My42NHoiLz4mI3hhOwkJCTwvZz4mI3hhOwkJCTxnIGlkPSJzaGFwZTE2NDQtNSIgdHJhbnNmb3JtPSJ0cmFuc2xhdGUoNS43LC04LjA0NzUpIj4mI3hhOwkJCQk8dGl0bGUgaWQ9InRpdGxlMjMyMiI+cGF0aDE0NDYyPC90aXRsZT4mI3hhOwkJCQk8cGF0aCBpZD0icGF0aDIzMjQiIGlua3NjYXBlOmNvbm5lY3Rvci1jdXJ2YXR1cmU9IjAiIHN0eWxlPSJmaWxsOiNFRUQ0QjU7IiBkPSJNMjguNzUsMTkuODNjMC43My0wLjIsMS40OS0wLjI5LDIuMjUtMC4yNiAgICAgIGMxLjY0LDAuMjMsMi45MiwxLjUyLDMuMTMsMy4xNmMxLjE1LDcuNTYsMC42OCwxNC45Mi00LjQ2LDIxYy0zLjEzLDMuNzUtOS4yMSw1LjU5LTE0LjMzLDEuMDVjLTEuMjctMS4yNy0yLjQ2LTIuNjEtMy41Ni00LjAzICAgICAgYy0wLjIxLTAuMjUtMC40MS0wLjUtMC43NS0wLjkxYzAuMzksMi4yNSwyLjE4LDQuNSw1LjQsNy4wNmMtMC44MiwwLjQtMS42OSwwLjctMi41OSwwLjljLTEuMy0wLjAyLTIuNTktMC4xNC0zLjg3LTAuMzggICAgICBDNy4zLDQ0LjU3LDYuOSw0MS4yNSw2LjU4LDM3LjM4YzAtMC4zNi0wLjQ2LTAuNjktMC43LTEuMDRjLTAuMzgsMC4wNS0wLjc1LDAuMTUtMS4xLDAuM2MtMS41NiwwLjk4LTIuNzcsMC43NS0zLjkyLTAuODIgICAgICBMMC42NywzNS42TDAsMzQuNzdjMC4wOC0wLjI0LDAuMDQtMS4zNiwwLjA4LTEuNjJjMC4xNC0xLjA4LDAuOC0wLjc1LDAuOTItMS44N2wwLjkzLTAuMzdjLTAuMzYsMi4xMi0wLjI4LDIuODQsMC4zNCwzLjU1ICAgICAgYzAuMDEtMC42OCwwLjA2LTEuMzYsMC4xNS0yLjAzYzAuMDctMC4zMywwLjQtMC42MywwLjYxLTAuOTRjMC4zMSwwLjE5LDAuNjEsMC40MiwwLjg3LDAuNjhjMC4yOCwwLjQxLDAuNTMsMC44NCwwLjc1LDEuMjggICAgICBjMC4yNi0xLjI5LTAuNjUtMy4xNi0xLjI3LTMuOTdjMC4zNywwLDEuMjUsMS4wMywxLjYxLDEuMDRsMC4wOCwwLjI2bDAuMzQsMC45NWMwLjI3LDAsMC4yNSwwLjEzLDAuNTUsMC4xMiAgICAgIGMxLjM4LTAuMDksMi4wNi0wLjYsMS43My0xLjg5Yy0wLjk0LTMuOC0wLjA1LTcuNC0wLjE5LTguOWMwLjI4LTAuNDMsMC43LTIuMjksMC45NC0yLjc1YzEuMzEtMi41NSwzLjM4LTMuOCw2LTUuMDQgICAgICBjMy43NS0xLjc4LDYuMzUtMS4yOCwxMC40MS0wLjYzYzAuMzQsMC4wNSwyLjMsMC44MywyLjY1LDAuODZjMS40MSwxLjIxLDIuNzIsMi41MiwzLjkzLDMuOTNjLTEuMjcsMC4yMy0xLjk2LTAuNTMtMi4yNSwwLjc1ICAgICAgQzI5LjAzLDE4LjY2LDI4LjE0LDE5Ljc0LDI4Ljc1LDE5LjgzeiBNMzEuODksMjQuMzNjLTAuMjEsMC4wNCwwLjcxLDIuMzcsMC44OCwyLjc3bC0xLjM2LDAuMjJsLTEuMzUsMC4xOWwtMC4xNywwLjI3ICAgICAgYzAuMzMsMC4zMywwLjYxLDAuOCwxLjAxLDAuOTZjMC43NSwwLjMzLDIuMzMtMC4yNSwyLjg1LTAuOTRjMC4xLTAuMTQsMC4yMy0wLjM4LDAuMTgtMC40OGMtMC42Mi0xLjI0LTEuMjctMi40NS0xLjk4LTMuODMgICAgICBMMzEuODksMjQuMzN6IE0xMi41NiwyMi42MmwwLjQxLDAuNzVjMC4wOC0wLjA3LDAuMTYtMC4xNCwwLjIzLTAuMjJjMC4wNS0wLjA4LDAuMDktMC4xNiwwLjEzLTAuMjRjMC45Mi0xLjg0LDIuMjUtMyw0LjQ1LTIuNzIgICAgICBjMC43NSwwLjA5LDAuNjEtMC40NiwwLjM2LTAuODRjLTAuMjItMC4yNS0wLjQ3LTAuNDgtMC43NS0wLjY2QzE1LjA2LDE3LjM0LDExLjk0LDIxLjk5LDEyLjU2LDIyLjYyeiBNMjAuMzksMjYuODlMMjEsMjcuNzUgICAgICBjLTEuMTYsMC43NS0yLjMzLDAuMDYtMy40MywwLjE1Yy0wLjM1LDAuNzUtMC4wOSwxLjI4LDAuNTgsMS4zOWMwLjkyLDAuMiwxLjg4LDAuMjMsMi44MSwwLjA4YzEuMjktMC4yOCwxLjUtMS41LDAuNjQtMi40OSAgICAgIGMtMC4zNi0wLjM4LTAuNjgtMC43OS0wLjk2LTEuMjNjLTAuMzQtMC41OC0wLjU5LTEuMjItMC45NS0xLjk1bC0wLjE4LDAuNmMtMC42MywwLjIzLDAuMjUsMi42NSwwLjg5LDIuNTlMMjAuMzksMjYuODl6ICAgICAgIE0yOC4wOSw0MS42MWMtMS42MSwwLTMuMDMsMC4wOC00LjQ0LDBjLTEuNzgtMC4xMS0zLjQzLTAuNTctNC40MS0yLjI5Yy0wLjA5LTAuMTctMC41Mi0wLjE0LTAuOTQtMC4yMyAgICAgIGMxLjU4LDIuNTIsMy4xNyw0LjU2LDYuMzEsNC4wNkMyNS44Myw0Mi45MiwyNy4xOSw0My4xMSwyOC4wOSw0MS42MXogTTI2LjkxLDM4LjQ1bC03LjM1LTAuNzVjMi4wMSwyLjI1LDQuNjQsMi4zMyw3LjM1LDIuNDMgICAgICBWMzguNDV6IE0yNy42NiwzOS44OGMyLjE0LDAsNC4wNC0xLjM5LDQuNjktMy40M2wtNC42OSwxLjlMMjcuNjYsMzkuODh6Ii8+JiN4YTsJCQk8L2c+JiN4YTsJCQk8ZyBpZD0ic2hhcGUxNjQ1LTciIHRyYW5zZm9ybT0idHJhbnNsYXRlKDQuNDU1LC0xLjU5KSI+JiN4YTsJCQkJPHRpdGxlIGlkPSJ0aXRsZTIzMjciPnBhdGgxNDQ2NDwvdGl0bGU+JiN4YTsJCQkJPHBhdGggaWQ9InBhdGgyMzI5IiBpbmtzY2FwZTpjb25uZWN0b3ItY3VydmF0dXJlPSIwIiBzdHlsZT0iZmlsbDojMzM1MDYxOyIgZD0iTTE1LjQ5LDQ5LjMySDAuNjEgICAgICBjLTAuMTQtMC44Mi0wLjIyLTEuNjYtMC40NS0yLjQ2Yy0wLjE2LTAuNTksMC0wLjg0LDAuNTQtMS4wNWMyLjAxLTAuODcsNC4wMi0xLjc2LDYtMi42N2MwLjc1LTAuMzMsMS40LTAuNzUsMi4xLTEuMTIgICAgICBjMS4zOSwwLjg4LDIuNzUsMS44Myw0LjIsMi42YzAuOTMsMC41LDEuNzcsMC44NCwxLjgzLDIuMTJDMTQuOTYsNDcuNjIsMTUuMTgsNDguNDksMTUuNDksNDkuMzJ6Ii8+JiN4YTsJCQk8L2c+JiN4YTsJCQk8ZyBpZD0ic2hhcGUxNjQ2LTkiIHRyYW5zZm9ybT0idHJhbnNsYXRlKDEzLjExNzUsLTM1LjI1KSI+JiN4YTsJCQkJPHRpdGxlIGlkPSJ0aXRsZTIzMzIiPnBhdGgxNDQ2NjwvdGl0bGU+JiN4YTsJCQkJPHBhdGggaWQ9InBhdGgyMzM0IiBpbmtzY2FwZTpjb25uZWN0b3ItY3VydmF0dXJlPSIwIiBzdHlsZT0iZmlsbDojRjNFMUNBOyIgZD0iTTIwLjAzLDQwLjcxYy0wLjM1LDAtMC43LDAtMS4wNi0wLjA5ICAgICAgQzE1LDM5Ljg1LDEwLjg5LDQwLjMzLDcuMjEsNDJjLTIuNTMsMS4yMy00LjU4LDMuMjgtNS44LDUuODJjLTAuMjMsMC40NS0xLjA0LDEuMTEtMS4zMywxLjVjLTAuMDgtMC45OCwwLjA1LTIuMDMsMC0zICAgICAgYzAuMDQtMC40MSwwLjE4LTAuOCwwLjQxLTEuMTRjMC40OS0wLjc4LDEuMDYtMS41MSwxLjcxLTIuMTdjMi4xNC0xLjk1LDQuNS0zLjcxLDcuMzUtNC4zNCAgICAgIEMxMy4yNywzNy44NSwxNi43NiwzOC44NiwyMC4wMyw0MC43MXoiLz4mI3hhOwkJCTwvZz4mI3hhOwkJCTxnIGlkPSJzaGFwZTE2NDctMTEiIHRyYW5zZm9ybT0idHJhbnNsYXRlKDYuNTk0MDUsLTI2Ljk3NzUpIj4mI3hhOwkJCQk8dGl0bGUgaWQ9InRpdGxlMjMzNyI+cGF0aDE0NDY4PC90aXRsZT4mI3hhOwkJCQk8cGF0aCBpZD0icGF0aDIzMzkiIGlua3NjYXBlOmNvbm5lY3Rvci1jdXJ2YXR1cmU9IjAiIHN0eWxlPSJmaWxsOiM2RDZCNkQ7IiBkPSJNNS45LDM4Ljc2YzAuMDcsMS4yNiwwLjA1LDIuNTItMC4wNCwzLjc4ICAgICAgYy0wLjMyLDIuMS0wLjc1LDMsMC4xNSw1LjgxYzAuMDgsMC4yNC0wLjEyLDAuNTgtMC4yMSwwLjk3Yy0wLjI1LTAuMTktMC4zMy0wLjIxLTAuMzQtMC4yNmMtMC43NS0yLjU5LTIuMjUtMy40MS01LjI1LTIuODMgICAgICBjLTAuNC0xLjM0LTAuMjctMi43OSwwLjM3LTQuMDNDMS41OSwzOS45MywzLjYxLDM5LjA3LDUuOSwzOC43NnoiLz4mI3hhOwkJCTwvZz4mI3hhOwkJCTxnIGlkPSJzaGFwZTE2NDgtMTMiIHRyYW5zZm9ybT0idHJhbnNsYXRlKDIuMDkyNSwtMS42MDUpIj4mI3hhOwkJCQk8dGl0bGUgaWQ9InRpdGxlMjM0MiI+cGF0aDE0NDcwPC90aXRsZT4mI3hhOwkJCQk8cGF0aCBpZD0icGF0aDIzNDQiIGlua3NjYXBlOmNvbm5lY3Rvci1jdXJ2YXR1cmU9IjAiIHN0eWxlPSJmaWxsOiM0ODcwODk7IiBkPSJNMTEuMTcsNDIuMDJjLTAuNywwLjM3LTEuMzgsMC44LTIuMSwxLjEyICAgICAgYy0xLjk5LDAuOTEtNCwxLjgtNiwyLjY3Yy0wLjUsMC4yMS0wLjcsMC40Ni0wLjU0LDEuMDVjMC4yMywwLjgsMC4zMSwxLjY0LDAuNDUsMi40NkgxLjFjLTAuMzctMC45NS0wLjc5LTEuODktMS4xLTIuODUgICAgICBjLTAuMDYtMC4zMSwwLjAyLTAuNjMsMC4yMy0wLjg3YzIuNTItMi4wOCw1LjI5LTMuODUsOC4yNS01LjI1YzAuNTEtMC4zMSwxLjE3LTAuMTcsMS41LDAuMzIgICAgICBDMTAuMzksNDEuMTcsMTAuNzksNDEuNTcsMTEuMTcsNDIuMDJ6Ii8+JiN4YTsJCQk8L2c+JiN4YTsJCQk8ZyBpZD0ic2hhcGUxNjQ5LTE1IiB0cmFuc2Zvcm09InRyYW5zbGF0ZSgzNi43OTUsLTEuNTgyNSkiPiYjeGE7CQkJCTx0aXRsZSBpZD0idGl0bGUyMzQ3Ij5wYXRoMTQ0NzI8L3RpdGxlPiYjeGE7CQkJCTxwYXRoIGlkPSJwYXRoMjM0OSIgaW5rc2NhcGU6Y29ubmVjdG9yLWN1cnZhdHVyZT0iMCIgc3R5bGU9ImZpbGw6IzMzNEY2MDsiIGQ9Ik0zLjYxLDQ5LjMyTDEsNDkuMjdjMC0wLjE1LDAtMC4zNy0wLjA2LTAuNDQgICAgICBDMCw0OC4wMiwwLjI5LDQ3LjEsMC41Miw0Ni4wOGMwLjMtMS42MSwwLjE1LTMuMjctMC40NS00LjhjMC4yMiwwLjEsMC40MywwLjIxLDAuNjMsMC4zM2MxLjM1LDAuOTQsMi43LDEuODksNC4wNCwyLjgzICAgICAgTDMuNjEsNDkuMzJ6Ii8+JiN4YTsJCQk8L2c+JiN4YTsJCQk8ZyBpZD0ic2hhcGUxNjUwLTE3IiB0cmFuc2Zvcm09InRyYW5zbGF0ZSgxMC40ODE2LC05Ljg0KSI+JiN4YTsJCQkJPHRpdGxlIGlkPSJ0aXRsZTIzNTIiPnBhdGgxNDQ3NDwvdGl0bGU+JiN4YTsJCQkJPHBhdGggaWQ9InBhdGgyMzU0IiBpbmtzY2FwZTpjb25uZWN0b3ItY3VydmF0dXJlPSIwIiBzdHlsZT0iZmlsbDojRjJFMEM5OyIgZD0iTTEuMDgsMzguMTZjMC4yNCwwLjM0LDAuOTMsMC42NywwLjk2LDEuMDMgICAgICBjMC4zMSwzLjg3LDEuNCw3LjI4LDQuMDgsMTAuMTNjLTEuNTMsMC4wMS0yLjkzLTAuODItMy42Ni0yLjE2Yy0wLjkzLTEuOTEtMS42Mi0zLjkzLTIuMzgtNS45MWMtMC4yNS0wLjU5LTAuMDktMS4yNywwLjM5LTEuNyAgICAgIEMwLjc1LDM5LjEyLDAuOTUsMzguNjUsMS4wOCwzOC4xNnoiLz4mI3hhOwkJCTwvZz4mI3hhOwkJCTxnIGlkPSJzaGFwZTE2NTEtMTkiIHRyYW5zZm9ybT0idHJhbnNsYXRlKDMxLjMyLC0zLjU3KSI+JiN4YTsJCQkJPHRpdGxlIGlkPSJ0aXRsZTIzNTciPnBhdGgxNDQ3NjwvdGl0bGU+JiN4YTsJCQkJPHBhdGggaWQ9InBhdGgyMzU5IiBpbmtzY2FwZTpjb25uZWN0b3ItY3VydmF0dXJlPSIwIiBzdHlsZT0iZmlsbDojQ0YzNzMzOyIgZD0iTTQuNyw0NC43M2MwLjExLDEuMjUsMC4yMywyLjQ5LDAuMywzLjc1ICAgICAgYzAsMC41Ny0wLjMxLDAuODQtMC45MSwwLjc1bC0zLjc1LTAuNTdDMC4yOCw0OC4wMywwLDQ3LjExLDAuNzYsNDcuMDdjMC43NS0wLjA1LDAuODItMS4zNSwwLjg2LTEuOSAgICAgIGMwLjA5LTEuMzEsMC41MS0wLjksMS44NC0xLjA4QzMuODgsNDQuMDQsNC4yNyw0NC43OSw0LjcsNDQuNzN6Ii8+JiN4YTsJCQk8L2c+JiN4YTsJCQk8ZyBpZD0ic2hhcGUxNjUyLTIxIiB0cmFuc2Zvcm09InRyYW5zbGF0ZSgyMC4wMSwtMC42MykiPiYjeGE7CQkJCTx0aXRsZSBpZD0idGl0bGUyMzYyIj5wYXRoMTQ0Nzg8L3RpdGxlPiYjeGE7CQkJCTxwYXRoIGlkPSJwYXRoMjM2NCIgaW5rc2NhcGU6Y29ubmVjdG9yLWN1cnZhdHVyZT0iMCIgc3R5bGU9ImZpbGw6I0QxMzgzMzsiIGQ9Ik0zLjgxLDQ4Ljg0Yy0wLjU1LDAuMjEtMS4xMSwwLjM3LTEuNjgsMC40OCAgICAgIEMxLjc2LDQ5LjI4LDEuNDEsNDkuMTcsMS4wOCw0OWMwLTAuMDQtMC4wMi0wLjA4LTAuMDUtMC4xMWwtMC4xNS0wLjc1Yy0wLjQ0LTEuNC0wLjcxLTIuODUtMC44MS00LjMxICAgICAgQzAsNDIuOTksMS4xLDQyLjE2LDEuNzIsNDIuMThjMS4yMiwwLjE1LDIuNDMsMC4zOSwzLjYyLDAuN2MwLjIyLDAsMC42OCwwLjMyLDAuNjIsMC41MmMtMC4yMiwwLjc1LTAuMTYsMS4xOCwwLjMyLDEuMzUgICAgICBDNi43Myw0NSw3LjIxLDQ1LjIsNy43LDQ1LjM2Yy0wLjE2LDAuMzktMC4yMiwwLjkzLTAuNTIsMS4xNUM2LjEsNDcuMzIsNC45NSw0OC4wNiwzLjgxLDQ4Ljg0eiIvPiYjeGE7CQkJPC9nPiYjeGE7CQkJPGcgaWQ9InNoYXBlMTY1My0yMyIgdHJhbnNmb3JtPSJ0cmFuc2xhdGUoMjAuMDY1NywtMS43ODUpIj4mI3hhOwkJCQk8dGl0bGUgaWQ9InRpdGxlMjM2NyI+cGF0aDE0NDgwPC90aXRsZT4mI3hhOwkJCQk8cGF0aCBpZD0icGF0aDIzNjkiIGlua3NjYXBlOmNvbm5lY3Rvci1jdXJ2YXR1cmU9IjAiIHN0eWxlPSJmaWxsOiNFNTNCMzk7IiBkPSJNNy42Niw0Ni40OWMtMC41MS0wLjA0LTEuMDEtMC4xMy0xLjUtMC4yNyAgICAgIGMtMC40Ny0wLjE3LTAuOTQtMC40NC0wLjc1LTEuMTdjLTAuMDMtMC4zMi0wLjIyLTAuNi0wLjUxLTAuNzVjLTEuMTItMC4yLTIuMjUtMC4zMS0zLjM4LTAuMzRjLTAuNjIsMC0wLjksMC43NS0wLjgzLDEuNjEgICAgICBjMC4xMSwxLjIzLDAuMTEsMi40OSwwLjE1LDMuNzVjLTAuODUtMS43NC0xLjEzLTMuNjktMC44MS01LjZjMC4yLTEuMjUsMC43LTEuNjYsMS44OS0xLjI4YzEuMTgsMC4zNywyLjQ5LDAuOTEsMy43MSwxLjQyICAgICAgYzAuNjQsMC4yNywxLjI1LDAuNjQsMi4xMSwxLjA4bC0xLjY1LDAuNzFMNy42Niw0Ni40OXoiLz4mI3hhOwkJCTwvZz4mI3hhOwkJCTxnIGlkPSJzaGFwZTE2NTQtMjUiIHRyYW5zZm9ybT0idHJhbnNsYXRlKDQuNzQsLTIyLjAyNzUpIj4mI3hhOwkJCQk8dGl0bGUgaWQ9InRpdGxlMjM3MiI+cGF0aDE0NDgyPC90aXRsZT4mI3hhOwkJCQk8cGF0aCBpZD0icGF0aDIzNzQiIGlua3NjYXBlOmNvbm5lY3Rvci1jdXJ2YXR1cmU9IjAiIHN0eWxlPSJmaWxsOiNFRkREQzc7IiBkPSJNNiw0NC40OUg0Ljg5Yy0wLjQ4LTAuMjUtMC45OC0wLjQ1LTEuNS0wLjU4ICAgICAgYy0wLjY3LTAuMS0xLjMsMC4zNi0xLjQsMS4wNGMtMC4wMiwwLjExLTAuMDIsMC4yMywwLDAuMzRjLTAuMTIsMS4wOS0wLjI0LDIuMTktMC4zOCwzLjI4Yy0wLjA2LDAuMjYtMC4xNCwwLjUxLTAuMjQsMC43NSAgICAgIEMwLjU1LDQ3Ljk4LDAsNDYuNTksMC41Myw0NS4wOWMwLjMxLTAuODMsMC44NS0xLjU1LDEuNTYtMi4wN0MzLjczLDQxLjg3LDUuMjYsNDIuNTEsNiw0NC40OXoiLz4mI3hhOwkJCTwvZz4mI3hhOwkJCTxnIGlkPSJzaGFwZTE2NTUtMjciIHRyYW5zZm9ybT0idHJhbnNsYXRlKDM1LjI3MjUsLTYuNDU3NSkiPiYjeGE7CQkJCTx0aXRsZSBpZD0idGl0bGUyMzc3Ij5wYXRoMTQ0ODQ8L3RpdGxlPiYjeGE7CQkJCTxwYXRoIGlkPSJwYXRoMjM3OSIgaW5rc2NhcGU6Y29ubmVjdG9yLWN1cnZhdHVyZT0iMCIgc3R5bGU9ImZpbGw6IzQ3NkY4NzsiIGQ9Ik02LjI1LDQ5LjMyYy0xLjM0LTAuOTUtMi42OC0xLjg5LTQuMDMtMi44MyAgICAgIGMtMC4yLTAuMTMtMC40MS0wLjI0LTAuNjMtMC4zNEwwLDQ0LjU5bDEuMzMtMS4xNmwyLjI1LDIuMDJjMC40NCwwLjQ3LDAuOTEsMC45MSwxLjQxLDEuMzJDNS45MSw0Ny4yNyw2LjQxLDQ4LjI5LDYuMjUsNDkuMzJ6Ii8+JiN4YTsJCQk8L2c+JiN4YTsJCQk8ZyBpZD0ic2hhcGUxNjU2LTI5IiB0cmFuc2Zvcm09InRyYW5zbGF0ZSg4LjgyLC0zOC44NjUpIj4mI3hhOwkJCQk8dGl0bGUgaWQ9InRpdGxlMjM4MiI+cGF0aDE0NDg2PC90aXRsZT4mI3hhOwkJCQk8cGF0aCBpZD0icGF0aDIzODQiIGlua3NjYXBlOmNvbm5lY3Rvci1jdXJ2YXR1cmU9IjAiIHN0eWxlPSJmaWxsOiNEM0QwQ0Y7IiBkPSJNMS45Nyw0OC41N0wwLDQ5LjMyICAgICAgYzAuOTgtMi42Miw3LjA1LTYuNTEsOC43NC01LjU5bC0yLjQ0LDEuNUM0LjUzLDQ1Ljg0LDMuMDEsNDcuMDEsMS45Nyw0OC41N3oiLz4mI3hhOwkJCTwvZz4mI3hhOwkJCTxnIGlkPSJzaGFwZTE2NTctMzEiIHRyYW5zZm9ybT0idHJhbnNsYXRlKDYuMzE1LC0zMC4wNzUpIj4mI3hhOwkJCQk8dGl0bGUgaWQ9InRpdGxlMjM4NyI+cGF0aDE0NDg4PC90aXRsZT4mI3hhOwkJCQk8cGF0aCBpZD0icGF0aDIzODkiIGlua3NjYXBlOmNvbm5lY3Rvci1jdXJ2YXR1cmU9IjAiIHN0eWxlPSJmaWxsOiNEQ0Q5RDg7IiBkPSJNNi4xOCw0MS44NWMtMi4zMSwwLjMzLTQuMzEsMS4xOC01LjM1LDMuNDMgICAgICBjLTAuNjQsMS4yNS0wLjc4LDIuNy0wLjM3LDQuMDRjLTAuMTUsMC0wLjQ0LDAtMC40Ni0wLjA2Yy0xLjA4LTMuMjcsMC43LTYuOCwzLjk3LTcuODhjMC4zMi0wLjExLDAuNjUtMC4xOSwwLjk4LTAuMjQgICAgICBsMS4wOS0wLjE2TDYuMTgsNDEuODV6Ii8+JiN4YTsJCQk8L2c+JiN4YTsJCQk8ZyBpZD0ic2hhcGUxNjU4LTMzIiB0cmFuc2Zvcm09InRyYW5zbGF0ZSgzMC44NTUsLTQuMjIyNSkiPiYjeGE7CQkJCTx0aXRsZSBpZD0idGl0bGUyMzkyIj5wYXRoMTQ0OTA8L3RpdGxlPiYjeGE7CQkJCTxwYXRoIGlkPSJwYXRoMjM5NCIgaW5rc2NhcGU6Y29ubmVjdG9yLWN1cnZhdHVyZT0iMCIgc3R5bGU9ImZpbGw6I0U1M0IzOTsiIGQ9Ik01LjE3LDQ1LjM4Yy0wLjQyLDAuMDctMC44NCwwLjE0LTEuMjcsMC4xOSAgICAgIGMtMS4zNCwwLjE4LTEuMzMsMC4xOC0xLjQyLDEuNWMtMC4wNCwwLjU1LTAuMTMsMS4wOC0wLjgyLDEuMTJjLTAuNjksMC4wNC0wLjkxLDAuNS0wLjg1LDEuMTNDMC43LDQ4LjksMC40LDQ4LjQxLDAuNTMsNDguMDkgICAgICBjMC4xNC0wLjMxLDAuNjgtMC41NCwxLjA4LTAuODJjLTAuNDQtMC4yNC0xLjYxLDAuMzQtMS40NC0xLjFjMC45NS0wLjU1LDEuOTgtMS4yMywzLjA5LTEuNzVDNC4zNyw0My45LDQuODQsNDQuMjYsNS4xNyw0NS4zOHogICAgICAiLz4mI3hhOwkJCTwvZz4mI3hhOwkJCTxnIGlkPSJzaGFwZTE2NTktMzUiIHRyYW5zZm9ybT0idHJhbnNsYXRlKDI4LjUsLTEuNTk3NSkiPiYjeGE7CQkJCTx0aXRsZSBpZD0idGl0bGUyMzk3Ij5wYXRoMTQ0OTI8L3RpdGxlPiYjeGE7CQkJCTxwYXRoIGlkPSJwYXRoMjM5OSIgaW5rc2NhcGU6Y29ubmVjdG9yLWN1cnZhdHVyZT0iMCIgc3R5bGU9ImZpbGw6I0Y3RjdGNzsiIGQ9Ik0xLjExLDQ5LjMyQzAsNDcuOTEsMS43OCw0Ny45MSwyLjg0LDQ3LjkxICAgICAgYzAuODYsMCwxLjE2LDAuNjYsMS4yNSwxLjM4Yy0wLjQ3LTAuMDktMC45My0wLjItMS4zOS0wLjI1Yy0wLjI3LDAtMC41MywwLjAzLTAuNzksMC4xQzEuNjQsNDkuMTcsMS4zNyw0OS4yNSwxLjExLDQ5LjMyeiIvPiYjeGE7CQkJPC9nPiYjeGE7CQkJPGcgaWQ9InNoYXBlMTY2MC0zNyIgdHJhbnNmb3JtPSJ0cmFuc2xhdGUoMjcuODc3NSwtMS41OTc1KSI+JiN4YTsJCQkJPHRpdGxlIGlkPSJ0aXRsZTI0MDIiPnBhdGgxNDQ5NDwvdGl0bGU+JiN4YTsJCQkJPHBhdGggaWQ9InBhdGgyNDA0IiBpbmtzY2FwZTpjb25uZWN0b3ItY3VydmF0dXJlPSIwIiBzdHlsZT0iZmlsbDojRDdENEQzOyIgZD0iTTQuODksNDkuMjhINC43MWMtMC40OC0wLjI3LTAuOTUtMC41NS0xLjQzLTAuOCAgICAgIGMtMC45NS0wLjQ3LTEuMzItMC4yNi0xLjU2LDAuODRsLTEuMDctMC4wNkwwLDQ4LjE4YzAuNTgtMC44OSwxLjY1LTAuODYsMi40My0wLjg5czEuNjQsMC42MiwyLjQ2LDFMNC44OSw0OS4yOHoiLz4mI3hhOwkJCTwvZz4mI3hhOwkJCTxnIGlkPSJzaGFwZTE2NjEtMzkiIHRyYW5zZm9ybT0idHJhbnNsYXRlKDEwLjc5MjUsLTM5LjU3KSI+JiN4YTsJCQkJPHRpdGxlIGlkPSJ0aXRsZTI0MDciPnBhdGgxNDQ5NjwvdGl0bGU+JiN4YTsJCQkJPHBhdGggaWQ9InBhdGgyNDA5IiBpbmtzY2FwZTpjb25uZWN0b3ItY3VydmF0dXJlPSIwIiBzdHlsZT0iZmlsbDojNkQ2QjZEOyIgZD0iTTAsNDkuMjdjMS4wNS0xLjU0LDIuNTctMi42OSw0LjMzLTMuMjkgICAgICBDMy43OCw0Ny4wMiwzLjEsNDgsMi4zMSw0OC44OEMxLjgyLDQ5LjMyLDAuNzksNDkuMTQsMCw0OS4yN3oiLz4mI3hhOwkJCTwvZz4mI3hhOwkJCTxnIGlkPSJzaGFwZTE2NjItNDEiIHRyYW5zZm9ybT0idHJhbnNsYXRlKDE1LjI0NzUsLTcuMTMyNSkiPiYjeGE7CQkJCTx0aXRsZSBpZD0idGl0bGUyNDEyIj5wYXRoMTQ0OTg8L3RpdGxlPiYjeGE7CQkJCTxwYXRoIGlkPSJwYXRoMjQxNCIgaW5rc2NhcGU6Y29ubmVjdG9yLWN1cnZhdHVyZT0iMCIgc3R5bGU9ImZpbGw6I0U5RThFODsiIGQ9Ik0zLjk1LDQ3Ljk3bC0wLjMxLDEuMzUgICAgICBDMS44LDQ5LjIyLDAuMTksNDguMzYsMCw0Ny4zN0wzLjk1LDQ3Ljk3eiIvPiYjeGE7CQkJPC9nPiYjeGE7CQkJPGcgaWQ9InNoYXBlMTY2My00MyIgdHJhbnNmb3JtPSJ0cmFuc2xhdGUoMzMuODQsLTM3LjUzNzUpIj4mI3hhOwkJCQk8dGl0bGUgaWQ9InRpdGxlMjQxNyI+cGF0aDE0NTAwPC90aXRsZT4mI3hhOwkJCQk8cGF0aCBpZD0icGF0aDI0MTkiIGlua3NjYXBlOmNvbm5lY3Rvci1jdXJ2YXR1cmU9IjAiIHN0eWxlPSJmaWxsOiNGMkUwQzk7IiBkPSJNMC42MSw0OS4zMkMwLDQ5LjIzLDAuMDEsNDguNzksMC4xLDQ4LjM0ICAgICAgYzAuMjMtMS4xOSwxLjIyLTIuMSwyLjQzLTIuMjFsMS4wOSwxLjNjLTAuNjYsMC4wNS0xLjMyLDAuMTUtMS45NiwwLjNDMS4wMSw0Ny45OCwwLjU5LDQ4LjYyLDAuNjEsNDkuMzJ6Ii8+JiN4YTsJCQk8L2c+JiN4YTsJCQk8ZyBpZD0ic2hhcGUxNjY0LTQ1IiB0cmFuc2Zvcm09InRyYW5zbGF0ZSgyNi41MTI1LC03LjYwOTI0KSI+JiN4YTsJCQkJPHRpdGxlIGlkPSJ0aXRsZTI0MjIiPnBhdGgxNDUwMjwvdGl0bGU+JiN4YTsJCQkJPHBhdGggaWQ9InBhdGgyNDI0IiBpbmtzY2FwZTpjb25uZWN0b3ItY3VydmF0dXJlPSIwIiBzdHlsZT0iZmlsbDojREVDOEFEOyIgZD0iTTAsNDguNDFsNC44Mi0wLjUzICAgICAgYy0wLjksMS40NS0yLjgsMS44OS00LjI1LDAuOTlDMC4zNyw0OC43NCwwLjE3LDQ4LjU5LDAsNDguNDF6Ii8+JiN4YTsJCQk8L2c+JiN4YTsJCQk8ZyBpZD0ic2hhcGUxNjY1LTQ3IiB0cmFuc2Zvcm09InRyYW5zbGF0ZSgyOC4zOCwtNC40MjUpIj4mI3hhOwkJCQk8dGl0bGUgaWQ9InRpdGxlMjQyNyI+cGF0aDE0NTA0PC90aXRsZT4mI3hhOwkJCQk8cGF0aCBpZD0icGF0aDI0MjkiIGlua3NjYXBlOmNvbm5lY3Rvci1jdXJ2YXR1cmU9IjAiIHN0eWxlPSJmaWxsOiNFNTNCMzk7IiBkPSJNMCw0Ny40OWMwLjI1LTAuMjMsMC41NS0wLjQsMC44OC0wLjUgICAgICBjMC42Ni0wLjA3LDEuMDEsMC40MSwxLjAzLDEuMDRjMC4wOCwwLjU4LTAuMzIsMS4xMS0wLjg5LDEuMmMtMC4wNCwwLjAxLTAuMDgsMC4wMS0wLjEzLDAuMDFDMC4zMiw0OS4zMiwwLjAyLDQ4LjgsMCw0Ny40OXoiLz4mI3hhOwkJCTwvZz4mI3hhOwkJCTxnIGlkPSJzaGFwZTE2NjYtNDkiIHRyYW5zZm9ybT0idHJhbnNsYXRlKDMzLjQ1LC0xLjUpIj4mI3hhOwkJCQk8dGl0bGUgaWQ9InRpdGxlMjQzMiI+cGF0aDE0NTA2PC90aXRsZT4mI3hhOwkJCQk8cGF0aCBpZD0icGF0aDI0MzQiIGlua3NjYXBlOmNvbm5lY3Rvci1jdXJ2YXR1cmU9IjAiIHN0eWxlPSJmaWxsOiM3RUFBQkQ7IiBkPSJNMy43NSw0OS4zMkgwYzAuMDEtMC44NiwwLjcyLTEuNTQsMS41OC0xLjUzICAgICAgYzAuMjgsMCwwLjU1LDAuMDgsMC43OCwwLjIzQzIuODQsNDguMjQsMy4zMyw0OC45NiwzLjc1LDQ5LjMyeiIvPiYjeGE7CQkJPC9nPiYjeGE7CQkJPGcgaWQ9InNoYXBlMTY2Ny01MSIgdHJhbnNmb3JtPSJ0cmFuc2xhdGUoNi4zNDUsLTIxLjUyNSkiPiYjeGE7CQkJCTx0aXRsZSBpZD0idGl0bGUyNDM3Ij5wYXRoMTQ1MDg8L3RpdGxlPiYjeGE7CQkJCTxwYXRoIGlkPSJwYXRoMjQzOSIgaW5rc2NhcGU6Y29ubmVjdG9yLWN1cnZhdHVyZT0iMCIgc3R5bGU9ImZpbGw6I0VGRERDNzsiIGQ9Ik0wLDQ5LjA5bDAuMTksMC4yM0wwLDQ5LjA5eiIvPiYjeGE7CQkJPC9nPiYjeGE7CQkJPGcgaWQ9InNoYXBlMTY2OC01MyIgdHJhbnNmb3JtPSJ0cmFuc2xhdGUoMTAuNzMyNSwtMjYuNTY1KSI+JiN4YTsJCQkJPHRpdGxlIGlkPSJ0aXRsZTI0NDIiPnBhdGgxNDUxMDwvdGl0bGU+JiN4YTsJCQkJPHBhdGggaWQ9InBhdGgyNDQ0IiBpbmtzY2FwZTpjb25uZWN0b3ItY3VydmF0dXJlPSIwIiBzdHlsZT0iZmlsbDojRUZEREM3OyIgZD0iTTAuMDcsNDkuMzJMMCw0OS4wNUwwLjA3LDQ5LjMyeiIvPiYjeGE7CQkJPC9nPiYjeGE7CQkJPGcgaWQ9InNoYXBlMTY2OS01NSIgdHJhbnNmb3JtPSJ0cmFuc2xhdGUoMjguNTYsLTIwLjA3KSI+JiN4YTsJCQkJPHRpdGxlIGlkPSJ0aXRsZTI0NDciPnBhdGgxNDUxMjwvdGl0bGU+JiN4YTsJCQkJPHBhdGggaWQ9InBhdGgyNDQ5IiBpbmtzY2FwZTpjb25uZWN0b3ItY3VydmF0dXJlPSIwIiBzdHlsZT0iZmlsbDojMkIyNzI2OyIgZD0iTTAuOSw0Ni44OWMwLjI3LDEuMTgsMC41MSwxLjUsMS41OSwxLjI3ICAgICAgYzEuNTgtMC40MSwzLjExLTAuOTUsNC41OS0xLjYzYzAuNjctMC4yOSwwLjYxLTEuMjYsMC0yLjA0Yy0wLjk1LTEuMjItMS45NS0yLjQtMi44NS0zLjY1Yy0wLjk2LTEuMjItMS40My0yLjc2LTEuMzEtNC4zMSAgICAgIGMwLjI1LDAuMjIsMC40NywwLjMxLDAuNTIsMC40NmMwLjk1LDIuNzEsMi44Nyw0Ljc0LDQuNzcsNi43NWMwLjg4LDAuODIsMC45NCwyLjIsMC4xMiwzLjA4Yy0wLjE0LDAuMTUtMC4zMSwwLjI5LTAuNDksMC40ICAgICAgYy0xLjk1LDEuMi0zLjk5LDIuMS02LjM2LDEuOTVjLTAuODQtMC4wNS0xLjA0LTAuNjMtMS4xMS0xLjIzQzAuMzEsNDcuNDcsMCw0Ni43OCwwLjg1LDQ2LjU2TDAuOSw0Ni44OXoiLz4mI3hhOwkJCTwvZz4mI3hhOwkJCTxnIGlkPSJzaGFwZTE2NzAtNTciIHRyYW5zZm9ybT0idHJhbnNsYXRlKDIzLjEwNzUsLTMwLjMyMjUpIj4mI3hhOwkJCQk8dGl0bGUgaWQ9InRpdGxlMjQ1MiI+cGF0aDE0NTE0PC90aXRsZT4mI3hhOwkJCQk8cGF0aCBpZD0icGF0aDI0NTQiIGlua3NjYXBlOmNvbm5lY3Rvci1jdXJ2YXR1cmU9IjAiIHN0eWxlPSJmaWxsOiNGNUUyQ0I7IiBkPSJNMi4wOSw0Ni41NmwwLjkzLDIuNjEgICAgICBjLTAuNjMsMC4xMi0xLjI3LDAuMTctMS45MSwwLjE1QzAuNjUsNDkuMjUsMC4yNCw0OC45OCwwLDQ4LjU3Yy0wLjEtMC40NiwwLjA0LTAuOTMsMC4zNy0xLjI3ICAgICAgQzAuOTEsNDYuOTcsMS40OSw0Ni43MywyLjA5LDQ2LjU2eiIvPiYjeGE7CQkJPC9nPiYjeGE7CQkJPGcgaWQ9InNoYXBlMTY3MS01OSIgdHJhbnNmb3JtPSJ0cmFuc2xhdGUoMTcuNjQ3NSwtMzQuNzQ3NSkiPiYjeGE7CQkJCTx0aXRsZSBpZD0idGl0bGUyNDU3Ij5wYXRoMTQ1MTY8L3RpdGxlPiYjeGE7CQkJCTxwYXRoIGlkPSJwYXRoMjQ1OSIgaW5rc2NhcGU6Y29ubmVjdG9yLWN1cnZhdHVyZT0iMCIgc3R5bGU9ImZpbGw6I0VGRERDNzsiIGQ9Ik01LjQ2LDQ1LjRjLTEuOTEtMC41My00LjU3LDEuNy00Ljg0LDMuOTIgICAgICBjLTAuNjItMC42My0wLjM4LTEuMzMtMC4xLTEuOThDMS4wNyw0Ni4wMSwyLjIsNDUsMy41OCw0NC41OWMwLjcyLTAuMzEsMS41NCwwLjAyLDEuODUsMC43NEM1LjQ0LDQ1LjM1LDUuNDUsNDUuMzgsNS40Niw0NS40eiIvPiYjeGE7CQkJPC9nPiYjeGE7CQkJPGcgaWQ9InNoYXBlMTY3Mi02MSIgdHJhbnNmb3JtPSJ0cmFuc2xhdGUoMzUuNjEsLTMwLjI3NzUpIj4mI3hhOwkJCQk8dGl0bGUgaWQ9InRpdGxlMjQ2MiI+cGF0aDE0NTE4PC90aXRsZT4mI3hhOwkJCQk8cGF0aCBpZD0icGF0aDI0NjQiIGlua3NjYXBlOmNvbm5lY3Rvci1jdXJ2YXR1cmU9IjAiIHN0eWxlPSJmaWxsOiNGNUUyQ0I7IiBkPSJNMS45OCw0Ni41MmwwLjQ2LDEuNzYgICAgICBjLTAuMDYsMC4wNy0wLjExLDAuMTctMC4xOCwwLjJjLTAuNiwwLjI0LTEuMjMsMC44NC0xLjgzLDAuMTVjLTAuNDMtMC41LDAuMTItMS41OCwwLjkzLTEuOTdDMS41Niw0Ni41OSwxLjc3LDQ2LjU0LDEuOTgsNDYuNTIgICAgICB6Ii8+JiN4YTsJCQk8L2c+JiN4YTsJCQk8ZyBpZD0ic2hhcGUxNjczLTYzIiB0cmFuc2Zvcm09InRyYW5zbGF0ZSgyMi40NzgzLC0xNy4xMTUpIj4mI3hhOwkJCQk8dGl0bGUgaWQ9InRpdGxlMjQ2NyI+cGF0aDE0NTIwPC90aXRsZT4mI3hhOwkJCQk8cGF0aCBpZD0icGF0aDI0NjkiIGlua3NjYXBlOmNvbm5lY3Rvci1jdXJ2YXR1cmU9IjAiIHN0eWxlPSJmaWxsOiNGNUUyQ0I7IiBkPSJNMC4wNSw0OS4yOWMtMC4wNy0wLjY5LTAuMDctMS40LDAtMi4wOSAgICAgIGMwLTAuMTYsMC43NS0wLjIxLDEuNC0wLjM3bC0wLjk4LDIuNDlMMC4wNSw0OS4yOXoiLz4mI3hhOwkJCTwvZz4mI3hhOwkJCTxnIGlkPSJzaGFwZTE2NzQtNjUiIHRyYW5zZm9ybT0idHJhbnNsYXRlKDI5LjM4NSwtMjIuNSkiPiYjeGE7CQkJCTx0aXRsZSBpZD0idGl0bGUyNDcyIj5wYXRoMTQ1MjI8L3RpdGxlPiYjeGE7CQkJCTxwYXRoIGlkPSJwYXRoMjQ3NCIgaW5rc2NhcGU6Y29ubmVjdG9yLWN1cnZhdHVyZT0iMCIgc3R5bGU9ImZpbGw6I0Y1RTJDQjsiIGQ9Ik0wLjA3LDQ5LjMyTDAsNDkuMDIgICAgICBjMC4wMy0wLjQsMC4xLTAuNzksMC4yMi0xLjE3YzAuMTEtMC4yNiwwLjM0LTAuNDUsMC42MS0wLjUzYzAuMjYsMC4wMywwLjQ5LDAuMiwwLjYsMC40NGMwLjA1LDAuMjktMC4wMywwLjU4LTAuMjMsMC43OSAgICAgIEMwLjg1LDQ4Ljg1LDAuNDcsNDkuMTEsMC4wNyw0OS4zMnoiLz4mI3hhOwkJCTwvZz4mI3hhOwkJPC9nPiYjeGE7CTwvZz4mI3hhOzwvZz4mI3hhOzwvc3ZnPg==;imageBorder=default;fillColor=#99FF99;comic=0;snapToPoint=0;fixDash=1;" parent="1" vertex="1">
          <mxGeometry x="607" y="695" width="149.62" height="167" as="geometry" />
        </mxCell>
        <mxCell id="LB7Hno4nHKk7k6WSY0Ma-91" value="" style="shape=image;verticalLabelPosition=bottom;labelBackgroundColor=default;verticalAlign=top;aspect=fixed;imageAspect=0;image=data:image/svg+xml,PHN2ZyB4bWxucz0iaHR0cDovL3d3dy53My5vcmcvMjAwMC9zdmciIHZpZXdCb3g9IjAgMCA1MTIgNTEyIiByb2xlPSJpbWciIGFyaWEtbGFiZWw9IkRvY2tlciI+PHJlY3QgZmlsbD0iI2ZmZmZmZiIgcng9IjE1JSIgaGVpZ2h0PSI1MTIiIHdpZHRoPSI1MTIiLz48cGF0aCBkPSJNMjk2IDIyNmg0Mm0tOTIgMGg0Mm0tOTEgMGg0Mm0tOTEgMGg0MW0tOTEgMGg0Mm04LTQ2aDQxbTggMGg0Mm03IDBoNDJtLTQyLTQ2aDQyIiBzdHJva2Utd2lkdGg9IjM4IiBzdHJva2U9IiMwNjZkYTUiLz48cGF0aCBkPSJtNDcyIDIyOHMtMTgtMTctNTUtMTFjLTQtMjktMzUtNDYtMzUtNDZzLTI5IDM1LTggNzRjLTYgMy0xNiA3LTMxIDdINjhjLTUgMTktNSAxNDUgMTMzIDE0NSA5OSAwIDE3My00NiAyMDgtMTMwIDUyIDQgNjMtMzkgNjMtMzkiIGZpbGw9IiMwNjZkYTUiLz48L3N2Zz4=;comic=0;snapToPoint=0;fixDash=1;" parent="1" vertex="1">
          <mxGeometry x="1350" y="652" width="110" height="110" as="geometry" />
        </mxCell>
        <mxCell id="LB7Hno4nHKk7k6WSY0Ma-98" value="" style="shape=image;verticalLabelPosition=bottom;labelBackgroundColor=default;verticalAlign=top;aspect=fixed;imageAspect=0;image=data:image/png,iVBORw0KGgoAAAANSUhEUgAAAW0AAAF/CAYAAACCH5iyAAAABGdBTUEAALGPC/xhBQAAACBjSFJNAAB6JgAAgIQAAPoAAACA6AAAdTAAAOpgAAA6mAAAF3CculE8AAAAhGVYSWZNTQAqAAAACAAFARIAAwAAAAEAAQAAARoABQAAAAEAAABKARsABQAAAAEAAABSASgAAwAAAAEAAgAAh2kABAAAAAEAAABaAAAAAAAAASwAAAABAAABLAAAAAEAA6ABAAMAAAABAAEAAKACAAQAAAABAAABbaADAAQAAAABAAABfwAAAADo6oRjAAAACXBIWXMAAC4jAAAuIwF4pT92AAACaGlUWHRYTUw6Y29tLmFkb2JlLnhtcAAAAAAAPHg6eG1wbWV0YSB4bWxuczp4PSJhZG9iZTpuczptZXRhLyIgeDp4bXB0az0iWE1QIENvcmUgNi4wLjAiPgogICA8cmRmOlJERiB4bWxuczpyZGY9Imh0dHA6Ly93d3cudzMub3JnLzE5OTkvMDIvMjItcmRmLXN5bnRheC1ucyMiPgogICAgICA8cmRmOkRlc2NyaXB0aW9uIHJkZjphYm91dD0iIgogICAgICAgICAgICB4bWxuczp0aWZmPSJodHRwOi8vbnMuYWRvYmUuY29tL3RpZmYvMS4wLyIKICAgICAgICAgICAgeG1sbnM6ZXhpZj0iaHR0cDovL25zLmFkb2JlLmNvbS9leGlmLzEuMC8iPgogICAgICAgICA8dGlmZjpPcmllbnRhdGlvbj4xPC90aWZmOk9yaWVudGF0aW9uPgogICAgICAgICA8dGlmZjpSZXNvbHV0aW9uVW5pdD4yPC90aWZmOlJlc29sdXRpb25Vbml0PgogICAgICAgICA8ZXhpZjpQaXhlbFlEaW1lbnNpb24+NzY1PC9leGlmOlBpeGVsWURpbWVuc2lvbj4KICAgICAgICAgPGV4aWY6UGl4ZWxYRGltZW5zaW9uPjcyOTwvZXhpZjpQaXhlbFhEaW1lbnNpb24+CiAgICAgICAgIDxleGlmOkNvbG9yU3BhY2U+MTwvZXhpZjpDb2xvclNwYWNlPgogICAgICA8L3JkZjpEZXNjcmlwdGlvbj4KICAgPC9yZGY6UkRGPgo8L3g6eG1wbWV0YT4KGHQMggAAQABJREFUeAHsnQd8ZkX198+TtpvtvZckW+jFShFBEUWwgF3soH8poiK+oKA0ASugImBBQBEQe0UQBUWaYqHDwrZks9m+m03Ppj3v9zdz58mT7C7s5nmSTXbn5HNz73Pv3JkzZ+785syZMzNmkaIEogSiBKIEogSiBKIEogSiBKIEogSiBKIEogSiBKIEogSiBKIEogSiBKIEogSiBKIEogSiBKIEogSiBKIEogSiBKIEogSiBKIEogSiBKIEogSiBKIEogSiBKIEogSiBKIEogSiBKIEogSiBKIEogSiBKIEogSiBKIEogSiBKIEogSiBKIEogSiBKIEogSiBKIEogSiBKIEogSiBKIEogSiBKIEogSiBKIEogSiBKIEogSiBKIEogSiBKIEogSiBKIEogSiBKIEogSiBKIEogSiBKIEogSiBKIEogSiBKIEogSiBKIEogSiBKIEogSiBKIEogSiBKIEogSiBKIEogSiBKIEogSiBKIEogSiBKIEogSiBKIEogSiBKIEogSiBKIEogSiBKIEogSiBKIEogSiBKIEogSiBKIEogSiBKIEogSiBKIEogSiBKIEogSiBKIEogSiBIakBNLpdErHkGQ+Mh0lECUQJbCnSCAB68KQX35nrsO9eI4SiBKIEogSGAQSyAZorudyjBJbus9RMAhYjCxECUQJRAlECQiQAyhzLuY4m6OW4wmO44OEuC7iiCaTIJB4jhKIEogSGEgJCIAFxCFNrk/geJyjN/2KG/tmhcu8E+7Fc5RAlECUQJRAP0oAEM4AL9cHcPyOI6Gu9nRXV1e6q7OTGx3JzRbOX+cYL7Y4C/CjvbsfyyhGHSUQJRAl4OzTQQyA7iSOqzi2cIg6EqD2v8L/rs4A3NzpWsG/U7LiiPbuIIx4jhKIEogSyJcEAFrZrZ1mzFla8sc5ajg8ZQNzR3M6XY3ivf6R8JQzmncaDbybHuLytYE/rqO9OwgjnqMEogSiBPoqAcC0t9369dz7F0dCAmIBsojThn+n049+IJ1+AKX8QY5nL02nGyv9Yx9GJpNs8L6Z3xWBP64zZpdwL56jBKIEogSiBHZAAtkAyvUCjls5AgmsBcCeGpan089c7IH6YcD6kXkcc7p/L/8JRhQ5lCTkNfPwfj13L+QYIbY4Z7T6HWAzBokSGFAJRPenARV3TGxHJABoygzSlUpJyU6P5vocjrM5Ruq+oVFbqsAPIrbVmtX83mztR0BbnhaVc67jYhMHlJrF7xazjo1mw15jNvMCs6mv5n6x0JmzdfAvaNfP88ZFpHu7XiVt3e8UH/odKUpgMEgggvZgKIXIg5MAIKkJMGBkqlM3+P1+TpdwzNNv7nQAzEWE4LIdoP6b2Uoetz0EWE/izWHcryGcPutsnAV7Bd5dlYA3j8Z8wmz2aWbj9ucH5BoBpZkB73u4ez58POIeR/CWGCINEgno644UJbBLJQA46zssBCQFqQLrwzldzvEaDsiBdaHg3P2sfdKs+jqzhu8B1twpKCNINRcO612Qnv8CiKO0pyYTbJn0dbNJVwLe7zUrneGDYxsnDanf0uIV4gccl5GsWgLxJR63l4iCRIoS6HcJRNDudxHHBF5IAtlAyPVswl7I8TH/TroTpExhCpEGbtYMdq681WzD5wBqfhdWgKTruGjkCMDM5XYpCSPgtuFm7QB90USz6d/lOI5rN+udOLs6kzRTpL8JIFcD8h0AWwOYjheuBeqRogQGXAIRtAdc5DFBSSAb/Lgu4dZZHOdxjNNjgBOtN7FbtzeYrf4TB1qx9NziOfzDTp1ez3lHwJpg26IUbYTiaG9F234TWjfJTz6MkOByGkx2mn/GZPI4Dy4ErDGg8ziaTCSGSLtAAhG0d4HQ9+QkATt9c9mmkLfz+xKOYGDOsluD0OsfRLv+Chh9F2CNJpxiQqMzheRLirQXqZkYQ5Z7e/c4tPjZp2D3XugT8IOeaipkiBEJtL8IeGOj8eDNtTPr6HekKIH+lkAE7f6WcIw/IwFppwHguD6YB5dxoOKKZLfGayRV4L/JukXYra83q7sqsVuXE2Ql4RiAzCspOQ1ajgW8JwDcgLdoCjbzWe/C44QBTpHX/BVQ9u42jms4vkx+NiYNUQHXAvdIUQL9KoEI2v0q3hi5JACoZQbwuJ7CrfM5zuAo5sBu3dVtt27FRr3y52jYn+QRVCS79QYu6jkCwOpBvimJOzWdiLluXwV3KP8z0PKnvQ6oLvXYbs7eLeAW1XBcwvFDAJusOVfFNNfR3i3pROoXCehLjRQl0C8SAMQ0aAeGpTSJRdenclzIMY1D2qsG/DwAdjZjs77bbBUu2R1LAExMFvLPS6/lnACq3hkQIr0UdvN0lVfsR56EyeRss4kvT1LHwTtNY5PK2Lsf4YFMJn9RAPIqU0r075YwIuVdAhG08y7SGCGgpe8q2279Rn5fypGgHqYQZ2ZwDtd4g/wbUwjud81o2NK9HWBWcyFrxK4gsa+00a6leQcXwfEXA94fMhtVnjDlRiulVQd7921ca3IOrY4Hb66V10hRAnmTQATtvIkyRiQJSMsMQMX1Xtz6Ese79QzCbt3VbbduANuqf2xWi2lb+nYhYJhezQXeHAOuXZPkVqTqIfBm8DOFU4vs3bo19UfMrHyrWQn3Rb7HoCfqTTRyfJPj68ihMWnAor0bgUTKjwT0oUWKEshZAoCTYDdMPWdUz3DDsE9zjNB9wTmIpzAM4zHFvOY3Zms+5n76qeebua7lCEDpHw2O/wlP8jLRTMyOdQD2qxiovIgBy6OAajxQtp4SvxTepXXfqjwk8on27sFRoEOaiwjaQ7r4dj3zgFHGbi1u+I39wA3Olek3d7pd+Lq2MPX8XgD7EoD7XxgVMG2neD3NoN+gBGuXgV7/aHfk391V6UzuNprp8LNPRxk/0Ifbekr833mgKfEPKwDyifZuCSJSnyUQQbvPotuzXwR89O1k261fze/LOXQWOnm7NWjlftcyN6X620w9vylx4ZtLmGoeySQ8lEjZSXOMBLxpdDpRqJWFSV9F8/4A/Qq0cVHPKfF64YcclyIOZdpp3lx36jpSlMDOSCCC9s5IK4Z1EgCws134QF+7iOPkRDyyWxegQUsDN2sCo1beYrYRLz/dKZwHYq3RA44AgFwOOUp4d1PiGbBsX0HeyOA0xiJnHMeA6hifo+wp8d7+8xUefBvAbkOOTkZcD7WWa8iV1u7EcATt3ak0+zkvAmuScHZZrodz/RkO2a5lw+419bwO970/4saH9ilIKgbb0xqj28gxlMEa9rdFbko8Nvl28lh6LFo3jdRk7N4y429t736KKDQlHsO+HkeTybZEGu9tWwIRtLctl3g3SwKAir6TbFPIO/l9Cce+PliW3VpWkXUPoF1farblXkwh4wEuTAluNqMPvfv+x1/RLQG73Nu7x34WezeDrWP3TsSkdcB7LAF7Bw++AHg/rgACb64RYKQoge1LIIL29mUTnyCBbCDh+qXc+jIHqqRIYJ099fxpsxXXM3nx24nduiwB6z0Fh1Sd0hyYRlKTAO5lXEOTr0bzxutx+FT/u+eU+HZuXsehKfG4pTiZZ8xP+h0pSiBbAhG0s6URrzMSAKAzwMG1ZjB+geM0Duf9gN26e+p5Czbqlbcz9fwzid26AuRZT1BW59sdTSHk6oUpAe+UQBpxtddwQiYzrmIJ2NfTZ5EXJJQ9IxRDEnfontj3AW/teZkxRSlopCiBIIEI2kES8ewkAFhocAzccFPPBRxncHyRYwpHT6DpwH6rqeerP41WuRK79WwC4Nbn1rgOWqd7aw/+hxycvRv5tGPcH/EuTCb/D2+TVyATJyOp5niRZKbE/4ffmhL/ZwmN8nCNJL8VLlKUgPtqohiiBAQOQpBsu/Xx/JbmJ5MIlLjwgedco1X/E+36q0w9/z1gDa6kZnC7WuFc6PgvSMABMz+GIaOZfkq8HP3G03GZfbLZ6HlJwK2mxP+MBxqsfF4BBN5c7yl2pkQm8bQtCeiLirSHSyAbELjeB3EIrN+RiKXX1PPF2K1vMtv8lcRuLVMI3X9p2JFeQAIBvDUwm0yJV+ipNzAl/kQwfULyLrv1uIbROUg2c/NbHF8DsLVjvCKJU+ITSe2ppwjae2rJk29AoJBTmHoOkridY7QmaikP2TlGanMy9XwLy6PW/IoZjafxGHJLpm7iYjNHACQ96G8Kn2zQ6MNvZ9VJEte1KJzlc6jw4dAz3RP1jif89k/77b/rmYDPHWuZEo+pZOYlAPjRsIxGvrWL4HL4uBjgvln8JOUWp8T3W+EM7ojDFz+4uYzc5VUCVHqhGRjgZ+Tx+2R+X8wxhwPKcuHrZPGmtfcA2Pgdtz8BWE9PMFrjZv1J+jQDgOpaLLPGR6qUsw7c61xj0c4Zq0G6hbMOKN3mz73/p3jfvcP7qeFcy1yseJSO3uF9F4/iDEAfqkjghUd5I/LkpsRXuSzYqFMwmXzKbMJBPgUKBnaleYtR0f0cmhL/gH7wWPfjErASxh5E4Yvcg7K852aVSq7yzrZbH8Xvyzle5aSiqecprbeXTD3f9D8/9bzx5gQj54IU1QQNWqp7K0//xJqAUWcBNB4WqTGcBbQ0HOyva2kNcvIz4CmXjhRcr2WOGfwAjKXNKrCbgYmlQR4tej8cIRuZ90Ico3h3LD9C2upNyPyT/YIiyZWUsOJRXmkMw5T4iRSJpsSPnOMT8C6CSjyA941cfwnwrlIAyjXj6aPfkXZvCeiribQHSEBaGZXcDWRxXU6WL+b4UJJ1+Vsz9VyrN0FNlYD1T8w2Xejx0+16Ls1ammwAGi5zphCXkh1N1LLQgE3yPtHiUlw6TFMwmhIrfh0HWuiwWRw4s5TgC10EuBahOWsn9UK0Z7U3WnVP7zjNGlDUynwyOXRxZn6LdZKPTjxfOji3A8htgPkW0mxbwfFv7v2zO22xpkN7U7pGRFo9DYhbPlaAG/LAZZ8pxDGR6MhHe5VPc/qtuAm+iTyrAYF6Tomv487XOK6iXLdQpuJS3SdJLdJuLAF9LZF2YwlICyN7Yeo5Kp0xTc/wOdMMEGDRb1yrMAAWALbqDyyZ+iEPWsVlvNnAg3xOPQ8AhdKoCSjyqkjXkl69T5M7DqCHoWmOeCnaZgXWkNlMTBFIA+qy+RagRfcHdWEikTloC6Csbc9aAM+mxXjIPIRs7uAZiYp9SatAruviHZm5rdDyBeBEp1mVaXoGHfAxjIZq1hdwuHw195HZ1vbuZ3jjIsD6l5yldRMomkwki92VImjvpiVL5XXwkqVdv4esXsKxl89ylt1amuja+/zU87Z/oLUCprL55m3quVgRqIF2boElNGEtx9qJ1iq9UCBYegrK9uEc+wDUcwErtE5pztsiAVfGxqG4s0nPAoVn27oXwugZ4ZxFKIQPz3TmeQcAqglETcvAZ+z6jfcA7Hd2815IgyI7u9PA1cgpnuw0+bnTpEaNxqprOenz8hjGh2efajZuPx/T1kvA3sUDTYn/nwIIvEPZ+xfi/91FAtv6SneXvO2R+dgGWGsWx5c5jvECEVhnTT3f/BSmkO8BRtcC1oQoKKPGr+RCSJErBfBKTAvaoLezyYNdcTkAjUY/7jAACaAuneq16OwkM+CcfVPXxJuY3Xs/6ftvQNal1yuGxGLU464mFTVWsVP84zjP/AVN/Ec+T05+AK1Ucre3Jec+A3iQncxGk4mSBkMN3OSr0LxPQl7S9KGeU+JVaN/l0JR4WhllKdq7JYfdifRlRNpNJJBdQbnWKNwXOT7OIV22567nLTWA9W3sz3guYKkQ8xKgAZD6DDS8mnmXSLXetJLurHY4ZkWg2hi6+hNe4zXGYWj0Ljwn0VYg/ULgDMjKNt3RypmGoJPeQhfX7hBo+ih9vPxXHrWHcAEacQEafCEmlmAH355Gr5d789RbI5ftvXEFi64+whjA79DIf6G3iJs0NI3d7SQPfxm5uKc7/y8lbR5zTDuyLJrJdPhvcxzr86DYek6Jx7bjfO2/C3hrU2Uy7k1kChppaEsggvbQLj/HPZVSkET9dBVU+t6ZHAJsbAzAl9fGVHEBObrvq+7Cbv0Rrun2F8/hJuDn1goJ2p0C7iyFd0vgBLCWnVppieTKNvFEwPplaIhqS7JIEwEztC2Q5rls7bIza7CweTVnGhwNGrbLdMB953UBmAWgDudMvMlF+NolrYL5APdcQI+GQ1p/CXIYDhiKPzUmwxFdEVpub+rBLw+zNXHtKF/3HA3hPYD4efCG4uu07zIvD6vTCxzbY5BHL0iSz2xeRwbtNFIj3oLWTTqTD+UtF68ipsXKuAjKVHIB38WfFC3fibiJLoISxhAmlXSkISoBKqHKL9uFj1rsNtI92GcJU4hTdaUeUpfXPYzd+itgNHW4eAR1G2ByLnw+dN/+O7Dg1WHEJ7CuAqx8qjb+6wDKsSxNuhcgyfNA2cCXDXp6Ls1V9uNmQLjhec6PMSiIGaL9H948oOREOmcOxY3XRYo8OZQMgfjZg9RAwJwG+TQpSHwI5rIPhVfzVnI8wM1A6KgDOAD4EbP4rZ6BED+hHlo4aWabbJpXAd4PMN3/Bvi/28dZWEZaNGZ9Bm/lS8ySX7kzdi13xWpjP4+H/SmYmxbwDNra3q1BSoH3Ivc42rslhiFL2/u6h2yG9hTGpTVRCQWP0qA0OnUZx4n6zZ2edut6tL/qH4JTVySaXzlB0FbdhJIABO7FnfgX3sPM4Gb3VQGsvF6ykMWQ0P6mvI4BRbTCQD2AWu/qSEizLRuWgmUa5AOcW2/xwK8gwkh3xtSgLb7U+Di+Bb5KUCJo4xAg6xCovRCFSIXM8O78uYuSa3oJSsz5hKMVhyi5ayUHAdzHYN45nGNfgHwuQIypJdD2ALy9HvD+Fz2bG2mAbs+SPw1Tn10olQflcxzsjkcEgLdoynfRvN/pewruhpsSrytllu6UXc2hKfG1SYMfp8QjkKFGKv1IQ0gCVDZVwDD1HFXZTT0/k7PUTRBNlTmZet66Hs3652h7egy5qecbuci1m+5iIxlAWRNX1FUvod2Y8kW22wKshzFwJtoekOlZ61oakacxIzwAUP+OONSThwTSBaOIWyCN1u0m1rT6swNoLjOAr7zmg0I1cLIjQoE4gJySSKW9C8grfXshIBePw98FZh7Hwk+vRMOdBywO56aIOJRvad3urMCQ7O8C71XXAt6/TMB7LmGqeahIcyBNzBGP7Wj38mOfeTlT4ikH8eSypB5XxmSygsByEfyRUky+pzglXsIYIhS+1iHC7p7LJpVLtZ+6lpl6/jF+X8Qxy0kleyBKttU1f2XqOd3mjmepyHSlBQxuZqCKXDW5L5S86wBVIAFgF6LtTbuG49huDc+BteInneyBu/YGD9Qb78FbBc2zfZkHwEKCpsr5B/i7LclkvpD2rPREfeXXv933/0l+HR8CcQE4DYoak87V3Vg74n3Y7N+OzR4A79272Aq8yZvcK1ddSjQPUza0uyk0/pzLhs/DNaJVTow28gOYTM7y4whOABRKmkY9lQHvB7ktF0GYIflo73ZSGgr/9FVGGsQSoDKpjLLt1qhQzhRyqGO7x9RzwG3jfzGFXIlP8e2u52+pOdTIaoLmAnxiQe+juckUEnZkmQJYzwCsSqXpQTKB9AYp3W+q8vbdjbehOP+JMNxzQD2Pi0beA8xNQD3YKchBzKs3MJYzee5c6QFct8deSo/jTWjhmFCCHX9bcmljALWGHsbaU7xoXS+ohgjUu+gLBd7UuFBGYUr8hEto1j8Eu2U+0q2nxP+YB5cA3ssVQODNNZp5pMEqAZV0pEEqgewKxLUQ7mIOVChHVCxp38lIXuMywJr6V/ulRHut4DHdZZkXHEr2FbT1ifCum+hR7U3IY89GizsV2+5Cx8i2wRow24yWvxZgqv1CN6gVlPMOpgI3kzBX3nzyu/Y/ReC2F6PHIVt4Z70Tl42iIzRVGjjad5Fs8dC2wFvlVvU9ZPUNGlkVJw2gG29I5O7f3In/4b0JxEWjInu3bk37MQ3sWzFjwafI98z0RBlQq/l1Dk2Jb+Zb0z0ufa+O60iDSAIqtEiDTAJUGulswW6tGn8Ox2c51DfvNfW8Fo3tt1kaWzkVUjZrACQnsOZ1RySvyR3tlYDKAczK+zZg9GruFZGOwJxAag+cGUTXtCW1j7Obzc8wnQNEel4oABnNs438QLPebQkzh5uaXwJ4V3GQ0RFvAzBPR/t+FXKQeQXqDd4aL1z7d9YpB+Q71yVjDysIiCxzJTclnsaxYwOATbnNupDyOwo+ZZJx5UciGZPJcySnjRd+rmSlNHCKLoISxiAiValIg0QCVBIHcVQaV1v5fRKsXcKxwLMorxBGyQSQco1TRa/hcRu20aKp1D2w3mnXPnTf/4sNVehZpLPSY8fkK8zmfrin3ToJlgFsgXXNj7BXf4t3iaJoNv8AJLf9mLIUXuBytyblczzZRavVTEZE4LYZm/lJXCAP4/52GryW1WbLv0ujdykNJA2ldhhzk3NylRvpubKs9GU55gwa39Mw4dAIi7Z2Efwrd8/jO/yPexzBW2IYNKSvIdIulsA2wPpQWLqc42jPWi8XvtonMIV8h07tDwFGQhSUUfGquRA65IMA/1QZFXwp8e9tVnYDYHO4j7i3lqi7DUvwUrkFsLkkMc3M5aZMIOs5Azx7JAWgxUQhf/gA3mM/5QFz7D5eKlvJE7NSDXb/FW/hPYJoApB833Nq8AIvdNQ0szJMiZ/0dXhBuy+dGXhh44sCFRgfgPuYvs/5csBbdjZp3nEJWAliF5NKM9IulEB2ReB6FqxcwPF/HJQN/WZp36kC2RgZq1sJWN/KYOPnE3CcR5A1PGjiCBVTAftC4X20Q2000IbWN56udMUnGH+kogfwVZUOphDNUlz5CybtoLWJigAYB9Z08XPmRxHuDpQtV8xEAkzJcMq1AOZ7MVlwb1uylW/9ks8wJHEnWncFQXgvZ0p4cVPih2PywgQjX/PpP+Z4I+mM9in0XAIWu4pTIK5RD1DfK7+ji2DOZdH3CFSKkXaBBPj4HRBTEbq4LoaFT3Ocz0G/mlqcPfVcEzRW3YEbn2yePHVTz5sJpfoUQIHLPlOozLMxh1T7NOb8GvvnCcQIm04bzDoLZGSaWXEeFf9f8DOdcMSRF9NMnzMxyF8MMsaMpQk97TTAJfRe5nwNAD/C895bzh2U++KrGZ6gHS8pQ740pH32LvFJ9PjvXAQ3wgvfUulxlDflOQWenKLt/Db52jL27sd4IHv3HxQH36z6eNHeLWEMMOlLijSAEuBjl8yzXfhO5PeXOIKBsdturQGqdQ+gzV6GxvVX6rq62mOoMQBrvilVgTkEba7oQLP5aPPj909SkFoYCNZb6Ck7uys8qdoWlMHPCi66QqB4flEJIMcUvZKuymS8gAHbslO81u0GB3keAFxyrbqNb+CDlP8kYu7g2PyiKbx4AH2GKlsGTbVLfNdyH/XY/0dD8jEcYvbyUWxt7/4tD74IeD+tAAJvaeA+cPw/EBJQyUUaIAlkf+Bcg46u2/lmn3wvu3Xds5hCrscD45sJOJZTQ1YStJ0jVDj/Zs7/U/MwhyylomIKWXChN4cE0AhnJbLmLwDI+6ng6+FpAfxI85M3SJ75UVq7NQV5YY7QRKX2JWDnkWbzrqGxTNruYDJxskUY6+4zW/oabxYr4B239GuIJxdhhTikEGB7Dz74k+Fl1rsS05ji7zElfgs3GFSxrwDYm9zTaO+WGAaEVGKR+lkCAHRmAIfrySRHP9RASLcJYc8lUzW9u/p2JqOc5bHQbfUlMwhd5byDI6qyJt+0LWOg8Qo07DMBhWHUzy7uF3Sf22rRrr8HT1hvirGFygXQafuhwsNapL5LIFXmtW46VjaLsp/zbi6QbaYc0Ig1jqAB6OcP4hlUMJPnNVzkuQzCcrrtxF20kCnx9AKmHUPfcIRLFp6YVak1bh1Ji7gY4L5Bv/Sd68RvPqBI/SUBlXikfpIAHzHIR3XzS6ZK1h/nuJBjBocqZXcF6GjymuwqwLqjCnCcTYA2wgDi/UKlcDaJJKoBiptx5/sAqcCiA4rwWXCuW8SAGO3LlnvhSdq16mmLD5vRBvuFwT0kUslaZooJiH8U5bGCCTmX0oB+CtAck5RHVgNav9jsuTdhTeZcyDfSL40nPDl7N7y0w9pIBkxnnw1fL+eH47f3lPh/8kAmk3s4R3u3hNCPpBKIlGcJANaSa7bd+g38pibaK11SvaeeayGhatyvmn8DMKKsyMboKqMqc38Q3XIp+e0b8Q75E54DxyWJkJ6SDN4hq3hWBUCAGd52XamHHP3FF1Hv0aSyr6BcAOTSE9gYDhOFloTNaNxJD0jLAjz7Nhr3R/sJuEMZq1eFfhFcBMdfAHh/hCle8OjIMQZTbnRDd27hkOa9VD+oB9HeLUHkmVQ6kfIoAQE25FCNa1RTN8iIquKIAZusqefyb67+Ed3ey/1nX0BlcF1emQxDxfEv5u//WKIifu34Mv9+77ngZ8aplpEsCK0lT5f+EA+RM8D26YTnd948VfKXk90vpqTMNcagtUMKFgLcjPvJp7s3cMv989l3UDSP9BNwS7rhG1QvgO8mLAE77UbMJifybcjRCeo5Jb6RO1dyfIN6QPcxUr4lEEE7jxINgM15HNF+lgNHW7cItLQRATmqFLQFDbfm14Dix91PKyrn6WauazlCRfGP8vuf7rZMGx2A8EK0+0ko/r3BoL0OuymNiNbCKJnP82reUSMymCl8xjvTA+jLOwMhg6T8w2xUfTkLAeaJr6As1KjyPJSZNop4+njs4U8B8DSubmC4H3l0PUD0jo619AgPw6x2EVPiX0va9No88TCjddNdcKbAnwPeykWkPEkgfLl5im7Pjgaw1qLy8rv+OZJ4VyINPmT5tCJqLU265m7A+ipslw/xeeMFkLep5y8m+5EEgAdtSisQmCQQoC5lDzhqGvWi08H13yX2a9W7wUThcw3gTK/A7eJSypmuvBvXFb96Hg79Du/prEMYQkOUVmPUzEEjljH56HmIn8tdQgkPGnNQr6eDhnT+vfSKXstveMsGbi049czh3AdI5f1hKAT9SugdbvGwSnoDJDTqo4zQfMzbu71Lt4SnJ3zzjk6lTvyAOpEZjE/ux1MfJRAE28fX42u9JBBqO/1JR9maB58yAFF3P3ghwOa5Bp6cOURh+xMspAmhZXcAygtIe1uA3VgJYJ9EGMaUiufBlwC7P3ki+h2iwIPOeLZopxa334MGaWmA0vVgML0H4bAolID/5f+HKMI9/e5xTOa3gJ+bis956gh3FEi0rUj9k/75n6TnTFKYJYpmMcnmaL6fu/xmvhkzFpmWfXkhgL5oP9hFKXCbNqgh6g+SPJCL5K7VGruWMxn3Bo4jGUd9aRCXAunrVotIgWmE1VEQZvIznvoqgQjafZXcC78n1U0kVRDS90pFHI5mvf+3mOH2YWzZnBtv9p93wVweV7mQ+f9H2urWtlHB5v3VL1jUW8OWbf3ZN1MJn8OAI16WdvOcf4Z2IMZEXhJfSnVevQRs8F1ok2HzAQVB6bOio1GwD+SYxoGmKY+LQoDd7byuAARUfuVm3CWtFU1UM0zbNnhPjbYHuLeIZz6oH3QlPae10ua69VNUnIEnLgeU0LI1oaaEcln2RvJFGWpXmuwy1Nrd82lsnz+UBhc5OEWA/OaNQt5HIAa+YTcwifzc2iXvZ9CUwcqtKfn287FU4daR78l3Imj3T+nrK6cnm6Ynm3I9WlX6ZHwS3eMlDC59HzPJe7FtXwCI/BewobK5urGGN0MlyYW5JA55I2jizNxf4m+ryp4meupTqPQOsN/Ab0C9cBbnqjylv7O8Z+cZ0HVLuQJYnYCDDkFAydEokq9Fu9yHMyBWCoAUM3xQiEJXUJzwvaPpAmqdgLF6P60AeUsNGuNiGlLKooWyaW/yxSDcL5jDv1Zksy6JPJvXHU0vl3DwonLTjvFLj4EfGprJr+IeLU0oy0mHoNv+1qzyRMJR5m6tknzxSTxhBqd2G3KrBJ7OKoH7+0wlfLhPS0lG6lcJRBHnUbyANBid4pS+i2iP5cC+bdi5fSICcSFBSmqdKpvIDUr+CgA/1f8uKqPCbeZah17UOztLyXsOsKlk065Dy6aSubh4Fip7A8+eBQQE2AVoS7tk7ZCQR/QHN7ED2XSu4oBdAebIswAHAGoM3f8RMwHp0dzUO70JOTn59r6/rd+8Hwql92MtedtKI6Gd4Ddj+6+/hUbvKeRDwEIaCbcO9Wp+iMHAe+9I+uu38k4DpbWx93mc2ZP0MEJZhrJdcg3f0ifzANxJ3tymzchEPZSSIxl8vKD3etyI3ZdHL5G2w6xa0nOoE1fw7Uf3vzx9Fl7aeYpsT4+GD3Mr0O7qShf85lcb7OWvHGVz55Y6EXEPJNclQBPA27n/3YQDyZc9WLmZkNWE0befVCC9sqOUKuPVSgDvi1Twi4gCUFR6Th0CgeQy9vQJNCv/A5AAw4xtnWADQiFPw+FtCukDhPJq0e2Rp9EbOQ5QOhigpjHJrFmUMCag6k0OMZxQez/Z9m8H8MgjgJ0Lxfu9kMe0U/zmJ5kNSjtc/3UfvCjwTOPiev8hL9tOKr93MRdphxzh4b6L2FRYWjXyCPnvaqNcP0uPAfAu6ku5hryQjno7muilW9NuZsDxLQD3OJ8d0kzz7UoRCVrJf1fVWXtHlx06h56S/3AjaHtp5fW/9IdI/SQB90GDzvfc22RlZSvslz9fb40NnVYgxKaSgeeknADp6PlUwsvwy30YZertaHfL/DON1Dtg2Qkm3ZrJlZgPqGQLziGtXoAtIFp0CsqiAHsO0dfsROS5BhUCiKjP6nKnMTtoFqAxGDjlO8jgGez+30ajeyvgDW/iXaCUOZCXGrreh0MWonF2a8wJmnqvXozyqv0Y2+m5dJKWdtYRCeRcHKjzmbi4n0mHNCX3YZO8W9t+X4GvJVzTa9E4m5Y1dXmY5cPxf2CIvBRMIykauOc+TP7We/5h1fEu97v558NiGbJQuQK8O0ShXHhfPbQuyayKhvNLLGVWaVb2QQ/Ykg/EwttO4gLstY1b7Lr/rbSX/225rWlExpDYidQ/ElBtjtTPEpgwAZCB3vWejXbimxvss+dOsEMPG2tFRbJ3+8qCUYXKwvWkQ9GOb8Y18AMsx4ppQOBQLGBAg3I2VYV/oSqBFphuUXJU3m/y7hh+U9ECSMnT4rnzqOx/oWJX8GwZAV8sThdbnv6RVmaKdBVAcDgeEZ8Cs1/jbdQhlQQc3E/x7ngMDzm3AcIOlLEzy1WxFa23naODoxPQ7sIe7iYFYcaQSSM1DLCTJwbyKJpDujMYGJ5OmhxaL3wYmqXWXXFpKR1knNHG+SlgHz2PAzPTjBMpn7tYxOkU0luJjInDeVXAy0DIUmuoF5SRvQcYfLzEbL+r+A3YiiQ35anil5Tzy+GNPLuNkyXDF/pu9P3NJQhlIoVhFCA9+9P0eF7movU9NMVQkAHrFrTqu5dusNOf22Cr20l3WKGVFCKnSP0qgQja/SpeH3lHh68sL9+/yH77xw6ONXb2WfV26mmTbOFeI1ygLr55D01caCPYWW8DwAG06p/RNafy6GFhObUG7XGbi0cpgCoeWlhbJYB9nwcZB9ihIvF8Mdps4w+pzAsIvph3kve46j8KvGETFj9qiIr2AhQu854QmZl1kpOXleMrA6DclsdHE+/VL4L//wHU/+EeDQ+Y7EhJZB/J7R7Zy44+XOudon0B7ldgijmEAeKDvNzk6RPSF3hnGhFeECiWn4zJ4FgGkgHH9aF8KggHj/3uMAEP6Ur4pgzrr2UxL+z9GrNQntS4iN+JgO30G2n4T6GBEl/LeNiblHnC6puR8iDNuvhg8ka5aNC6AAVARHwY/tw5iOSRmjr71jNr7ae1rVY6vMgOGl5ojzezqrB4iNSvEoig3a/i9ZGHD33z+rSVTUjZqHFFdtW3Wjiq7dprxtg73znRpkz1mlJXVwE2Qr58ff0CjgVooVNeD3j/AB/vb1FRiVM+sg4chFhUJldbVfm4374cIMSeOfVIH0eoxGJihRqAz1GJBxKwJYNieKO3EJb9nPZ9tFUapeGT9RA+AXInJOUB0Amk2ZnawWXTw5z/jGZ9p3+iLCuYBgYLaeAcSHZwljw4O4DVb+JzoJS84MxEvOjOmEXEl+SXxiTTzNH4YwbxdHtvgPudaJkAl/ZRHDbRh+N/BrxVPnJ108JOk9+AbJG5AFTeLNLq87Z0qhLtTcqX+KbR1azVNWdgSlrogTYjS4LMOQme7qeBuwk50ZvYyvtlDNGMR2SVPoGp30NZIN8uv9xycRU4b0hXKpRR1eYW+xFgfXFNA3ktsAUjim09YzQNYinSgEhAX3OkPEmg90Akv7WjesF5n6+yr36t1eZPK7AmFGXVhdHUIbkSP7ey0+bPKrQrrxlvr3/9BCsd4UFLmOBcBF39VAUFhNyGCF/BFHA3FUYVjsOtuqcMTMIkgP1W9vADbgbcBWa87CIizo3/JrFX8l4Z91bwDCb6lfRpKRPTOQG+2h1l7Nm4HqIRyn4vCgATePQ38dxYivZ6H4OyvwCoAWuRMNa53ineFt7lcLMZsxsubu0wJfy5Rg+Q1aQUN8FGgLvM479EVPJS7Lof9Q3nGBq7QI5nfoTykS199V00rm/1IVyvaHkI3Y9n9dTguasWmzt8jyqHJzEl2VPuGuB+Cr4L1fBs5pC8kka0C/7Uto0/j17PyZRLkr+kXLrQvgskJmhza7v9bvF6+8iSTe7TmYcppJF0NpMMqdh0Ai5r6bA/HjDF3rT3VKXezqskFL1HJL98kvS2SAMpAdUlvubG9b5O7VtWZBtXpu2EEzfY+0+qt0+dNcle8YoxLky3vRv0kHY49TVof4CIVt9bgxal7agyW48RKXFbxWUesFXxBEiquM2r8O99FxWX6zSVu98BmyQcaFTAI0CiWl0B+E472ucjAJ6COR7FO+ix6XE03d/Qo7jc50VAXVzGvzZ+o9ltd+VDZXxnKbyjc6s/ZCJwQsQsINu3JvWk/0djyUF52bhL6CGgiY7FnKJCDPmQrOUnPvMtPCO/y76cmKDKCVPDi/Dfb0RjqMZbtPRCgPt6yjmYNeBLDeQsGr8VlH8J/Dg7/zpYWk47dSLlci49hUO5350f2a0lBgF2O1r0/VWb7EvPrrf7mtpsOqaQYsKu5D6P3cEp0gBKQNUp0i6SgOr8puq0lVDHDphXZLf+tMMOOWSVXXRBtS1f1uJwQdggjcdhicBBGvbc9/JCNXZLwEH2YWnYHaDKjFsBjX0ISzi96IAFDXDp11CwqqiFdOcNrbffCbDTYKMGtEZ/Bl7hcfobuEfD43iDAWGlM4Wg+akX8NRZfuBMgK2JRmqM3DR/+Hb+44C2e6k/mRdTIkBcMyHTy7kuhRfyUoTsNl+EO91+eN7QMGrND8k3A1u8q7xJ093vOzSw13lgdN4bmEwcKXw/kAYmC+fB0y2A8+0+AWXF8cdZjcnoU/gGyI8GTtP0yub8inL5CYB9mAJyz9utweLMp/P0+kb7zD+W2ev+XWP3tdMjLC22ep6vI2w/5cTzHv+/oAQiaL+gePr5YVJBOragyFWmrWJSyvavKLJLL2+2inkr7KYb19qmje2Ji6DAW8XFSwIHrbO813n4YD9B7/h9/H4HGtXbPcMOrBPeVzBQVn81oLOA96iw/VbdkmrsJsg00ZjQqMwCFPajwRgB6InnDOgSVjzKXv00eZDZpular1VrES0HmAC922We/O4SCukKwMmLgLFougfw2gvMnpzHAOCPyCe9HTU+Cu7kTj6l6WpgcN49AKXsYZglZCbygfohN8hSJp0S5Lz6ZO9X7nhJvhV5xcw9x3ewJn3L7MD/Yg7hWykaxXsqF/+IWNCuU7jtbbGr/1Nt+9+33K7d1OLs1hO5vwJE96HdK/HfLpJA0S5KNyabLQHqlupYC3W7uTZte81k8Id7p3y01g7/boNdfNkEO+o146xkmCYzqGrJR1YVkkvtKTj6e4AHQOm6xcl9RahdZ1YB6HJv69f1RMQT6cplTBq9fi78F2Z2wFjkzAi6CQng5DetLdXWfcLfKy7n3Ei4Sv87818Z3NUUeACu3NKn5MNNWsGcs+pk7O4/Nyu7zJutMqzyjl6TOWgYJp/FLwMVV4OIarxoAJyAQryZl3K4CHFh50e8tvxCtGh6XUWydyfPxu5ldtAKLD7wIBJY841ku/A1o03fvWyjnYYL39q2TisbVoRhJ+3AWqWnqENKiiLSrpGAyiHSIJKAsLZ+LTomCpq07qf+k7Y3vHGdnXnGCnvs0QYH7gojHHSdVFW+otH04qeRC1UpHiqAlmCtxNTgalob9wnXL1WOtBRvqow0q2ggjofx5R6wM9p1wpd42/Cw2RMnYLsGsIsAEJlCZIZwCzMR1VAgZ6fGJCUbcfudmEsA5WU3IeItXvahkVL+NdV83+doUDl3AtiZyVKSW55JqwJqALTlt+ze/isfuUTviPQCYFNefjZjwi7PH6nZbB/921J72+NrrIHf5diu15KPTbzfD5x6luL/PkkggnafxNb/L6m+b6hK2zhM2LJ3X39jm73kpTX29a+utJXVreCyFqASXAb9R7VTN5JaKjtx3S2eUU1HloeBo3xXQdXqcsCrElA4E8AmzZFl8EEGnNlAz+GxAyhY8h1MIYcDXg94U4jMNTI7DClK5KtGUI2NViFUT2H1Kdjlyb8m+rh8h/xz1vKp+95BuKMS4Ma05RrQfJVFEo9bmZD0RGs/hGme1l8fiUtLNz3v6q3prr6hys3NdvFDlXbIQ9V2e3O7M4UU82yVunqRBqUEVOMjDUYJUGdU39rp8crePW9qyuRp8rnzGm32nBV2263rrL6efYEJE0wmLhuuknI1+QjsyQD3sPcmA2LSAufwIM+VMQUgyTd83Pmk93W0z/EkAXBkA7YWpnoSEFn3KZ7P5xkt0VamkMFYCC/EU5DjJvJC/uX73vRD8smAa90zPfMveWgMYl+ZLA4GuGmsMjbuF0rjxZ4JekXY0FUOsp9rgowGqPdfwe0p/nFGV/YrTuoT2bylw370xCorv3eZfWl1o80rLbKphfhhA9bqlynmkMMkkngaJBKIoD1ICmK7bFBzVMmaqY+1uAbuPbvQTdB5/wc22dvfstxqarYkwN0rBrmgaffsA240K/s9D/ehQlORtWqb1kR2pKrZF0reS5UTJ4A8/kKzvTkKSxPADs85r7+fwUYG7bRsaDHAkl5CggzeOdpdYIF8aqKLzD3pp9hJZj+fb9eAqgCpZgLu0pnICZfGgnHexp3ZHyARx06fFPdc4qZll6dO6SkU86N+gNqZQpJySOINVpsn1tbbMX9ZbCc/t9GmM0FmTkmhc+GrIzo4jWC90+UwsC+ojCINIQnU0fvu6qBullHRVqStuLhnxVRWVDmdlURAISCVy9dB9+GGhoeG1ubQHn8C3MxiQlvHsX2RKKzAoizRsL8ASKBly0NB6TmgSuJb8QvWxjiSZ2jfmr3oplLvTFokNSQIeUg31SBjwUTyioa7mHyv+XNyX/JKgHtUGYO0NGSIyv8LZiv93hFK5Oc0dcYDpFkXHmJWcScN9HU0oGjyvvAd+LrLJFos2e6qlkkw/21qt4OZzRhd+HZE5oMrTATtwVUeL84NdXbYSJbBruyy93xguE2aVOLecVjJVXOzN5not/PvVkUVmA6bjAvaGZgwFrE29bneZKKttdStdtMNFU0CCLrcJum5AGguwF8J5p8FYAPaWwE2YZb+AJ/hd2M2KOMdWhk3rZvLBDh0tXsReRa5tWHQfIvLkMEb/SxJFYbQMwC3Ng+ouA/A3cy96e61HZO9go4laBkipfXuZDxg+g248P2JM2lllYNM0iot/x1woeukfPeZPMomYQ5Z1qm1+iINNQlE0B5qJUZlLBmmqpa2/fYfjg834EwNDRrVddestVtvWWctzV3ev5tqmRmsVKAxewHcX0HbewBgebPvVmtD3IxXwwsJREiAeUVufcPfTlf/YvA+2yTi+bLF16BlnkpDgf3a+YbLH2FPIvKrdT5KynC/Ow5b/n0ePV1PhAJTOWhtmBk/RP6VPFPDyb1tkmQqwtylcF0AfXsl2P1F7NZLzMpPIZ0JvC7VXbo08UPyt24FlG9+cpU9VF3r7gVNexyeIe8ZXWL1PB9J9CEFFyj+G/QS8CU86NmMDGZLoLPTV/D58xmASkgaVQNrdT/wQIt94IMb7ZSPVNo/H64D0BO8wGMg4yKoiq3tqg68jZlxmDDShQABXXst6pRCI3e0rao8GtDAvCKb7F7fAkfQ+nqYROBLgO0GHBmYc/brjiS+Pe3UTP43YOdGk17ymmTCC3J38kpkUfYhGtGz0JqXIfegcfeWEzJ1A8jtvoEdRu9FPvD7fomezjzi07cAHKPF69Ip9dz518rN9n9/W2IffnytPbqu0UXqvPsJpOVTDxxPY8vqkyNco947zfh7MEsggvZgLp1t8KZFphpRnEZj0pg5a1iPEOvXt9nv/tBhLz+g2G7/RYcddvhqu+AL1bZ0Sc8p8b6eg+by7579TsAbk8mkKwBuvBo611PzK4gXG4wjgbcOPpUUIN3J5fx7u2c5qssfdDWZRIKHiFv2lUd7NAkst3jr0/P0TJprEBXycjiL/LXO97zPOtH6LeZk6gry1iXjAOrZaADZypnV+FvK6qZk0hLhEpTuNoXIha/FLnqo0g59uNpuwW5taNSP1rfaFplC9AoxiRaM9Q2+m6vlb8X/Q0QCqnGRhooEqHTFYOnKxrS95+QiGzumqAfn1dUABNWyBawon5iy/Zic8+WvNtv8BSvs+u+vsQ3r/ZR4Vd4eU+K1xOhCwGPfp8DqT3iNLk0kqTLiI7Cqeqqc+4D6nF8y++8l3BLoCIASGKi6HZPIaXTVZRKh2x4pkQAugdrOrQuZLD6XRg8NXAXgEBQZyhVw7l8BZuzg6uk4WKUxlbw1YKyBY+3oc+BDLAtwAg3ACC97QvK2I5lCalmFz7nwMUHm0sSFbwYrPg3j2b8b2622BQDPolkCbVz82kP5ZT2Ll4NbAhG0B3f59OQOfBzuFOAu23ufYTa81O/Rp0kSoiWLW925s4N5FYwxbmRyzkKmxC+YUWAfP22zHXt0ld31p022pVX2bgXtZe8etx920m+i/QEiRa/19lbDFFKwD+CxFM+ELwAcJ7o0MoNqSnvt32hJTgKwKwCU5f55/J9IAPloBmUhjVnjbX69Ej1RW+d6KZynIevx5yPjZciaMtAAsVbhG62G9Fl6NmdS8GjdWXZrYa3AWqvw3bN8o51w7xLnwjejqMBm48JXw33NZpxNmKe2dNo6VujLpskjSuwQlldVuKDfZz+P14NXAhG0B2/ZbJOzArQjUXmFqhr1mIop3JTt+pmnVDFT1tnOzeR+A8paE6bV/cqLbPlTaTvuTevs9NOq7L//aXDv613FkbF3q8uuXUsO+A2ugrcQMZpiG8ChnWYqPsk72GcUedC06xczhftougDYwp2HiOwnkbolgKwoE9f7UC9E0/fXozU7wVNoTtOlGs79uH9ly9PI8jjsF/fRgH6NAce9kzDebg3Gulf1+tPrGuys+5bZMazCdz/bfc3HI0S+1utdnD66LsIpjeo6NPksGlFcaIeN5BsiwhEKE2nISCCC9pApKs9oV7J12cyZgGsW1dd32OLF6gKnrE1WkixSHd6IT/doet2aEn/Tj9vt5a+oscsvXWkrVnRPifdLwBJYgFyC/brs/XTLqwCOcwCV67O0PSKXliiXtcUAub4ioYhblS8r4XiZSACZiuRRUsS56mxM3bSkkmECqjZyLo3kzxIXvp9jEjmSgDSQrnHUJtA+aFiF79tahe8flXZdrV+FbwLy770Kn6JW+41KbpUNXtP2g5EUL4ORc0cB2gxqD4eJhEMCRxrsEoigPdhLqBd/HU6RTdmkyVQ4KChVDYD2HX/qtIopKeuQUqUaG0gVnt/tWE/clHjCyN79xQubbO7cFfaTm9fZ5tqOZAnY7F3iAe8Rc1DTvwqIvMrH5rr0SeTLAXLtLFNQ4QEppBfP25EAZo+Ccnou/2KVw9u6w7gGj5+z30Fv5hSAfZQHa25lu/BpFb7fLFpr+9yzxM6q3OxW4ZvBjEaBtYpclTkbfHXdqTuA9mLMI5SmV/CTULMF2rzL40hDSAIRtIdKYVGxClGuG9hncr/5BTaefSZFob5tZN3tLv5GoE1rxmSP2utC+nvCh2YsHpuwd+81q8DmAeAf+vAme8eJVXbvPbXWjmome7fWM/GAoaqvzyR8KgksrPojLQADayUHEXhZ1nMudwkFSbxY4jsa7sXi6ePz9HIvs7WfpvvzCJHAT2h5U4npCclL9mxXl4Csd+E7mUHGtz+x1jooRK3Ct4bnYRW+pFS2Yipo2lUsBtXIeiPZNIVNDZRAz7vZIeL1YJSAr/mDkbPI01YSKGLAfyUq1RteWegGIV2ABIPWrmt3P9mVkvP2qnBWlASrXwMU8wVoCdgH/tFprztmrX3i9Ho77fSJtv8BaHuKSSvCJWn4t5P422t9i9HOetFFZQTEVOL2INzB9H1kOf4PaelMa+W23RLwSafUIdIzHWp0MBE4PoN9N7zPo36lJB2576XhoQ2ZlRzMdcKjHmdIPZ2g/aZsOS58Nz291i5dhZaOHXp+spGuVuFTjl6spGUUGYYqvYT1sZs4xrBGdqCJAm0iUXqRho4Euktw6PC8x3Ja5Nyy0zZ7bpGVlHjNNwDqujUetOU54jBqB+thF+aWDZVpmz4uZaMnFtm1393CUWNXXTHa3nPSRJsxo6cvuBc+KDP3g7j+HU43/yaw+nKPiYXloEgNQQQVCVD5F/rp/ySSKSVN3BM1YNoFsIV8ByDM/q17ElvBdP7x6ad5x9nh+4vXEO84+ByDd0iVF8v0H2G/PgHg5r5jWOG6Kbjw/fb59XaKNtIlD/MAWG2kK1OImqUQc/db277SVzGNwE+1dVlTuz6OYRkRjR4OaGPblja+o/FtO5V4dyAlEEF7IKWdS1pUrCLqmGrw+PFFVlSE+cIBkq/wq9d4tE5TqTO1ckfSU4UFyNqaAO+GNDvGp6yYafJn/78Gd/zl7il2zOvHu7RCA+Gj5UXNyNv3Ul58M+B9BXaXXzlt0E2Jdzu07AgDOxuG/IZlTbX+hpRVodhwGpERB3KeDQ+AuWvhyFiaVqkD3+g2uhUtlfD4ENd3exnpvYIyrgXeAH7eoCtAIDbj1EwMy8vgk57J+IuxW3+Y9bVJU6QC7ClUd/vBFbX2mSfX2L+bO2zG8EKy172Rrtoc3tphIvdWojT4Lupw/RP5LwY2cA08EBfBRQxGamUEfUE7E7eLLP4bcAlE0B5wkfc9wUKAWjR5stBGdZ4uMl3fTuriqhpVOfDB10t3vVP/EvyQe6DolQcW2iNPdNjzz7cC2j3xJTQWzudAgDDpUADpxyyO9AEY+QwjnpUAJ2AVdv7OGQyVbzE41aNK+yqPPNo0eMIxeLfsD1hPBrzRul+QQPh2tPLmlRj1sSdv+ikO7QC4aoED7xVc5AO2xOscoiI+LZk68n2ANbxqqVxR4hGSluwSubvb7qHZbyprHWAfNKLIlgCoGkyUBPpCieR4NW31TMDJphIGLxYwkPlER4eNghf/BWWHiNeDUQIRtAdjqWyHJw+WKLijPWiHYG10fTdtApCo2m4QMjzo65ma3rDZv1xWhrboSGDmtXthjagL+7kuSRXAZNaPJt5MOszv/7jhLBfGisrBi41c56LJkl8taNWx3MepKffT3uI1fTd45287BAxCCreyz+pSaDf7sfv6Qxshb/gnjQ0zDlv+yLMphFarJ36VM+V5RysH6PYAAEAASURBVCkJ7xoW+NXU82I0/7LLvd97aFDEH3xk7NZ6LSHXCCPcgyfS+KxtsnrE2tc2OMSps4uDZGXTzqZCGvypaNrS+IuSBiT7ebwenBKgxCINFQmEcatx43sWm2Y41jrQpoLmQ12igsvKIho7rmcDUbeZ6dLsEr92bZvzMlFd77EErGbuLcAzYt9nANWz0TSXAwoAdqqc2ALfWUjlUtnWvyRMClOHBhkVzxj8xfd73k+5H7OQOOFNQtGh2UXiWcC8vUOA6cIpLNcC8OlvwBcdjXv27QhvHc8B7MyKhzvBpxFXqoyGZS3x0BOYeh3x3oPt+s2+B5AUXtCZZbduaOuwu5dusEZc+bJpimzNUD7WBVEOyC28pWxTAtohVwJtTbKR3HqWsl6INFglEGrRYOUv8pUlAeGMqIQubTZt2dJl69Z02WTpvPkAbUWeJDaitGd1bt2StpM/utmOPqLK/vj7jdbSsp0lYMfuA8B+HQD/O+AIMAp0tQhVZn0NJbI9EqyQWYFnJ/Ya2YPL7yS+rwDcCzxv4s/xSFiBtPwUnbbI/UYZ6AHfdetxS+T9emZ/Cqz13IUjbHhfYCq/6Dnv8VPGSwDZjmrCzvU8OI17W3xmoI+w5cRXRx4r4e/z8PkcI4enM+ZHg+PAuqcLHxYPe5jlUj9471I79rE11toLtJ1XB9ErXD4oiKnDO/kTpTNsWRGgPT7RtNVM5Cm5fLAc43gBCUTzyAsIZ7A9UvdZFDxHAn+dAFIDW5CUlIbByfCk72evGOJRMqYnaHd0dNlcfLubNpm95YT19sH319snPzWRGZZjMpgpUEgpAmnCU47C3v0STBB/4jgJQETrLgaMNR1ES5c6UMyGC4Ehv2UT7lgB8L0R4L8aZRuwFjnGEsAUCIsaGplKX8U8frTw55ebVaLpbsC+09aGCgkP49GCy2aw/ncFO/hgGlk4Dxv4cP+uS5p/kq2mjB9wC5sPXwLQfxM+y7hfSTil4wJyDsRvNSqa5agGqfQEs4pzGXDAvq8eheLjNb9karcL3/Mbm+z6Z9baFWtoWOQBxDhFSwLaIYWx+GBrxksXaW4r5cDBjp5DvM3ZrQD8ac2a4Q60xXE+UtpRjmK4XCQQQTsX6Q3wux5IwTG3CYLHBbGgaevPLmVdoelAIUppPihU9CJcwkRJe8HmCmmrWscEn/KUHYAXy09ubedYZRdfWG8f/sgkKyv3YOjt3QIdYpIZYs57sXcfgaP5rQAq2qiiLawgYswJGbc7l1I3YI84lX3V0K57bBYMuABojmrWmN33kNkf/27202e5xf190ea1VvQwdEdp1SxJatVo3U/VmF11LwOP/P6/l5md9BazI14Jb4STLUhhJWCtEb7P5WaLuF9HT6F4DvdX+LhdooR1a44Pw25dDeiiTc+5FTPLsV5jVxjXYHXbrQWO65mR+KvnWPdlOY0JbGqdEFW+Ra0dVofZQs1YoJElPGGNGTo1OUMpUUA+oqZg8woJ6RxkmX0vXg9qCUTQHtTF05M5D9opK2V1v2zqcOuRMJjEfpEB2LOf7+y1FFjvhZJCUU0AMolEg56OuL1+edoqJsPP6CK7+EtN7rjphnH21hMn2IQJgB4k8C5IARpCfS1DuvBzaKPHAaTXoCFfD9ARqGBuAowCF+BLGvZIzAv7ApphSrdMIIpDIFOHtv6HPwPCvzB7FBA8corZm8uUnAdpgVMAKGVG8hoFyM4Z78M8VWV29PlmZ7/O7MwPm5XP9XE7DZn8adBw74tYkQmTR9P34QFPGOd/jhklRVrOhY+oJl/J4OtJxE9rKUrAWk0VqcIqWjQ9E63Cd86i9bYIl7vZrKyn5/K3niveYLUZ27ZI74ik/R5GY/kwmvEYbsrng2B9pvBuS0Ym3RG68iVASLvPicQXB0wCPWv/gCUbE8pFAsKvbAo72ThlMdTQ7AB5vNbWZoIQ4Y34aAEztQSspsTPn1aAvbvWTnhTlf31L7VYJ/wSsD2mxAt4xx/INExAuwLgLXwVXYUq4kRjTS0AENFe3VZmaNgBsAOkKNFHnzT7KMD/QcB0KiD6ljLC00DInU2HTA3SrpVOOMSz7ocwYwDlt2IKufcJs9eeafaX+0hbGZKg+Cfw1brVCy+Gh/k0ADWeN03icS58vKO1xxec7QHbtZRh9xjJxkVkj9TUsXvMUnvLo6ttESxUYPbYwHkDfKkIO12wtDX28uqQJ8d0uXcSrlAs9Td5dvs7lRh/niTQq/rnKdYYTb9KQFiUTd7W7YE0+36/X4sPDmGUpsRrTRNNif/fP9P2+jestU+escIef6zR4yFhhJ3SMh0oFpQknht/ZK/EH/GQQcP2xR44F6LBapVBB4aET0DQfnOH2Us/hYrPwOJbK9DIAdcW7NZBg9zRDAvUm1pJdxzgi+b8hvPMbvuVf9ullfA4fJpZ+S2kwyPxVnQ0do17yORVZlp73BWEBCBTiGddgF25udkufqjSDnlohd3a2GYLmHpOSm7t6mwWecVRE8uqZlOK3sSwxCyVT+tFSK9HWtk/4vWQkEA0jwyJYurJZMCwnnfz/GtbNZwkvBaZDHiCbdkkDNOU+Eng7dhJRfaDG9o4Vto3vjbaTnrfpMz2aD1MJprKXf5hvxTp8ms4n4hppCwBbHSKkMbNPzP78LcAa7T0LWjUWtQ/PMtmYkevJUSZJXQ+gTjfT0Mhm9AH3+3vhcgnHWJW+01sHWj1c3gm+7woMYUEf2uZQjaxO8zvNPV82SYaEk09L3JTz6tAdGnMYndrsTI5Sp4tWVRIXKMF2gTOj6btBVWqvPaizp1t8Hq9H38OvAQiaA+8zPueoqtzzJBL1tQOEWlWpCDBebVxtTUwhJA7dhb4ai9KkTeH+Gv91/R5kdYs2QqFeE8mk/Zmb++eNxWNEeA653MN9vnPNdktt46z4988wcYk26TJv9vbu4lrZLl3EVQEIp2dJkt6P/01gH212YkH4c6Hhuye+1PO/5WGtO4TAe4P0ShMnGB2/DE+7QBy885AIPQMRAlYewOHt1u3obn/vWqTXfDsentkJ6aeh3JKZ3t1kISSDWDtpe1S7tM/ve/iILGRYXwiJMwzt+yBzjl/NX1iL77UBwkkNaQPb8ZXBlwCAc9aWrJqHVx40PZ44mto7qz5bjkNRC9NrHSE/2TawLkA7FulBnvitXkjSurKtO09p8hmT0jZSe/fZO97T5Xd/4/NpsHTYIN3JhOBhpvdmMCUwFToJe+Q96EFn7B/N2BvlWAebgi434TJ491X4PK3xKftGg3idoAtmWfbrQnCncfW1NuZ9y2zY/+zyh7BXCPtOuwek+TkRZnbCjBJSqmJwtn/6tv/wEcGtF00/m6XGgwufRn0Lf741sBKIIL2wMo7p9TCANcW+YJlUTFeI6p5HbIY5KlEg5LZ3CyVmniTml9CWmX4aWuBqR1Ki/fqatJuY4b92TXnjrs67cij1tg5n11hzz7bRLx+6deAjy6xANg1q83ORcN+w0Jvu3YP++mfRKquyj6jza69GRPMlu5MuyTpyXh8czxX17fY1/5VZS95oMqur2t1S6Zq95hqAvU0drw4v6FcMyGRWSLuzDnzrA8XIa7CxE7uIJqbnci5TuMC+nYibPdBsrvmlTxV8V3D/J6WagDOdlfRunNfQs99P+FaLdUv9Ku7H/ftytX0tDU1edAOkWhiz/x9CmwDjhRai/tFSWAogMB8vGF52srGp9xg5beubrV9911p13xntZsSvxVwKeLf3MluxbjdleAd0suE8KLp9iWAvDim4xb4nYeZrLPCx5DVmshuXc9GArc9tdrm3LvMPl9d7zxCpuOiJ7Bu4Q1VqJ5N6vYZCWCayoBpd5Jhl/SdbQB6pyZeXK+Ji3Gs6icK/HXAc72+JRjRWGukoSGBCNpDo5wcl0GzbW3uWZULqPSjRxdYaz417cRtoaG+J2hrB/jpswsAKAbXwNIdVgVBCvG/BcePDbgILphegNmkgNmU9bbvtEr7812bMs4YTq2Xh8d6BvRm4Xqn6dcB4fqzvJSG1GktE9Ca2M6T9AR0D7Fk6tvY9fz9z26wychnLhsKaDOCWuWN5wqz85Rmb4OemZNJqj4xW+SjrQpQPVqTdrJI4xVNcoUkLz2/qKxA8XLQSSCC9qArku0zJBuwqK7OV7GgeQ8fVmBTp6dYmw4g7Vkv/Qt9+B/S2rixJ2iXshbJZDxDBFFFaPh9QSrx3YiHXx3Wj4P2KjSg2b57TS2zLT04O/ATjmkKutzhemIaD/qZpHYqbSgo2g1o2Oc+ttruZQbjPtitBena7isX1kLlG6tFm7JILpwa3FTkfWsIuiPT+57HFPOLen4c7YD20kS+bbkm1J1kvOpnCfQsxX5OLEafmwTC2iN1dT2BdBigPXacIKBzx0wWO8BG8CpYvQr3OkjmCwGYwLys3H822x2I3IH4fZwMVK7xaDF6TIGbE+NeDQmNRstuAkFD67SD8eYUTGlPJX8jSTuLZEoowQyiuzVcC9cFhn3FOr2niaKKpbSXBtxG/IsBbU2yydVsoa+iw8kT84jWNIECz62YRp4AtMeRji9l9zj+G+QSCI39IGczsicJ+GVXU7Zhg6/KwQ5cAmhPniRtDU27p9LWN8GBRu2YWgQoNYC2NvsVboZGY84cr2IX9OrW72xiwhJ50A0jndrNnbhJ+x5ERr2dhPvdKgYEE1PNzsa/0+GFwuJh5kim3DNrMouk+f4Nm7fuissAfFlBdupSxdSmWMjbGKa2i0KcrZiDnsa7ZiL3VNLhvsLsLMmCJfPNLDU4iUavbIrUe9hEvkZwQ2pALum4COO/AZFABO0BEXMeEqFiyTtEtGFjB6AagNRrvzNm5kf79SkAKHiHaJur5xd1WCvLr2bTjBkCbZ4X4ayWS03n3S7yNJX5NX++s4t0ekU2bXJizw4wk81FP1yrZdIMywVTu0E7SXqzpsADcCNVDnlIWqUl18Bp+L2P6gWm9ZhglJacgnpJZKdTFmhvppAOZBByZDIQGSKpU57Q6lXOkYaOBCJoD52ysg6UTmm/Vcs73boe+hW032nTvKatKdA510GQoh2jbRmTY35/R6dtruvZeZ42TaDNYCQeJG4wUoz0kTRJpxQvO7mcbWaDBUcBqebM0kaGAEvPRqOPSb34a/LiWE9rtXc5S8HCVBatbUD4sCEPklxJMQhM6wDTQzGNlPayadcyszJfaZUoMUYzZ2EaGdXLDLPBpQNo556lXEUS398JCUTQ3glh7dKgAFkHQDprVMruv7PTmnt5kEyZKhiQ9su/AHruTh//EUexq/Fdtlomiiwazwp+73lXkS1di50XS0Ku5IEwbatWJV2JAIxT0bSPmYtde4BMJALtZ2mJ9p3vzBbqRgRRLqn3MsgHvilOt7quwJR9IHsPEK4TmJJ2PixdRWrB0aYXjCzBKcYtlJsprtXNpMPjCAIZkQyJi1heQ6KYPJNBK12DuaK21mul1G1HU6Z4k0WqIMBM7hkLHiTLlgXQ9oORo0YV2sEHDyMB3NX88tm5JZYg4fPPh3QUNfkYxyImr2LqeiW+2kX5gLAXYdOhKVViP1YAFPFbDYrs2Y9tYm4+poxW+MoHcAcw3YuehAYcld0Q7woWmXJ2fPGTAyk+p0UTeZl6LCKulSdFXd3oG0P5hIe0XZj4b1BLIIL2oC6erZnzO7Knbf36RCtNgkyYWGzTmGLeuJn6LqU7D7VQA5CK6OmntrDWSJh27pHk4JdoSM6v4Z2w0LcTfG5pUpwF9t//tOAe3YU/t0DMp2OHvATQxrm71wSUviX2Am8p/lpMI+9jDZKy2S5g2KNxfXObXVO3xSYTRnbohLMXiOzFH7klXMhjxRjf6kmn18ByG6agygRMW3XvxaPabggZlXz/ix7a2JCOD67BziWNNPzkSZOCIg0dCUTQHjpl5TgNftgrV3pNm3ruaAw7tB96TKFVbkT79XiaW86ItwUFdyJg+vd7t7DvQE83w/kLlAiTMgDzwEOfEgQBlc58/Mx/eGObrVkTtO0kY/uj9b4Jc4XWBskpoRfhTvbeh9ayWNSRfhASQA3g/MRaGg0moYyiMcmXdT2lRon8zB0nOXaTdkx/RJo2YOrasu5HO3Ul6clS1qR08ByZNlI9o25qYEOGn2GGGUueNP4b8todIl4NVglE0B6sJbMdvjoS7Xf5ciq2q/ce3Eazct7ChdKrAO2e9XM7Mb3IbeLuBCcno3Q+8M9Oq1nJjyyaMb3E3vfuYltUnbZhY7Ie9OWStLz9PG2PPYq2CzkQEeCMx7XknceY/WMNhmDBUD+QRKhlWg/Da+SIQzIJyIwgH+c/19Q7EM2XaUQwvRT0P5TBwSnYmrNJ25I92Npp7CmBS2DfwVTyk0/5KhrVt5YW2wSObFqLNq8NhbUzTs/mODtUvB6MEoigPRhLZXs8UcFaGSeThvsMJovmlk6nfGo6spTQ/fb3dmZnQhEQ5UrE4bxRgNAnn8Smm5CwdMTIQjvqtYKFLhsmR99ciNe3sPekTCR/uqORPS+THd51S/S6I8icXEzypef6aN1/pTEc4PxztdlpJ+KDNwWkdMYK93gxG/F+e0OzzcXDQ/7OgaWsGHb60okLO/kRY4fZxBE9QXt5LcYKnsnOnSuFwc6DxgzDF7xng7einkYYQM9HOrnyGd/fOQlE0N45ee3a0CCG1qqey6JLP7mNDWE3ox1CAlFRRYW3W/Z1ermPJes/uNHmfKdT9uD9zbgZyq7dbW9+5SHedSRXtz8hoXa92bcsZdff0GqLFvkGwkG0Mjd7ptkn3mZ2f43fWiyLxZwvyY/zzX7tDL+Odq8I/6ANDaB8NhclAmQA85CJI5znhuz3AaKfqiXv4ikUai9+dvSn4itWOjToB41P7NkuHZ/S83U0DqTD40hDTAIRtIdYgWkGYSluf4KRmppg//WZmD1bmjYLR2EMzXWKuYtRYMrKgfPY+/Ha72FvXh3S8xV/3vwR9tbji+3pZWjbcmv2tz0zO/lf+BJmYf7m15sdZoUZny6qE95odjBzBMNuMzsZ/zaDCxhL0XT/uszsCx9jm0pmYDIQyFCo67ks3tRkn1tZb7OYlKJ9HfNGior87jeZ3XAg9xMBNGDPfmAjYIoNup6bOYjTxekciYhkwQTfuPp0KFMGIf9Xi6ZNOrJ555KOy0D8N6ASiKA9oOLOT2IBkBcv9nZmAZ5o0qRie/c7imwJ63mUeDzwD3L5T00fNlwJ4PbGfo+BpB2OZvDzrW8TIHQxQYYwQoUcqHEd81pY+U87uz/ztNbaJma5cGhyzZRJZhcArHcv9UCbK4jq/RE0co+hvV/2DrPXYoIR4efoFF0uf/QsDCV5yjFrLmr9U9u2HPPHO0aX2JyxPQchV2Gy+G1Tu83GT0+W/VzS9HbztB2B3Xzm6J6DHJvwz76FdKaQUfVpckmH1yMNsAQiaA+wwHNODgxra1U1S2FnbnVbj3mTBWsc4T/9ild4u3Ze/KfFLOl5e3PK/np3o1uHRP7b2mFddMSrNQpJN1t29Tx8TWGq/k03bWQtEu9mmIn4mKPMLnyr2TOrcwNuiU9rdG/AK+SVc8zO+EjGJKE9H0UPsgzrl1c12DzWBVnnb7n7uf4boRaBRZqOZSd5TSvPbnseXwc/yFF2Zi/dvqfm7OaMARyJaWTCVnZzoBoexAvNYaQhJoE8VLMhluOhzi4A0oqL3GTMIHf+Dle8umDX9shy8Es1OCgPklyrfSIoopW9eeHMAvvOdVusspLuexbNm1dqn/7UcHtuJdr2eB7kmKy07f0qCu3Kq5rtH/fhdA45IBW6yZf6Ux9FHZ/KghoAj9z0fLZduB36p/CaNt6Gy2QD/hlf+xweKkziQZuXoUAeIxvwyz77CbxVANVaQDSf03qCyeLwGWrsxD4NE2m20UD9fS09GRy4W8hrjmJkxiUxwPuhk0e6uLzd3Mf6BAOr/qZjIf4bYhKIoD3ECkzsdoI3E3DFe+zZTquq8iaSoLHNn69BpwI3YWWHdpbZwfwX+ql19tADaINQinVFZbXQRr9vOxHQA3xKWU1JNvdcSDvvNKxP2zig8tOnb7B1a9vc4KfszC7BibQMV34eXzYATpsjCIB3FLglJC2a1E5D98xGs1svZfR2rgdsug8O52D+m4/W2L9ZAa+MezII7Wj0L5RvwaXc65aj/X4E7XfexJ7z/6sZGPwudubZ2Jk3k2AuaZJDczvfoEnvMynbbk4DjJvfAxsBbdJpyEPj8EJ5js/6RwIRtPtHrv0eqwdRs6ef9pqvAEc0bfowO+UjxbaEdUHc4KC/ndt/4m7C362IxuDmmxpZ2KkDgPODdYr4pS8fbW8+rtieWpb7gKTQSisMTqNRevL5LvvG19f4TYDhIS37i1qKhfPMfgHgajKMAFjubKHV2l5O9VyDjvKaWA0U3/U1swP39fF5e4978+dPr7Ev1zTYAuJcyTsCwHyQ2rIxKiQamhNnj7Xh9BqCKUbxP7IaX/A8ueBpJcJqlnb90NgSm5XMuAx5WNXQarczeWcGjTDQnVPjEOKM54GVQATtgZV3flKjUspDRBr1ww91u+LJrjx8eAEb58pEAoBqNCofJCClhu9VUWD33t/OdHOvbavLLQzVgORH/0/adpeNnpgfbbu22mz/eYV2BWaSn96GzSQhB9wC4JceyKyfb7B9DAC8kUODirq/PRpFD+Q54pnEUODvrwSw98sAtjMdAKj3LN9oJz2zzsqZiKI9HzUd5QVi3F5KW92nuFgz3G+eUEFjcOhMyUoWCm+O0ZZfv6zB5sU2Zw2kq/C50AjXOHTZ0VNG2XA0auUv0FNaxZDGYThhuu+Gp/E8FCQQQXsolFJvHqltrZh7yyen7LosV7xQN1/yEt/1dgODuSJAkrbiapEfGpDy85/VZXy2hQ+io14zzo48vMiWL01W/sslXZLR+inaCHi/iiL70Idr7c4/bXLmC58akSuzB+9v9odvonlPw6ukipFYoBGQyoC3whSjhcv2/btFZu863OzGr+LDWLYVYD+0crMd879VNhVvi02JIJXbfJDimYigWpg6/rnZY2wqfApIw0T5ZxiA/DVrm1TIZEHYXNJVhXbsc/GK6cFurnFWP7vzAdnN0bLzNbszH/KJceycBFTGkYagBFQxZUOWdvvUU37qdwDQ8opSO+HNxfZMJSYSmTRzAdAgG9KTz/a+ZYX2gx+22hOP99S2x48vsrM+Ow5XtU4bS2OSxtycE5GeGorNq7UJcKEd/6Z1du89tQ64BWpOH5WaXz7H7NrLzK54Dxr0YjOtxietW7ZunVcwivokZpRfM+B48WdBT2zivJfGJCIZyszzYPVme9W/VtpE3hHb3uCUE/eZlyV6mViaBcWA8rEVE5NnXstWXn5fSQsMP1tgKJcKqbT0SVThUngSsyDLMuua+A9Aa4JfuanFJsJHrnbzJBPxtAskkMs3sgvYjUlmJEA9bN+iKg/oPNjkzBTB9U/miuPe5E0kwzURR8HyQALR4P53y09qva2Zwa7QWLzudePtjccU25NLu2y4lDyPFTml3ImDxxZwuGJyob3umLXscOM1bqWZsXGPpmU68xSz/11t9vJ5aN9LWBkQsNb5hEPM/v4ds7cd77VugFHviTXFcffSDXaEA2zvn63ORD4rhUQ/mYTWomVfPWeMzcU3W41FKBRNk78M7XdWSYGx1ldORaVoRytTuPO9afpot71YdlrOpVDrjURXPxXAkKV8fp9DVghDknFqaBMOEHPY0Pfqr7RmZisG++Vhh2G7hdxEHCFUPkhpbvDa9re/02KPP5qtbadtzNhCO/c8aZLYtiflQdsmJmFQG8nIf3s+u/O88fh1zsYtJVvPWKUEpBPacbzkALOrLmK6+5fN3v0qbN6YQi49B8Qvc9q1wvCae08a9a1PrrZjMYnMYI9NkZZdzWeFkNilZcuFT+6KJ8yfpGQS8oXyh2UUInZs34yEZ307Ky1p6zJ/HDrD282DS2En9/+G37n4UBifet/SiW/tWgnk8xvdtTnZA1OXe92ocSnc0nrOVpQo5i8YYe97Twkmkjx4dGTJVi55fhA0ZTf8cJPbq1IafphyfsSrx9qZZ5Tak0tYynRK1os5XErDb8MU24qDxX7sBP++92+yiy6oto0b22VVcKYSN9lHSD4MD5EjDjW76LNsoPBKZ3YQWEu7FlTJtqv1sc97YJl9YNF6m8egYyM4R/R5BWxlVw3DdGQjLfvGivFuBmRoVNXgLGOdkf/HNPlpTOBZL7DNgQTCcimsQcv+1MRS1qfxo9Aa7BRV17XaFUyRn8ZgZ74WvnIRx38DLoEI2gMu8jwmSH3ckizo9BdmK3bg5iUAlRfJCDZEeOuJMmizGe1YAuaGCd1ME08zyuH+TID57g9a7YEH8XqA3MAamFnMbrSfONNrlCVyGRd53PDXffwvkJOpZNOKtB0wv8gu+3KzvfPEKvvnw/VOcxawZzxLBIB6IQFCZV0/dTzMgOOb711q31jbZAsA7JXIimjzweJWOVNfZwn25UPZUuyEhZP9czGR0K8W023Bk0O70edaPOpBjFTc+IGfMGecm1Upl0L9if6zihaPZ6WEyTUtF2H8t8skEEF7l4k+DwlT+wSgC2YU2Leubs1MtAm18tDDZFhmZxItIIUDRb7ITYCRAZa4v3r5RjcrU42FkE84ufc+I+3GG8ai5XfapDIaEVyp80Z8sevwUNlnTqH944EuO+zwVfaVy1baihWtDpQz6KwEE4BUL0DrR1/xyAo7/OFqewSgLMOjZLkzS+SNs0xEgmWB6ATJBC37y/tNcetZOxBFQGLr2fWNdm51vc1Gy16bNC6ZCHbyQulpBEMNxCEji+0liddIcCnUhJpfBZdCpb+T8cfgg0sCEbQHV3n0iZsitFvg0h56EG1KlNTKOXOG24VfLLVl61hnAqeJvBHAvAXz6P74bd99T7v9/ne0HFDo+uv6Xe+abO96WwlmEjT9bFOuHuZCpK0GqHZl2uawRK3MJedf0GRz566wH/5gjbUkGx4LBwMWyv962l+X2Dkr6qyitAj3OyZU8jBffti9syOzyAyQeTGA/fkZo+2osokuiBoPmWdkX75Bi1HBh8A9V1Ic49VAtHXZqbPG2vjhxS7vQctetKHRbt+8xcqxZzdILrkmGN/fpRKIoL1LxZ+HxKmrmq2I74Pd9pNGq6/vyJhIpNEd/2YNSNEFz3Wjgl6sStveiKli4cxC/Kg325Lnm126AkqZZ0bhwXLBxTJq40kiKw28hMakV1Q7/5M0ZA5Rw7GJnXP2nl1o+5Sl7P9O3WwbNsjY4UlJCqB+W40JB9PA/gB2DbzJQVIffn+Bl7JbiSCmYz/+9MEzfFokFhq1+1mM6krMM/OYUs+M/ZxJjU+zBM8A5NFzu1vnYM++q0ouhYiAHMcKn7O4d3kEsQx3eRHkyAB1VdO+9ykvsLv+2m6PZy2fqpgPPHCUve+9w+ypPLrhOY4TsNEO8aJvf3tdMigJPiR29QNI+6e3TrBnlnfaZEC1izVT8gbcLlWiA5nrWYpW3iWjgaQwvV+Pw8a843CnU8DN/WQOSVhxWZPWO0lab2uH3X7QNJs2alhmurq07I0tbXau/MbhKV+LUY0n3jWsxf2VmaPdnpOhHZBstKbJF5g1OhUf9A08CM8Cz/E89CQQQXvoldlWHEvrbHXbdaXsd7+tS5Y09QOSpaUF9oEPyraNmQJPk1wXdOqdeAP4o+nm11zXanfc4c0kbplWIQb0jndOtk9/stSeWNxpE+bm2b5N/A6ESEr5QvHOmESUtueAsT5ng5Att/8G4ZSW2qQKAPt51qv+wcKJduTcCY4fgXWgG59aY/8G0Mtxe5HHSq4gqpjl6id6S5i44yL1Mf9tBVo2Nu1S+Mo1LZ9K/L+rJRBBe1eXQD7SpzbKf3rv2QV25Tdb7fnnmI2SRYceNtZNMV+xrMtKNMO9G0OyQvXtUvZlmSjmM2vxbW/faEsWt2TMJOqxa8PeL3xxuh36skJbXIXZBCcK3R9QymN+t8e3AHsOwLgIO/aZU0baBw+Y7oOStgYghdv/qNpk51bW2TymyudrMaoJxFsJKJ/H+tz7JDvhKGHZz2vZbf27Mo0kS8wOgBh8nuP/fpVABO1+Fe/ARS5QCGD4xz9QUSFVXGm9mmJ+xifHWj3atpv04jTPPPEGALsp6y7OlF36pTXW3NQJcPv4lf7kKSX2/RumYVNlgVXUwqLgCpgnFnZ1NM4fG1kvw0f6eNz7LjlkjlvFT+UhO7Y07RpW1zvmsTWWwltkIzKRdpyPtiusm/3u+ROdvZqoidfH/EB1rf0TrX8eA5CteUpvV8s6pu/HY6IcdhMJyFQxb0qBnfv5JqtcnrjAJXk7+uhxdsBC7JqVeE1o3kU+1S7icmYSvEluvmWL3XQTnhEJBfv2gQeNsr/cPdmWrO6wcdOSxPPJQ0hwgM8CbJZaYVXALpuJpv3dw+dm3PskYwF2C4Ogl/x7JVaKLpvF7579oL4zzKRTW4Yt+3NTR9oBU2UCU0Pt02xgL83vLWOxmETLjtpZ3+U82N6MZTnYSiQHfqTZ+QktXXbnnVRYyGvbAMuUYjv/orG2lpHDsVPyb9t2q/LRIOw/r8jO/GRdZnEnadoCbvF2zOsnMAV9IoOiHTZ1fmLfBmSGKgXAXqteBsdfXjXXzXqUOURgHbL2A/ahvJ7ZiPMBULka5qPSKe4ipYB8P7DXZDmOOBkHD5UHsWX/qX6LzWdxqHzYzodqGe2OfOfj+9kd5TI080TFrVtjNndCoZ3xiQarDhNOku7yG44dj20Zt7dleVg+tbeEAGUNiG5excSViVrcaZ09t8i7AfqBSf/Ce0+aYtd+Z6w9tqjDpu8FcPeDR0lv1vrjtwCbts9WAdadaNCPHj6HXWJGOvu1ADuA528XrbWz0HgX4m5YBcAyyT4vpEWoKtGmL581xvafMtoBdtDspWVfs4RB4UTLDgOVeUk4RrLLJRBBe5cXQR4ZADjlRTFCjsKofnf8MVvbTtuEicV23gXjrZZVMcZo+VRpiHkmud4VutmXTGc/bZVtWJ9sF0Za0rZFp54+3b7xtTEeuPceWsANTmOb95NnaphZqUw9+eoyO3jq6Axg+4HHlP2dlQbfhnvf3GRTBYklEQFXfSOlLxDuVEwA90lo2YFCQ/GPqlq7o77NadnOoyYEiOfdQgIRtHeLYszKRKJtl7OU6elo21WVPW3brztmnL2TmYry2y4dx3tCgTwSOGLanFeeLPfc12nnn1djTY3dA5MC7kJQ5zNnz+gB3Dmvv53HPGwvKolKHYMyzD1VeGy8AtPD4iPLbX+8NoJJJJwfYdr4a/9bY1PwFKkj0wLrXAFbfEnDn0b6Na2d9gMWoSofP8Jr9TAnDX9za7t9YzFaNisXhgFPvRdp95FABO3dpyx9TkAGadDDnIdGl/3iF953OniSjBzJhrlnTyBs4rctFMgzBTdALSp1/Q1b7LLLVlkba38L0EUOuFE7P3P2dPvmlV7jnjKPKd75UEV9Ev3yX6A7H8Bcgp/1e0eV2O9fU2HzJ4zYCrD/t6beDvlXtV/PmnfyNfAo8akTtRRzzMswt7x9L804hRBs0LLvWrrR7mMPSHmMaOZnPhoKl0b8N2gkEEF70BRFfhmpW82ejrMK7ZxzG+3ZZ5sygKlUDjtsnJ3z2RFo25hJEnfivKYOUhQyt3odtvODFhbZV7/WZN+8ahW2X4cvLikP3Cn79Gdm2I9uHM/kmw4bTU9/OLPuB5PWLaBUuzaai5mA4yJc6M6fPsq+f1RFZrZjsGHr/O9Vdfayh1awS32Be0c7xOSrkomPiTQaWoTqq/tOsYmYXaTZC5mVtjbt/Qi27LFo92uxn0dbtvvUdrt/+fqedjvB7A4Z6kxW17vxhg0OML37nTdPnHq6t4WqzmsAMd9mEgGJgHv182k7eO8i+/z5DQxArnZaNvjiyKXN9YdPnmp//MNkW1TdaQ1sODN2Jv0A8Z6E86EH/r+SFxuzAMr1gOBSNOzb9ptsXzq8zMawQW+wXft8pExrirzy4Wo2hy8wueNtkgzyxDZRMfDJIlS4+H0SF7/XlKu3pEZQXOqp2W0sQrUFX3FNa5cZx991j+K/3UgCEbR3o8LsnZXGZIr5FVe2sAKgn3Cjqqyu9Lx5pXbzj8fZ4lWdNnH2/2/vOgDjKK722z1JJ1vuttyrJBeQKwZCqMYQSOghcRKSQKiBJJSE8gMJEHoPJSQh9BIgCU5CCaEmxAkdYrBlG2xZlnvvRVa72/2/b3ZXd5JPtmTdSXfSG3u0bXZ25tu9b9++efMePq99gm9YR4u2SVok7vmQuEdnQareKvdR4obf73jiJrkcf0Jv+fjDgbSckwUrHOkLk8C2krhJg2wHNUzUXy+ujshkqBs+OmSonFY8AOZ1VEfwneKZ9bEvry5cL4cjbFlPOImCtwATOixZhM32eJojj4YvGT/A+MvmfWQmcc9Zu914MRyOl8lq7sM5mtonAkra7fO+ml5Z+KVv9/1e33rTRtm21fMAaKK8oMTXv95HvnEK3KdyUNLzHpp8NMAztOFes8BTlVx6+Ta5/bZVUlWF2ZFgFkM6uCrNAg/4UjcpWT5UzvoBXbpGJL/AkhwocRmQpjVZiGoITpSh7c1CqEOuQ7zF16YWyoEI4WWIEvs5tMj214IgHy9ZKcd/tloG54aMKoSRYZJF2LiUZ62C9qysjMifx/SRwrrBR8/VaxV03PfApwmNtSvZLp6kqd0ioKTdbm8tOgbyqIaL7WLMVKQHwL/9zRuUFAuxEkGSdJ/6i2upJmF0GxIoVlPxi/eJ26hKIHFfc912ufYXK2T7NlqVeFPtg+WgwWE4nxomDz3YwxD3CiiF+8DRVKqlbnab7wZKyVSHLKZTJ2z/84BBcgPUIfmdc+LUId7kmc2w1Lj2vSVyzoJNMrJztolwzoksyfxR8ZbQHnwhrFXORhixkxMMPr4GKf9JTN4ZCU9+VMloat8IJPP5at9IZWjv6OuDIbo4KHnW2VtkAZxJcdCK7EySnrRfV3n4oR5mUDLpUWbiMcO1qCpZBYl7/MgsufueSvnJj5bJ6tWBHbc3c5JSNUOl/fCC/gglNlAOPsiWeYsj0hvE3Qmuoo0rWDY/SYlVkawZ+WUYyHoNVDflkGjvHNpdPjyqSI4a4X2CEKvgssTvc0Se+d6/F8kdiKQeTJxJthqe1wNkfPeaP1dPGihhqGniBx+XwfXqqV9skH4YfFyFFzHVKJraNwJK2u37/vq/eFhAcGQK6b57MFgF87vAoRP3nXYaosyc6tlum2C8hiV4JMnJJ+41C11EnAnJH56rka9OXSqz4AOckjYT3yckSKohvnRQN3nxH8Pk/vu6GeIuR8QAmgbSd4qZGBSw6F40k6eSrKm3JllvxPWoCjmnW458dtgwueLAodI3z5OuCYenDmHUGZGXFqyT4v8ukddgxTECOuRykGUy1SG4nHlB8CUwEG1bhZfIiwhZVtQrNuOSOEXQ5gdmw0wIy2zsYHm2VVP7RkBJu33f37rebceEl3FFIfk9gvG+8nf4cUUiMQZqkhtv6cc9ZjajsZduASGayhv7A1ahxL1hMaV/W+bPh7Q/aaX8/eUNhqw90vYG19i2Xr2y5eJLBspnnw2Ss87INiqTzdugMhluSVYYLSbzNqOtAVlTsqYr1c3AYCFcmH4FU77f2n+g/HZKoUzs3820BYdM4jmBSR2juJ8ye40MRhCD/tAhMzBwnTTsFU/KXxIw1TSlGAT9P4QsO8FXi7AdRtLG8TfLNsjdCHAwEm1nnMlmwJCUNmolbYOAknbb4N7qVyURb4A/a4YH++a0TbLQDw9GxiMJjBmTJy++0FtKV8KaBKqIlJrcgQzZni0rMeAH7cPoQYgcf/IGueGXK2TTxlrfwZRH3CRO5okTu8rvHhqGqfn5Mv4AW+aWR6QSCmS2NRviMsvsObnCwPRDKFmDbMtA1odAD/zC+P7yl6lFcnRBn5j6wVTm6a4p0b5Wtl6Gvo0o7ut2ShH01xxsDAYcm3TpPTeuXgmEv5TFGGDcH5L85fsNMpI8+8h7ReJesqVSjp+7zsy4XI2+qFqkHnztekNJu13f3rjOkVn4o6cIB6K+/ba1UlnpGDVJ4I/upJP7yC+vyZOS0hREUY9rSrBqQ6dQBUvE7RD8xxbBD/VNO+QbJy+Vjz/aZszYYlI32g2JOjfXluOO7y0vvz5M/vyn3jJ8giXzQN4bEAKyBw2jG0nmCCrrhrwGdsyLQNYnYUbhyxMGyCsg61MgxQZ21yRGJl6bpnQLNlbI5f8tl+M+XS252B4KqZaOn5op4HuVNuEv28rMLwFBWx/af1DdICgPkLBpLXLHp3jjobGM6aw22QSr4yQl7Y5zr01P6fd6XKEtjz9ZLc89C52Jn0hWJKpLMLX8+K9mQYeMgAnQmBj1Q1AoFUtck9dYv8iVfYdnyYz3HOiyV8kDv14lmzZ5UndwWbYxUJl869v5sIgZJs//ubcceLgtM+d5Gl32IUgBAYNjYUYTkXmMKtOrk8w4YLA8e2SRnDgqX3pgAM+Y8cWRNYlxw84aeQQuVcf8Z7HcT7eqkK4pzVINQf21Xzy4VFKWbDoJmDr2JdBj/3VsX9kPqppAug4+J/40b438ntYiRi3ikXxSGqCVZAQC+lWVEbcpeY2kzfT6JSDIEVly7nlbZOzYzmbAj2RI+21Gubn3/gHyj9Fw2g8GoZ10bbKcZzTWDTAg1SW0chkOvUBejyzosbfJn57ZKbfc0UcOO7y7CdjrvVg8qxcSbe8+2TLtW/nylWN6yv8+2SZPPb4V1iUxOiWBUyLuDBK8bURPOamwt4zsnSfZ2GYKdMNc5y5+cWyDW9O3F2+SX5ZulBKY/Q2B7TXrWAZ8SNbemTwj+YmEXYCGzMd1bxnWXU4dw3EGT7oOiPvjlVvkrAUbpQAvG7YpFfp0c1H9k7YIKGmn7a1JUcPAaSSzChj0ggrltFPWynuf5cqAAbCUADuRvEeO6owgBvky9ai1MrYgSzZCF26Mj2N8mPzGsV347quGL9GqrbAugdT96SeOHDl1jfwMBH7ueb1l32IGuKRWIF7f7UoPkDwDLBx6aA+hyoUpkLhhki6XTBpk1B/ekYCsPfqlVM20A3bQ72Ea+n3wkPc6ggdgLroUQIVCfTG7zU/SVHbfTOhBW0oxTf37PXLlov0Gs1lGuGYL2M7VO6rl1JmrjJ9seg5ky1PZJtMA/ZN2CKh6JO1uSes0iOTYH7ywGGFXboUXPs5QpBkg9biUaI+c2hNRZnqZAT8TZYZioMdvKW8gbcs3Quruh1FDvjTuvb9SiseukLvvXOmHUYNM7LclaC9fNrmIPJ8Dq474xHLUV5PcKK0yU6KmZE0i5ASZf2ByyvfeLpOvfrpKXocahaoQTrJZiTpbI1GSp0p+KXTVB0DlcddBQ6UrBkh5H4g521mFkGU3fbxcVmI5FF3E7dPUQRGo/4R3UBA6Yrcp1W5eQf12CDMQq+SxR6DsbpAYZeauO7rKrAUR6Y8oM8bWGySS8gSyYvtqoJZhTMuR/W0ZDf/cV1y5Q0YULJPfPLBKFpdXGuImKTMzGZLzVuv9JVFTOif5MbM8PeJRN3wSLEJOwBT0l6FDLoTXvN44SLUDZG3zjko1bbN+TEYVmM7zrSJPg7D7dwl7L5c4rB+avVIepG4dpL4SZfWHC7w6aNJ730FvPLtNe2m6Tx2HGYoXXrxV3nx9kyG0+IG5Cy8eIBdf2ElmL4hKP0xsaTXiZgNBTiTvHbAu2YY5JAysUICIOxddvE0KCpfL7beulLlzdkikFoQM0ZlknCgFZE2ri5I12+Xuj5dJAcj6tM/Xy7tQi1CypsvT5SBNqu/5oyCHpjrxGpgnJGG0exPUIu8dOFjGNAhZxi79o3S9/HRR8kOWpbp/Wn9qEFDSTg2umVErJTZ/AHDkgJAc+7X18tmn2+vspCm50szuxpsHyenfpWOpqOSPgA03VSVtkOgjvAq+VMYMCUlhP0uu/sUOGTd+hVx26TITSJg23onSGuiC/4ZYjT+asUgmvLvEeMOj+R511nRjSsm6Nck6aCPjRfbEy2IFBh7fmDRADh7co+6LwKhx0DYOPJ5QskaGoq2cyMNBqNZ4oQRt1GX6IaCknX73pHVbBAag323GdsyDjHno5DUmRBkl10Di7t49S+65b7CcdJxnCtgrmHzTui01V6N5IMm7Ei74OCln32Eh+fVvqhBIeK185dClsm4tOoLEF47JWP/VrFXyjZmr5cntNVIA/fYQZOqRqbOuwrK1JGtcqi6RfPsC48WYOv/CuH5yTGEf017q6EnY/DpYuGmnfOnjlRKCSqSC9wnnKGHXQdhhV5S0O+ytj3Uc/CA7EXxg0CCGxnLl4h+vlM2+jTSJj4N8ffKz5aFHh8hXj7bli6WOtBlx+6xF8t4GNfxmzDEp7GfL5GJYm8x3pKaGdOwl9ospjOnm0jlLRiI4wUp0aD1yMK7aFiRIAxfGeVwEwv4TfIqc4pv2sb0BYa+tqJbTP1hqFOv9sZ8Dj1hoUgR0PEOfAQ8BmsptBQHuM8yWl1+LyNVXxQLyGukPxN0fZoGPPTlEDj+4AXG3JZvg2pWYVbllg0e/geOp+PtqjlCqxkpbNpVtooQ9AIRdBsJ+bt98+XZxf9NUtjEg7C1Ql/z0vaXyESYDDYNXv7U4qNKVgUn/AAF9FvQxqEOAE29ok12MgLwPPVIlN924Uqr9YAUBcQ8cFJY/Pj9Ejj0qBIkb091HtPLgZF1r41ZIxj4b88ugYUqwq2GRlG+zDdRh94sj7NPGegE6eSywbtmBAcmr318if4IqZ4SxFFG/Iim/ORl2ASXtDLthKW0u2MN44CuHRQl8gdxx10654/ZVmBnJySwkRuhbIbGSuJ/8wxA56XjquGFVgtBgrWpVklIQkl85FTacFtQL+FEl8jymp8cTNhXV1GFXRqJyw4dL5febYdoXDhlrFrxHNSkC9RBQ0q4Hh24YAgFTrC3zwoP98oYdcvddq4xZXTxxG1XJE0PkjO8xNFhUBsCO21iVtLX+Ic1uIQmbE3VykZdgIs/LE/vLtH1jKhHiTVxJ2Dd9uEzuXlchIzFQugQvRxI2pXBNikA8Akra8WikaJ0SakYlX+IOwoP9/Bfb5a4ExN0nP0ce+O0QucjYcXsTcIxZRkZ1NjWN5R2nCyuYlcsO4LkK+ul/wWPfiaP61lm1UCXiETZmO36wTG6Db+xR8ClSnsGEnWmPemrufmprVdJOLb6m9ghCWHEILIRRKKNzzQQO94mb4cEmjskSEvedd0JVUuOrStAf9qUbzAHvvHOw3Hl7V0zAQViw4XGRZVoB23S8BG8vDQ/pt3slHFjtBAl/gkjuUxG6jJiR2AIddgUm99zwwRK5DWHLRoOwF6Esdd98YjIhsa/8mmCbOcobRfs1pRYBJe0U4gsJ2zzB3bvRyCsCwoNeczDILmaVlsKrJ6FqtN7EdZwP4h6dJb+4ZrvccssKL5I6nhwSEDN9flxx5SC4eoWvkkWI+I5fMMOWpTSQQhK6l6oqKGEXgbAXY1DxaAwmLjpihOw/oLuxDiFhB1Yi2+Dn5Op3FyPOZIWRsMsyiLBJ1ny4aQ3Dl9N8elfE10ReNvdoSiUCStqpQZfPc136KXxU/+2vfaUSzvo/h8VFryEYmOqNh57kzac/nRN6YogbEveEUQhUcGOFXHfNctmxnZHUSdr06+F14LTv9pV//bOfLNnoSNkauE6F1N2R9NyEgXpoulddAF8mF/TMlT9OKZCCnp3riDog7I2VNXLJO+XywCb4xfZVIpkkYfPRHYA3EB9fRgA6GQOn7x0+TA4rwIOtKaUIKGknF96AgsN+tfyNOnl5Ifn6qX1kZvlQuedXXeXzJSA1GN/SXC4ZQWqT24UEtfnETR03rUru+lUV3KUuk41xocFI3MxTj+opC+ZzEk4I/YRlySjvh52g1nazizedsxV7YaUL8gJYiDxQ0EPuPbxA+nT2ggPTOiQg7KWIoP79GeXy5DZvhuZiSNiZMOjIfpKsGQqNAYeX4EuhAjed1jDPIALQwUN6Br7KoyjC4kzB0tvSvy1GQEm7xRDWq4DCFtNPkV9DZpBsG891BKZy7oCBYfnZpQOlpGSQnH8eo59HZCt8aTDOIcqld/KJex2sShhJ/dEnauR731pmvO0FU97ZAZoEjhrdWZ7901C56orOCF0Wke4D4RipJ46R2dK9n3txF6gOYZDg1VARrMaMzH/Aj8iFk4dILibG8EXGgWguSdyz126XohmL5fWqqAyH6iQTAhnwlpGsGbne9BPuYRdjAtBdQ7vL0iMLZdo+/aUL+oJHnBpt3mXqA5l/h/wEMhP3a0oCAkraSQAxqII6bCQsrBLk47D/m8gL8FvNArHhoCBGLKTVcV3gL2OYvPlGXyneH3EOF0ekS77EwnulK7GReCASMpL6PkND8sbbUeNtj1FjSNx88aDfhrh79c6Wm28bItOf720m4ZSv9yKou2S4dpJIZPykGoG+LwKJHQcVwRdHDJfjRuYbkgZcJvF2Ept/L94oE99daqxKhmR5kdypAQ7KeaXT7y/bT701I9dzJue53XNl1mHD5fIDh8qgbrnsK/5LBI84ShmyfgunHIRn4SfIG/zfRLp3M/2Ab6RFStqNALO3u/GQkrghXbt4hq2/op79kK9B3kryxj5+JUdzciyEyeolf399mDz6cA9EQXdMphe9cNc01nfjp0fiZmiwUQMRngyi8wEHrpJX/7HRQEZyojjNX3EIstY3p+XL7NmD5bhjQ2YiTl9MxMnBTJOM0OebHu36h12k2Njf66yUgshuGdwNcScL4Vq1i1GD8BCeAUPWHKP7w9zVMvWTldIXQRrgKkWg8jeDeLvWnh572Ee+lPqgI1T7LIKOfjK+HF6fPFB+e0SBTOjX1fQP3YigCLvL988i5O/iGT8G+WP0PwsZq96API5pSgICStpJALFhFXhIHWY8sCEsdyLfgjKTkJ9F5leyMSfBb9qhRHrOef2lbOFQufrKTnB/GpElCAVGfTfdppL80k6lgDaxbfRx3R1qj9GDQ3L8CevlvntW1UV4J2Gx7VSXjB/fRZ794zD51V1dpWRhRDYinBhVQm4GfjDzdpCdKF0vg7neVvSPRPbzg4YhSHB2nd6ab2be6K2QwK9/f7GcAd/d9NtN/ydbkPkApGMKyDoPKwwwvAJ9XIGo8I+M7CVvHFUkx8IbYY6n9oma59yDYwf6cj3yROz7I+49hRY++yB0Jexk32cl7WQjGlcfHtgoHl6K3pSwFyN/H4enIn+IjH2evpv8VljUSW6+dai8++4A+fqJIaPvDsGcoOcgkBtFnjRMDAtWDZ38dgR1ZyCFn122zQxQrlxZbdQlbDL6bIi7BwIGX3r5QHnnvwNk3P62UQnxqyIXYVsyQeommfEd0w/9YdACStcX9e4ky44sMETGvvIlFQy7krAXbKzAgOMiuXk1Js2AsBlkgfbbrCvdEtsUvJCot96Az4OFsAq5qm+elMEC5tyJg6Q3IvtwbAblKF3zvUP++DPyfrjPNyDv8J91Ci0Z+EpGTzIgpePzkwGwNb+JeJj5gONZ9h5mbF+Ap/9aPPwYpjM/eP4QKMTJjh1RefWVTfL90zbDhag38FcFh8oViOBCokw7JSieItpk5xdYeNkgUELYlpfe7itfPpiBtChts+Nm1Sw3bKiVp55cJ5dfQYejNkKe2bIJMbSMeSBRIns0NaFe1t25F0zPoHNYsXyYDBoc9ggU+1nVLz7A5JVV22VITpZxy9rUqlmOzSb7ICi9iW6zELbXvOCLxflyPHTXfPMGUnWwRFF5o2yDfBXBCyBuSwFcwqYhiCkDAABAAElEQVT7gCNxogkf9dZbYRVySrewXL4v7iEsQvxbwiK0CjHPKNY/Qf45nud/Ygm8Xe6n9N2cu8dTNTUTAd4PTa2AAB5mI33g4Q4hY9P6PX4j43Hpe5EDwo5CknG6dAnJt76TL4tBQHfc3sVIpYvWeSqTLAzhp51kip8p1SXrFrlQldjiIMDiwYeslod/v0Z27vQCBqPPBmWqS/r0yZbLLh8kH380UE49OcuohMJgxe7QkafbVwVJm4Nwm9D+hZCur8jPk6VTC+RkTEcnYbNbuJckLaMO2QL/Ird+tNQECR6QbcsA+PKmhI1hgGa9iwxYKf7DvvEjjiZ8g9BHmvAxyvufYcL3hyOL5BCfsPEyMiZ8PmHjTSQXIXOg8Z/+88zxG1WFAJTWSLxvmtoAATzsVJlAPjVSCvXdNyPT4oREQCuTEC1OuD3rs+3ywP0b5PGnqqQPBJ1+I0AiK8AWHg+ySNokkm4OBlK79oZVTHlEzjw9LFdf009Gjeps2thQ6uZXxd9f3ijf/R6cYqND+8KcsKbSlR3rQYZNkbqBEFFKtqRNaPuSjPFvBczzDkYQhZsheR4xvDeFZ3+wMUbW7Nxna7bJVZ+tkjcraqUIE2bWgKyDYAs8ni6JDxW/Huh5kLExy6C3FqhD7oYJ33f26SuDukIyQAJZO3gECQW/78jvNOG7Cc8tFGLmuaXemlVpakUEeP80tRECIGbibwZs2ARsfwMLkvcYb5vWYYbcpbraMXEQf375Zpn1RcTESWSYsO2I3pKOKhNKoPnDLUjR/K278tfpveSEEzGIBYUwpW382D3plAyItHxZlTzzh43yc0yVR49kLHx679wOvx2IqLNb8sbpySJttoStpbVEJ1RajmnZ1I88WtBTvj66r/SCTpeJfTN6E6ywH/Qf8ufP18o5C2FBA1UI1SGUrqkvYNF0S3wXMhDDIpq1QLo+t09nubC4n7EIYVtB1vwUjFeFvIHd12Df/3gch+sEDm5ral0E+JxqamME8CMwair8KPh7YYBuTs65EplKYQfSqYsp45R2ZP26GvnLXzbKj3+CEUCkcYUh2bbRNQOCaUXeeLKoo+7az1OdlK6Myo8vyJWfXtpXRo4MpG6P9EhtJD+m2bN2yOOPbpRf/7YSWzbI25aKba6JCZmQvHFaS0mbVyZZ04VqV1RmJE84+bpuYFc5A9J1IaahM+HmmHbiHhlVCPfNWQd/LLNWy5+3VstwSNcM17YZXJhuhM0+UiTm1wPx5tfDAQgWfNM++XLk8F6+RYh5GwWqOpSThcgYd7E42GjIGgvVWxOMNky8g5rSBAGQQd3nJtZHoFk3In/fbx5UJoYrDMGXLtgpDz24Xu65P0Zum1ft5WBeivtPnqCJH/1uMz37TE856eTeQt09E/pVl1g2gqALH3+8TR59ZJM88RQU5D5574SP050QZg3vBGegPLf3Vj3CS8fIGtQNv9Y/6pMn547pI5Pg5AlVk6zMReLJmrrr5+evk/PL8CkAE7gi6K8pXbN8OiW2h6h3x0oPAGUGUrH9ML4eTsXXAy1CmNBFkLFpPp8vfu7chXwPCBsz1esPomO/pjZEIN2esTaEIj0ujR8I70m8yuQIbN+KfDBbiB8X9eA4LhZdvr7//la545aN8uqbtVLQJyQ5kNO3rATHGGrnGWmQ0CMjdcP3P2NRUur+xik5cuXVfTAxp5tpoCFGcAb5kY6omKgS+ujDbfLE45vlyac98i4eYUstjJ13gLypPydhk2qaS9o8jQNwnVFBGeyQSdZn9uwk541Gmwb1CHxomPawLbiaJ2Vj7d1lm+XauWvlP9BdD4N0XYVjMK1PK+ma/ePXA2dsMup7GaaeC/p51YAuct6+/aSgl/f1ALwd4OegPD8OmJ5Dvg5kvYgbuC+qCiEQaZR4bzWlIQINpRtsn49mXos8iM0leYNvzA9t27YIBvNgIni6N5g3FiqTnZjAYvTBFGZBKGmT8MT1HkrTQFKKIzde30VOP6OPDB/hD34l0HeTvP/3yXZ57pnN8ruHqnCeJUUDbMnGrNIK6CJq8bFBr4l7NvkLmYktPQEc3wtL/AG482BvfUZhbzlgcHdEbvfeGIlUIWWbKuSxeevkdgQrEMxsLETZFWkoXfNe85bHm/B93TfhO6hxE76PcApN+N4256sJH2FIy6SknZa3JdYokDVpl+aCWHVhjSw/R74EmYRNE0ELViaGaZZhMO8PT22Qa67jBDXogwtt2QpvgiS1hPpglGr1hCeONt2UjDt1tYwnQJLwk493lxNO6iW9MUOUKdFgJQMwzJmzQ158YYvcdMtOlHKh9A/JkEI+xi5eBI3Yab8PO21McBmXi7iLGHzbQltrpEsxceRbBb2gBulmdLrcl4is1++skRdK18v55ZsNGxbCx8gWkDV1COn0TiQK7BkMdxDezDJOnWyobf40qrd8rTDfOHXCYfYxCqsQNp0J81rlJmSYoJpnzHQJ63yrakpDBHifNWUAAiDsus9UrE9Ek29GPp5Np9SNfXUmgpRK7793gzzzx2oZAO9rPWH/vJkmgmmWqArpPgBf7dB8lK/HwNgkRMi5todMndrDRMRhcwMTQfSvbpYlz1tcXilvv71VHnt4h3z4P2qMbBM9ZfGKYSbwMMuYhCf8lx8ukZuWY+AWRJYNy47bMcB4LAbfxsDmmnomJkPWeHnQxM+3tDSTTP4FJ0/XwCrkCwzcDQLpszRM5tOSrBua8NEL32mNm/ARtN8i3wyCNk6dsI6uqwkfcEjrpKSd1renfuNAXLxf8fruU7FN8t6HJUFU+CF6JoKVlY78881NcumFm6VsRVT2GRYy5LgDFrZpZWUCAmR7euDFsnoJLC8gKx57dLZc8rMecuhhPaRrV08gTCR5s8/06T3r0x3y6qvb5J77KmXZ0uEyZKjxPGf03eTui/5bLp9uq5ZLC3vJwVCBDPTtkHl+IrLeDkn83WWb5Fcg63/tqBUbkjX9cNDuOngX8Nx0SfzMamjCdxFM+MbDqRMT+tjQhO817KYJ36c8jsN1AgG3NaU3Akra6X1/ErYOPzKjDuEnLNapDA5MBHtgvZ6J4No1NXCPukEuuoQf876J4AaYCGIzbcgbTyEHFRkQontf6LvLPX33CV/Llgt+3EMOObS79Ohh1Pd8MZFkIPHiJP73n+AoBmVLSytl0KAcI6WzHI+BZ6Vsc4X0zwtLN0Q5ZzJ1gH55Kkk4kKwZ/uu95VvkN2UY2AXJQ8EtRdBbr0Ml3jCoV551tHVi26kKAVymH8tpwscJQGPyZUrjJnwLcArJ+i9sP8kaCzXhIxgZlHjvNWUoAvjRUeo2ClqsD0M3qJs83e9OPRPBz+dVyIO/3SC/ebASzuxhogb7Z86qTKtp43ga6fmPMyq79YkNVk49Ilt+9JNucvjh3aVvPwbl8lJj0ndwvOGSUrVHcR7pB4S/CY6R3oFFyO/KN8mbO+DSKTskI6FG2Qiy5uiAUfI2rKyNtgOypglfd3SgzNfPP+JPAGrEhG8rmksTvnvxvOzEs1L30m+jbuhlW4CAknYLwEuHU/ED5D2MV5kcge1bkA9h+8BT1F1SdWvVwv75nf9ukZtv2Cj/ficiRf1DJkL81lWgsjRjJpJ3GNaAXTE9sRSSdw0sTfbBLMmLLusiRx/dXQqLOteZBgID9NN7lANzQfY9SIFkze1Aqub6MoT9+veyLfLbpVvkk52ACY6uKFlvBlmn4yAjvz/4yupXZ8IXhQlfVzkXJnyFcSZ8uNcs6n1WiDyDdZrwLcaS0nXdi57bmjIPASXtzLtnCVvsS0/4bdZJ3j9EwWuRB/MEkjd+zOaHvHlzRF56caOcdTYFMBdWJiGpgJPnShhHpCN558CZFMmbngBX00wPCoGr4Hv8+OO7yTj46u7ePeAn9nT3qQr2yvM3QAe+dLP8YhXkaNovY7C2EI6dSNbpJlkHveE3Ak34tuBGbvG98F2B2Zr1TPi8CTIBGB/gFJrwzWAdeD64X1UhBCPDk5J2ht/Ahs2nJIV98SaCV2ObJoK0patnIrh4caU88dgGmM9V4JBnIrhlNdgdCty0MRFEy6i0pRonC2Jml3yIkTDbY6QfvnCOPSpbvv3dPDnkkG4yfEQnYUSghomEt2Z7lXy0apu8sHyrPL0Ftt4olg81SBdIrZtA1rT+ps6AZdMlsSd8RRkTPjR4Mcgas37keZrwFcGED+1nQpsjKBuQ9Ursuglk/ZA55j0PHIgkYJraAQK7PuHtoFPaBfyQ4ywCsD4BmNyEfCKxodSNv/xMhmGuyEcfbZN7794gz/+1RgZjajk99G2hiWC6PR1sj8+qeX2gzejE+JrkImZLzj83LLfePkgYDYj9YoJwKk8j1NcPFmzwikFXPRyZZLgRhbwz66o157T1H3aT7dsLE75f47RbcFvhSdboi9SEr61vZgqun24/yxR0seNW6f9wSc4gaZK1ewoWtyLvYiK4syIqr7+2WX703c2yDiqIfYeHpBqTcirWg/jSSd/NjjDhyaX0TdVJFzgPyc51ZfaC6C4mfyTlS98pl/vXVWByTZashVSNyaJp9z4yffL/xEz40Hp4GvS88PWFFz5vyn8CE75XcOq1uM+zWAXus5rw+Vi2x4UZRW6PHdM+Ucq0+FnMiTdBoOEXgct+yFchb6aOG8dpIhjtnBeSU7/ZRz5bMlR+dXdXM1NxEWZTMlZlNowKjZVJOr3iSbxoTwQTI6nSqaB6HgqOEHTT8YlbXSFZk6bNLMY0JWy2ky8YGM0YdQgD6R6Idr9RF0i3G8mYXxCMes6uUx3yBfKp2DoReRbJGplHzUsaxzS1QwSUtNvhTW3YJfyIqeOmgEapuwr5DpSZiPwUsg2LC8rSNBF0Bg4My6WXDYKL1MFy3jk5JlblNphS9B7uuYBDubRKvhakrk3owy6Jqga8dpA54zG9UkDWXbDiBdJ1ZLkfSPe1qUVyjB9IFzePg4i4j4asMWQsHKtgbMYXcF+DlzIGmzXcV3rd4eS3Rkk7+ZimbY34QccHGl6G7TPR2COQ30WG1B0LNDx+Qhf5ze+Gyhuv95XRk7woNF36QmpFTjupG43PtESy5guEo8MMpLseg6tBIN1FU7xAugy6AG0OBXBK13yx8vf6NPIk3Lvbkav8F7F5KWO/pg6AgJJ2B7jJ8V3EDz1eZULJ+7/Ih6HMecgrKMkhc4AykgNPdscc20v+8eYweeShHsZio3SVY1QmYUyAUfKOR7Z562TigQCaqQyTe05FQIL3Dhoitxw6wrhNBf7gY5K1IWqqQt5DPgL36gfIS3EwUIV4HxKsSFOHQEBJu0Pc5l07iR8+pTNK3kGg4UdRajzy3ci1JG8sTaDh3gjEe+4P+0vZwqFy5RWdjMpkCRxI94HKJIRSRiXh8Q9O0dQYAoSIZE0/3iRsmvDBNbg8P7afPA1VyMExt6m0qcftMfdgBU45DxuHIv/Xv19Ua6sqpDGg2/l+Je12foP31D38+M2EC0puWMfgpHUFzjkA+WVkeg6EvtR4EXQLizrJrbcNlXff6S+nnBCCj5CIhOAvhM6ejNS9p4t10OMBWdNJDFUhqzGhh4TNQLqLpxbItH36SR5srqG3JqcHsRkxn95MPR+Pe/Io7g/9pvLLyOi2OyiU2m0gQGlKkyJAsY5WJuQXEsNsLE/G9slY3gqJb18ziMfP9ZBkHXJoD5kwoau88somOQ0mgpidIsUjQlJZgcALMIdOSxPBNrzHBHUIyHpR1JHNmC5PE75EXvggPge/x7/jlGtwH0rYbNwHvlBpEaKqEALSwZNK2h38AYjvPoghXt/NT/CXcHwy8pXIxkSQulaaCHaBy9TvnJaPKOrD5PZbu2CSS0TK4Wg6fwS+6cOq7w6ka0zgNNHdacJ3APyaBCZ8dJsKMqZqKd6Ebx5wPgW4n4RcQrJGxqqa8AEXTT4CStr6KOyCAEiioYngnSjEWZVPUtdKE0FPZSLO4CFhxHocJJ/OHCRnnpEtcxZFpBoOPBjIN+3s63bpafJ3BGRNEz6qQmi+t4ImfKN6yWtH7WLCB0Y2X7ub0BK+GCcD+5dA1GrCl/xb025qVNJuN7cy+R0BgcSbCC7H9lm4yuHI75BskI2+G9vupP26yu8fGib/eCVf+o0SI3l3H0hfIR1D6iZZNzThK4N0fRVCmhkTvgmDTOTzBiZ8PO1J5InA9k7kahA21VNqwgdQNCVGQEk7MS6610cABBKvMiGhgLAtEve5yMt9SdGYCIZzbTnu+N7yz3eGyW9/013mL3Nk4WrfRBCONNqziSAJmxYh/EHRhO/rxoRv8O5M+P6LoocBy7OQl8epQlRvDWA0NY6Aknbj2OiROARALA1NBB/DYapMqDqp8cnbmAj27ZsjP/7JAJn/xWD56cW5nokgXL/SRBADmZ5IikWmJ4rJgQkfw33RIoSuU58f21f+EG/CB7018AGERhWyDKedg40jkN+lZE11CNbVhC/TH4hWar+SdisB3V4uA3JpaCJIXWxCE8HRY/Lkrl8NlRn/7i9fPdozEeSknG4DwNsUTTM0BWRdz4SvyjPhWzG1ECZ8/eub8HlkDYe3QvcBE4Dh4yBqNeHL0Pvf1s0OTIzauh16/QxDgJIhiQfNpsqEpmk0ETwJS5oIFgcmgllZVtYRU3rIpEld5KWXNskZP9iCIn7gBbjbq8QQXKaZCLLTngkfAhHvrJXzYMJ3YXFfBNLthiOQvg0wVjTOhI+Ouq4DTnN4HIfVhI9AaNorBFTS3ivY9CQiABKK13fzE58TcgITwU1UB0CihomgG+2G6DKnn9FXlsCL4I3X5xmVyWIEGKYXQQY3MJI32TBNUyBd04SPQQk8Ez7LmPD95ogCQ9gg45gJnyddk6Tpge/rJGySNfkcSb3wpel9zoRmKWlnwl1K8zaChOJNBKuxHZgIPgHihomgVWciOGxYrlz7y8Hy8UcD5bvfyTLkHQWF9RoCJkxDlUlA1vEmfHVe+Bo34duIW3YF8v7A4hUQteqt0/wZzqTmKWln0t1K87aCoOJNBFdg+2w0+TDk/1LqRq4zETzgwG7y6GPD5cUX+pjo658viUiPQYjWgog06WBlQrJOZML388CEb2JgwmdaG3jh42kcoKUJ393INSRs4oLMMUtNikCLEVDSbjGEWkE8AiCneJUJCetd5CNQ5hzkZSRvLI2JYKfOtpx8Sh/5YM4wuf++bvLF0qiUrfFMBHM6ty15k7AZSJcsHPPCN1hu2sULn4mmyT7NQD4EfT0XeUWcKkRN+ACMpuQhoKSdPCy1pjgEQFwNTQQfx2GaCNKCAioUQ97GRLB//xy5+JKBMnfuEPnRBZ6J4HpEojGBF1rxCQ2ka3rhownfEpjw7YCeehcvfPVN+JaiP2eiv0civ6+qEKChKaUItOJPIqX90MrTFAEQWbyJ4BZsM9QZTQTp16SeF8Hi4jy5//6h8s+3+skBB3uBF/J6I/BCP0jdKdR3k6ypu4DDQmMVYrzwwYTvLnjhW2ZM+Bp44fNeOAzgznibNOF7CmStJnwAQ1PqEVCTv9RjrFcAAiC2eBNBWlWcAqI7EWRME8GxKCFwRBXJzrGyjjq6p+yHafEvvrhRzj6HJoIiYwtDUoEJOpVwKphsE0GSduCFbxO88NGEj174xsGpE5Mx4cPLJ86E72/YfS369DmPUxXC/mFVVSEERFNKEVBJO6XwauXxCIDY4vXdNBH8OwibJoL/h7wJjqjqTAR79sqSs87uJ+WLhso1V3f2TAQ3eiaCIcToMpI32bYFEjhPjQ+k+yUE0n0TgXRpwucTNvi4nhe+WTjleLT7G8ifk6yRsaomfMBFUyshoKTdSkDrZWIIgOTiTQQxBd66C0ep736cY3/xJoIjCjrJDTcPkfffGyDTTvVMBDn013MwGJs6DRJ3MxKL87SuWKF0vaImFkj3H5h6/pW4QLqs1te9w0u4XIZ8INr6KohaTfgIjqY2QUBJu01g14sSARBgQxNBWpgcivwfkiWyMRGEBO5++eDu8sTTw2T6871lxw7XWJr0hG13514QtsnCu0t10rhbL5AurUKu6pcnZX4g3d4mkO4uJnwPo2rqre9BriVhs93Ie7rq7lqkxxSBvUZASXuvodMTk4EAyC9eZUJCfA95Cuo+G3mpL+kaE8G8vJB8c1q+zF0xTO6+s4vQtnvRWs8RVRZUJntK3SFZU9IOTPje9wPpFvbqTHULNS60t+ZvgmM9/0L+MtpyPvIqqkKwbV40XGpSBBQBRUARAAK+6sEoPbDeA/k25Cpkpkg06lA6N2n2rO3uuWcvBtd+4Q7rXer2klJ3xXKvKKbOm8TFNe+jzN/muPIX5BfnutM/X+PuqOG4KBIKoCwl6CAtxsrpwc3AulGFBNu6VAQUAUVAEUiAAMiyzrIJ62ORX0A2iSTrIHGjqirqvv7aRveQAxaCvD+vR9oswUI/e6fcledmufd+vMxdua3S1ME/OE7m9tnbrcD6TcjG6xOWjB5DR7KaFAFFQBFQBJqCAEiTts/x5H08tmcjmwSpu05C3rChxr3/3lXu8gaSNhn5oVkr3Y9XwtO1nzCjh3xedy52T0ceE7QJ63XXDPbpUhFQBBQBRaCJCIBEKfWa8Rcsc5AvR96ATGnZAXkH0rIbiRgBnIdMimIzQor2Etk6nqw/xe5jg2Zg3ZjwBdu6VAQUAUVAEWgBAiDVOnUF1gchP4psEskYuU7fHewPlpCuSewBe6/F+iXIRqLGUvXWLbgveqoioAgoAo0iAIJtqDI5GPv+jRwkStIBOXOfEbb9g9z/O+T+wQWwXvciCPbpUhFQBBQBRSDJCIBs6w0UYvtM5CXIQSJ5x6tC3sL2l4JmYF311gEYulQEFAFFoLUQAPlStRGYCHbH+q3IMRMR112E7e8G7cG66q0DMHSpCCgCikBbIUAyDq6N9X2RX0S+HRmeuY39dz3JPCirS0VAEVAEFIE2QgAEXU/fHTQD++sIPdinS0UgUxEwn5WZ2nhttyKQCAGQdOCegc83nVPVeR9JVF73KQKKgCKgCCgCioAioAgoAoqAIqAIKAKKgCKgCCgCioAioAgoAoqAIqAIKAKKgCKgCCgCioAioAgoAoqAIqAIKAKKgCKgCCgCioAioAgoAoqAIqAIKAKKgCKgCCgCioAioAgoAopAMhHQaezJRDNz6uJ9x1TvaX6Lp3PJqd6Ov6M5C9aFPM1/lppa17Q4P9bTo028IK/jT1Gfvqf2NmgXr2DO4Xk6rb2JgGsxRUARaFsEbJkWT5YNG2OOBX47Gh5suG3JlCm7ccR0Petpal0N60607b8U6h1KvG+37eL5u8OgXv26oQikHQKJHvq0a6Q2KAkIkKynexJt3oix/aLZ1jiR0CBhMAHLWWs7VkllWckKc6W4so1cmVKyJx0XTO6eG6qZELXsYSFHsl1x11uRmjlVS+YvSVAXnzdXiou7dIpmn+Q6kueIu61m58aXZcWKSlM+8R9zXs6YyeNsJ/plFomKO6u2dPbHWPXq9M7jS8L7WiguzsmuDo3NsmWUuU7I2p7tREorFs6bY073zuNZKnUTBU0Zg4CSdsbcqhY11JBseMyEUW5UrrTEPR619RPLv/2Gttwt8Ib3VlQit9SWzpuN4zFijr80pdgZMyIydFzP3Bz5P9e2TwPxD6tfl2wDFb4NQr6jtqzkQ5xOMg3I0c3dZ9IwRHOcbdlWd3GdNVkRd8KORSXrUCaegOOuSsl4erTTqAlXuXboNh5AON97q0tnX2q+HMzLyCsjkydnh7fWXIiqzkKpYrHtmLSPGJKWLZ/h9N9UlZY85V8gRvT+Dl0oAumMQOyBTudWattaggDvcTS3aMLZEnVmg5jPBsn2MxWSRk3GH9ft7oo1zXaz/pc7evw5PAeZxB2XQIwg7OyREyeGw9b/3FDoKnGcYV4dKGZomXU53UDTp9iWfBAeNeFSHIH0e73/hgCd1tQ6cHy93Y1CXnZk+w5rpzkz7kIJVx1Hqt1oRHie5bieZG5U6D6pF40fnLs98q4VCt0D+seXBFrBmk02fxAIQfZ3LfvJcNH4lyjx4yglc/0dAARNmYGAPqyZcZ/2spUkM3Fyi8af49rWYyCvXHGiLqRP7HbL8ecVkPVrWF8mdsgyx1wH59iP5o6a+AMcj8bpwLF/ejSnaEIxmHAGqLdAotFanIdisgaXeUss9yXs/1wgzooDknTdiGXZvwqPnHgFSNuBFBzTgVsWTgSPowAraFKycQK/Dkj/tn/e5HKcPz2aN7y4Pxxnv40Xz4Eg9mqvnLUVjfgPSr+Avn+KJRqFk6ORKhD7SeGa0AusCZnEzVo1KQJpj0DTfzBp3xVtYAMEDJnlFE3aFxEUHzSEbAjP3mA5cnp1ZZex1Qtnn1hdVnJcdahmrOVGz4IUvhlkh1VKwO6D4dHjR/t6cDJzVIqKwqjiWdAb1RoQdxldwPlFtZ09rnrhnGOqS0tOqR7UcwII+2so8wXIOwsEWgsyvzO3cMKRMnNmbYM2Jm0zkh16BOqWkehnNV4kYdDzQ7bjoF0lU9DPU9HPyY7tHAR+flPsrFw3Wltl2aGjc0aO+4VpxJQp5u2TtAZpRYpAihBQ0k4RsGlQrZEcbcv5Ocgz22uPtcGNOkdVlc1+RlZ8QPUC778tCxZsr1o458moFZ2KkzZhH6RxqxNUF1eb84qKjIQctvLOwn6QsgMitkIYwvxmTWnJrVI6c0NdXTNmRKsXlbzeqdY+GNWUoFw25VsEArvW1JXsP3gRhEeO/QqucwJeNjX4ighbrnMziPqCykVzl9e1C5I0dPWf4OVyrOs6fwSxg7gjGDe1Lu1UOHaI0dOrtJ3su6P1pQABJe0UgJoGVZKwo51HTxoIVjoG0ieo2aZcfHlN+Zw5lJj9NlIt4KkGsM8MQFryM5blOdBFHNdp1KhBUlZWzfIYwPweCJt18SXw65oFc6gXzjGHvHpYF61DcrYsmbUFCuQLsIXxSOpK5PDsogmTsBQ3Jzu5z51rf4v1grhzoJL5F15AfEF4L6T4dvmmgDV29fkot8ycYds9nFDoZJ4eswH3tvSvIpCOCCT3x5OOPeyQbfImoDhuZF8wWb4RIF13cVVkx4sGjrKymgawuCBms69TJPslqDeWmnNE8p1oLgf0xFh8iIwC2YF13QisPx41dcybF8GSpBxL8+bVUBdeWTbnA+z8DyR9CxJ6KGQ7+5tCCMAbK8y1rvU3m7PFl4blHmDaBd0NGvKYOX3KFD7bfInEEq1eYF3CLwvs/DNePlhAC+66+CrQpAhkBgJK2plxn5rXyinrPVKMWgMhHlMCBX25i6S8HANzZnCyPsl6tXOfvbl85lbIqOXmHJxmhewhPGxX15L8u3j7reU5dhYGH01KVBfGBv2jNgcm/XWxBgVr9Zfk0L1LeSK90Lpu5mzXrZGIM8+sz5hRn7CD6mcWmP34ivjCO4e07frtMjMmg5K6VATSEgEl7bS8LclqVF1UcvAambuJybUoPZvkOo7RZ9fWj2gOA5Jo0+pzpSKoy3GtTn6lONeI7FS5ZOVFc5v0HEJAj1mf+J8CrpML/q17LTStTWwEbLaDdqElVPEwJX4Becf0ryKQFgg06ceSFi3VRjQdgRn5hnwwULjSV2dQ2i7khBiax6GiPZBbnPrCgq0JUpa466BHwKQZVO24Q6rFNRL4nvTAqClGhP56p9rsTVBzGzJ3XXdQTSg00O9c4ufR/3KwrahR1bAsKl3L5c7arZugM8cXBBIHPbOssWbdU4+Y1Sb8Cdq4B1yaUJMWUQRSjEDiH0mKL6rVpxqB6R7R5rhzwG4gN3KSNTw3x/qGuXJRUTB4uMeGGKs+lDKWGI5A1QFeg400zLovMCcbO2kz6JeQ8BI9YFTBQM09y1e1ZNmWe4apq7iYZnf16/FnYHYqPGCI61gnmIFQvDii0ehH5hwOkrrWx6Yu7IfQ/SOz36hHjCrIbOofRaC9IJDoN9Ve+taR+wGWnhaqmDePeueXzQQYTKrBzruNBYdnDUIm5/2P5Zh0Wp84fSQxneVpM3jnODUgynM5ace3veZLwrwZsOS5yJ5+2Lw9/PPjF5C0nzHbjoMpjvLTnKJxJwsHME09JFtMl2fbOHiI5FjVD4GYe5CcIbB/Elk0F4OcHimjXX9gGXwFwBTRPhQTgK7jKXFfFbE+ei8ZzvVM2EdTj/5RBNIYASXtNL45LWuaR5qYd3gbyGwb6iJJdQfh/Tt31PhzZfjEHtgmp8ayT5Bgvzp9L457CdYgxl+H47wL4oZpnROB6uNRTAe/G9PeR/imfyxL8hYZPRpjhI0kSM+Y7PIy2vUGXigk5ygk+r+ER46/BOaIGFSkCseQtZMzeux4XONtSPdfwzVrQMps3fU4x7sOiB3tegezfJ6FfUq2OJFqFLkhZ+SEx8KF+xWhHPsd66M/wQfUX4X9mhSBjEOAPxhN7RMBEBWIdsH0xTmjJpwJi7u/mUmMIt0wc+aRcI77Cxk5YaFvQ+0hQHpzLcxzdydjggrojtoKP5VzujhmRTrRs7D/fRB3PlQVmMwSugyDlefn1mZ97o6aUAEqRS1uN4m418C4+zWY02HyOSuOS9u3mx1WpPZ8N5T1Ierqbybs2PZ9Yel8sYwc/ynaUAE7wWHQnx+MGnPM8VBWjhWN3lZVPudVT8qO6eeraq0Lw9nRSZjtuK9H3KGzxY58O1w0YRbaswP6eE+jTkFdpMZxnSGG9sHwmhSBTEJASTuT7laz20pSmxaqKZ3+Aoj7VEizT0FS7Wom24gMxzpz/VpBaSBa7gPnupiEAxmWyZjKFYSqF00vC48Yfxh2PwfJdj8QNoq5XVDoQJQFn4Poo5FbqhbNeZ2n4ZpmZg3X65Kpa2aoavEXS8MFE47Aac/jvAmYrckqCnBSgeFWXpltYRttK9t1ozdAQr8ee9FKT2/PEsi2YDJP1vDio6I59nMSyj6SLyicm4eSh5jiPAX/Y8lUbvqINu76ZRErqGuKQFoh0OAXm1Zt08YkBYGAuGe/AO6bACJ7GKQISxCfxEhkDTOdQHE6ODQXsO7IjTXDq6t6ccmC6m7ZB+HYZThWgsKexz3Ug6nhP61aWHINJteYZws0vGuaZnaRKEPV5bNLq92KLzlRBz5ArDK0q87c0JSybKh23FdR2WGYMn899rG1TGTdIPEyoYol89ZUlc6eijZciKNzUBfUKSjesH9mG3/8PqKT3YOKdKkIpDsCfHw1dQQE4gIbBEEQICT3822fSYD1nwVIyCEYQcPn3zs1pXPm+8cDoiQh+3w8JSt71NZi260dHI2GtkbKZ79rypK04ecaEv7tqPhK7CPL3lFTOvuqONUGd8fqmjy5c6ct0YnQwQxF2TBm028UJzS/etGnZSzY4DxvV/2/rIttdAV68+xV6ydZjj0cfezs74/1kZof+MVCr7Ntx11dbVQuBoOgjyigSRFQBBSBtkUApLZXZnAxsou1H/sS1kXiRPKOkbThU9tl5nr8MW/d/G2srqAI6/TrDXbtbpmwXbs7QY8pAhmDgOq0M+ZWJaWhkI7N/HKSpC2ctDLDr3cKllznkmkG8hQuZ1Ci9qVqrMUSJFIzEMg9IFQG9jV1741+uH5dgemhmSRkdNeJrh9ryS5rce0K6tqlTNyOGTMoXe9Nu+Mq0VVFoHUQUNJuHZzT7SoeSc6Ia1awHix5KH6d242n4GXQeImmH3H8F0XTz2i8ZDLravwqekQRaEUEmvHJ2Yqt0kspAoqAIqAIJERASTshLLpTEVAEFIH0REBJOz3vi7ZKEVAEFIGECChpJ4RFdyoCioAikJ4IKGmn531pN63SB6zd3ErtSJogoL+pNLkR7bUZMCuBG5Ggd3RookkRUARagoCSdkvQS/9zYTudcBJ3q7UcDcB0ePiMwtR4+BPxpsR709jj29Dm7YxvjK4rAumMAH8smhSBVCDAZ8vNKZqE4MKRkd4FnIU1ZfM+x7o5loqLap2KQHtHQEm7Pd/h/OIu0jsalp3ZMbVEtNaWTpEdiL4OD3cpT4nIedd9BQXdpaZTCA6c6hQpcMVqyZf33Ur/JSlvpV5AEcggBHRGZAbdrGY0lWovJ9wj6xbLyTodfvq2wJMdXCRZjmXldkWM3h/DLd/zKOO5TWpGxc0sShJGWzjFnckEZoi9QLgLjp3Cqzb/DS0ZC/l7J9ppVHaWlZUVnf35cbUis1HK9IfFNSkCHR0BJe12+QRcj15dj3gG0gvK5J7wb93TuCjFOKBr45Y7Qq93SFQuG38hZitFf0DSu7kGAyIguC/a2RfSdZ2vQePSO4pAvV7SL8IU3RytNvMQMFJN5jVbW7x7BK73DruC+ItGsMXS0CCXFLjrS7u7ryy1R7t2pXUJYk6ySS7bhzeLn207aGdMbZLa1mjtikDaI6Cknfa3qAUNZIgtjvmZEGBY8ZYtqDDFpzaUp+EIO8VX1OoVgYxDQNUjGXfLWtLgNCVBy80yIcUcLINEuo7J10reAS667PAIxH4kHR4KBaCtEMAHwBZobKpcy6qA/QiMuo0SxxabgR5NitF3WzVSr6sIpAkCStppciM6bDNmzIhm7TP5G444OXZNlqfDhrkfRevqTtE1Pi6BbrvDwqQdVwQCBJS0AyR02VYIuDu/mLm6rS6u11UEMg0BJe1Mu2Pts72N6axVLdI+77f2qgUIKGm3ADw9NWkIKDknDUqtqL0joCZ/7f0Oa/8UAUWgXSGgpN2ubmcTO+Pa3n0v/pzT2PeUG1ZKVUaDc6Zxe3fPEs/hcWRTtqE6JNjfoF4amdelBNdlO/Z47boKmrjS1OskaHPCvjXxsrsthjaZuuPwSXq/d9sAPZg+CMT/KNKnVdqSliJAgnRyRo1/0hL7BxKNRkF/Idg9RyUUCtmW++3KBbPpe6S5ic9LU1UZLGvDt4iF6OqRBBdqbl17um5z6kvQnKTuSmZbkllXUjuplbUNAqrTbhvc2+aqcGhNC2hMYv9SuGjCFky16QKfJI2Y08Fq2nEj1Tuz/yWrZu5Egw15dB0zpnd1NHxE3XmcZ+k4WZDdN1ctKPkPykVB1Fk+UUexFCkqCudGsgZYOeHBUdftZ4fsmVXzZy3x67RyR40/0nGlB7z8YRq7uQ5eDa5dU+38W5bN2YxybqfCsUOiodDBcHZViUN8KaFFURC5HcYV59WUzZ6HPeZlZY41/49HjuPH5+VUWceg8thLgn2MOtm2uOuryuawj5JdNGGSFbKKsIop+GizaUsoRxx7bs3CT7/Afq8+Ft77ZOoIF0wY5WZbE1CNfy22R3KybFmys3TWJ9ifjGvtfSv1zFZFQEm7VeFu84uBd8DRlnUpM3/pCQVn0hUtpeF1LzenorhKZAmIOEQijtSGxlhZ1l8FLGsSFwhw4DrO5zJ58gEyc2alT9h2eOTYo1DJN1DgS262OxJl8uws+IByI+firMfwyW/L5HLb3RZ50LLtkcZhlFeruX52yPkSvPx9XLfLlYdQV3fL+E/BXofBFdAly5klU+QAmQFfK3ub/P6FK5wLrOycu118nBgqZH3oK5wOonmRn2PrP9wFL7I/sazQOW4UlyRW8CTLYA94Z92EP9eZvklL3coCH9QBH1+nupZ9W+xade35E651GpyDoQHXx14y2Kmp/SLAp0xTR0OAzqOcKOaz7DYTlQpEnKkniUfsUESibtSc6+J814lgnWVrDGGDknNGjj8N0vNHUH2/CSY7H8cmQnLOwzLioizkY59c4f3POIxyq0wdrIt1OijEHMK1mIqLcyoXzV0Oz1J3mW3XqcFxXtsBkdWCNCfmrpgA8kKilN/85KlwCiZ3x1vgIkOOpg1oS9TrnBupXVSTK79G1SBIJMeqYl/Qr1qvLW4tmgMHisAhyYl17notQORaeJ8yXW/+6p+OgYCSdse4zw17CeKxcO8byZYnZoMkd3k+sowqAPu9MqwHIib1B25VuGhsQXjU+Ncsy34Ovp72J6mCjEHEWFKk57n8v6sjKG8/KzL1GTUHRGjfV0p+vnlx5Lihh3HyahTJQX0oa8pBzEfVllxqCDux/rxh/+tvU8pGCodqfwARehjqi6B27AM+7JqByXpASkoqoOrhtZGIDfvit9VrD1vEdiU7EZfYtcw1eZk09SWT7N5rffUQ2OVHWe+obrRXBPApTT1JIxlyOBkCtGDIcvcggLxAmtAAF0Kqfges9VUz8OkRNZ8vSr7ec2Z59YJ0G/mUNyRENqqfZsxwSMg7yj5bj0s9CGLlcSPeY2kbqdxI25v3Rtr2pOzRo7uirosNJEF72X9EY8C+xdV218d5URk8OLiu2az7Y+Cq29IVRSBlCChppwzatK0Y9AKJFqOBjWcoqQ0xWl3wWb67Z4QEC1kUVCqSj+WAOkuVeOKDWsSUs6xsBviFaOxLq03GiMRqyDLHtX8PEl1jyJRvFiZ/gLWBtL0r+Se6XCBlO+GzIFEXGik7vu2UskXulwXvbfck+fxGXjiJKtd9ikDyEdjdDzL5V9Ma2xoBj7BFFoDuZiC/mzCL+w5k8PfR2HdBsb7edLdNB0GSuClyU61gEskNagawnh2CtG3RAqUEA3wzsFyMzNRUAmQ5NyZtW79rgrQdtMNcqJE/TZOy3Z1PmPP54tg1knwjVetuRSA1COzNoE1qWqK1ph4Bqj1sOwQjv5uqymY925QLVgeFZszYE8HGS7ZUq1Cap2phPtQXD7m2+3pN6ZyF2B+oF1ie5ZouOMRJ27Vu9Md4IfTHe4LtoqxNiT/Qbf/Rt2DhNRpvd2Ax4uSeiboKjf7dU+fgNKpG8LnhOvcjCPI2T8qe4Q+g8rAmRaBtEGj6D6Zt2qdXTQUCtuO9rD1LCxLb7nJzW+ARMVQwlhO9sbp226TqspL7QNjzUREJO7hW42Ta+BWTKW3HSdnuJSBnXjX4PcTpsqsfN83xXxiNN02PKAKtg0DwkLbO1fQqbYxAnbWBR5gzjH6W67vLzWkz66FlCQR060RMRPmlLFlSZaTUGCEG12pOvbGyPnnWtFS3XafLzj0TAnViXbYLE78FCzxd9u4k9ljrdE0RSDkCStoph7iDXQAqbNdyv1O9cPYrtK9G7z2JtkmWKE3CykjbQksSx9qdJcl3TG0+OTeo2WtTcXEXcPElnqFLAilbdqqU3QA43Wx7BJS02/4etJcWRKDDhl7ZuQeqkBcxOzJb5s3jRBNK1slNgbQt9oO4XmOWJJc1qocOpOyarLOg429cyg502anoQ3IR0do6EAJK2h3oZqewq7RK4aDjiupI6CZznZkzUzlo11xpO37AvZ6UjUFSNjf4HcR02dJJpewUPjBa9d4jEDyse1+DnqkIeFYp4G3rWVkya4uvw06+hB2PdCBtu25T7ba9s5ssZX/kWYyolB2Puq6nAQJK2mlwEzK4CR4x09wOEqsVtf5u+sIZjKlPnrS9qGTdbnTbk3JXbA5025S246RszH5UKTv1d0mvkHQElLSTDmmHq5CqERtS9iorUl3u9z61UnYAcXOl7Xgp27KKYNdNFU7wG6BdNuXqX0sZpGwxjqdapx9Bf3SpCDQBgeCBbUJRLZL5CDTm86NFPTPEhmktG3b26by1RTU1/+TmSdv8AjAWI436GFlSHeiyxZs2v5smJSb01vjG2E2j9FD7R0BJuz3f48S0AmnSasoU72Ygg/kydMu/dWsw27EZ57awaFOlbQRiwJWcMC1GGpWyXU/K9iYdNYae12CqhBIkGxEaEuxu0S68EJvrq6VF19OT0xuBpD9g6d3djtK6aYZQoLWoSNRjkEDvRPtbto9uVdskNUnazrE7f91rnXtpI7MfIWV3fsyU8V8ECXsDF+AmWVZlItpGvJ9eCc/bm51T1nv30bV67M3pek77REBJu33eV9Mry42u9lZ8W2n6hkYCae9r9vukYNZb/mf3kmnL62+8hj1J2+ix5Vrnh0eOvxgvsuGIHsAvguDZ93XZzZCy2RLXWu2j6rXL0CsgcN3R3o6A3b2tvfob+HtxHb/OvapFT2pnCAQPbjvrlnaHCICNGKswPnm+r8X6siAWYpxTpfgymbi+J2kbZOocjo79Cq5m4z0RAiJjX940KTseGddZwNdfnLTtYWvJxLziA/qjaOBnJf6s5qzzNRDtOmpyHwyQTjZfB3DB1ZwKtGz7REAfgnZ5X6cbqReBZ+fgx74dXaS5G/eBWBBCy7LGhHfKUV7XpyRZv+3V2up/dydte40hqXpmf7HG7YWUHWArc4EoB16JH7Gll8EIYjn2i1ZXn2AukXgKvTm0xz/+ubVOzbG4X4P9r4O2UkHtsblaoPUQUNJuPaxb80q0YbCq588uxXKW73u6gV2D9X9eg4xNdXsggzhpW37fwN92Iuz3VsomjjYizy/G8rMG2OLFgNCVDH02fHhuC75kaE9OST0EHflleBnwldAe7lGi+6D7momAknYzAcuc4ozkjeTKH/1veEqDSDBGZrBa2zokp2jcldhBMziESG8HqU7aRkgyx1lrVB+eFJyoc3shZQfVeAO9INPn62PLLxnGl7T3CWd3u9GUnjy5oXQfVNLY0vLvh5s7asJ1qGsSXgTx9uSNnaf7OwgCStrt9kZPN5J1OBz9M370K3wC86Rt6kbB25gQc3tO0fhvGsdOnplbpqtKYtL2rrEk4+/03krZfh0ettVV9bD1X4pQRTHKvWVdkTtq3A8Rob5WhC/QaU3BNiTTUBaOtvBC/R4E7OtQF+sl8WtSBAwCStrt90EwBLZt3rxN6OJdFLCRAhUJP7VhRMLJjPJ8uGj8j/1Pec+qIkbgmfd8NJS2BQONu0rbgZT9gJn92BS7bKIXS97LYQWwdd17fRVJvIMsM60fJtsPwWLlCpHpwJUZL8v62BLfYB/XozJ9ejQ8asKFeKE+Q1WLJkWgIQKZ96Ns2APdbhyBGV54rOqFJQ+AXN4FuZDAAnIJiBtyt/1bkMtL2UXj98NxJ47AM5E16kvbiF+MRMIMUryU/ajZ6RN9UKBJS/+c6rI591mO8xEwpIqpAbYO3or2neGR497oVDT+IBxviC3xDfY52YXjJuM+vAyVC+8Xm8E/qssmEprqENDPrjoo2u0KWcsBbZ2DYa2ZEK27GEsELwCvR9z8nLdDJ0FncgJI422UfwOGzfOgQVlXa1XORYxERKJhRNsk2B63Bsxx0nbYcX4E3usH/gsIkFI21UMxKdt/uTWzaazPYOu41jkwHfnQYOsaG3CqQjxso9GohELHOOIcA2z/hc+bN+GppSTk2ht5vajj9kItY0HPx6CNR6MOjDngHM+8TwmbIGmqh4BK2vXgaJcbDj/Jq8tpSWKfih6CoM009nipMGSIwoXdg2UdDanxLpR9NRSy3+rkhEF4SMmdiGOqTOGfxqTt5EjZsYYbbGvKZs+Dycg3sRuScwNs+XJ0QMIMQGxZR1l26A5xrNcwFvwxM8j5dey/G8tjUMYyg8SxFyqv5EnjsWvqWgdHQEm7IzwAlCRJ3AtnvQUJGjbEbjWkTX5lYZDMfIJTLvSkQwfydTQaodtSx81gpWqctB1nSQIJFo+863pStiTBk1+AbdlsfJ3YJwLHXbH1bLmp5/awdaE2CRLXPbypwqFhXzBgyTKwREGDmYP7FJynyw6LgJJ2R7n1AbmUznkNn+ZfBgfMlVAW9bD8BKfUHRAJSSMgDqw2NQWnN7V8ysvVSdvwbfigIWuRbBDn0mon5zHv6sYWuuUNqcN21quOFT0ML4VSqEQaw5YvS0914l2Z69wXYO6RNQuFsrIwUDwT7X8a7Y8/xztT/3ZIBJS0O9Jt98llZ9nsz6or8w7EZzvUIHB8ZIeyIM2BFIxkTQI3A3cQ+/hpniBxv9ERk2C4zjItYW2ca04PVAHYwDWsFrqS9aXtKpK266wECbKZ90v5zK388mhhm9nnWPKxrS2d90l1Z9kP8NyD9leBvOtjS2+InsqDHQ76y33AHfjzPnj3I4KAww9XlZbsjwk270OlRYhYXlMHR0BJu6M9ACQX2gyv+KASViX/59ouCMb5NWCALTdMLUgYtDLBWB1UKZ2gIaGEF0uug891SIUczPM+3UFK5jEKxwo1Y237dtYfNnXQD0igDrBxDQfX8lL9NjS9+jhp230Gc1R2VHe2Hjan+4Te9KqaUDLAtqSkorp09mXg2P3QB2K7EriiR8A2ZMdjBwyBo419PIYyeFHCEZX7ECT2AxDR/nxeFYW6t+iV2ISma5HMQYDShqYOh4CxGQYRTgnVlM6Yj+5fIkPHXR/OkUMt1znYta19IEcPAYO4VnYOJe+6FLHsqpDrLoOYSH04S0D6i+ZhuVzCYSMu1xVuysrMrq6M3LgEPlG6igtXspbrEbXjIrS7BasVk5pfb3Btn5zdqPUE3i1fCAgVh3iNFEmtPraYJFMzfToddl3SbXDxDdW5oUOh1P4yXJnviw+IAcC3G5toue52jFCuETfyBY59kGNlvbO9dOYGHhP6AIfljgN3jYRakyJABPRJ0OfAxiw8i5M6GkDBZ4N6Vu6PJ01Lhg8PS1aWK5FI7PnJy3PMzMoGlTRps7g4Ryoq7F3qXALne/Wv3aTqEhRiO4M+xK8nKJrUXXg5cMr7LtjiIpN91wGcMdkwcfYkHVN552KyzWX4qd7tmwKG0BOaEeLd6TxVs7DkTJydwpdQw7bpdlsjoJJ2W9+Btr++A8JmK0AumEJN0z5POiXJ1ZOy/aa6smRJlb+enAWmbSenokZrYV9I1swpkrATXhvXagzbemRtCb36zchHOzlFvo7kg8HJhJXrzo6JgJJ2x7zviXpNwojKjESHdtlH8muYSIwtSamoM749bF9L2xhfX3PW94St689CbU6dWraDIqCk3UFvfAu7nQryS0WdLeymnq4IpB8C3qBP+rVLW6QIKAIxBPSFFsOiw68paXf4R0ABSHcE4K9k78wp071j2r69QkBJe69g05MUgVZAwPf3YjuWMQ+Mv6IZVbWsHd4+PyhDfAFdb7cIKGm321urHct4BIw1CUdP3ZH1+sJolGBtzJ9cV2+/bnQIBJS0O8Rt1k5mIAKg5enRHsMn9oCh4mQyNJax3yu13Ja7MAP7pU1uIQKxh6CFFenpioAikEwEYLeNtDPbnYqp/cMhW3OSE7UipOssbFfi7xysI3kR4r11/dveEVDSbu93WPuXiQiAnGeYSUBwH3Wp1wEqRExy6RcGfk3m1nxRMhd7uN+U9Q7r3/aOgJJ2e7/D2r+2RACE2qSAvvXbWFzMKe4OYnf+FJx8iAmM4Hvl4n7D0679N3MSAwFr6lAIBG/vDtVp7awi0AoIkEwDCZiqDqo1gu3GLm/L5MkhRnAPj5x4PFQgL+GU4Fz+Vo0mG460NsOx14TKRXOXY1+wv7E6dX87Q0Df0u3shmp30gCBaUa6droUju+bUzSeYciojwZhc7/x483fHcmWGf5euM87h4SdM2r8d1AckrRLwibRsxxTxAphlyW/M4SdbJ/g3jX0b5ojEDwMad5MbZ4ikCkIkHzhw2X48NzcnG5vwt3qYYjW/iyGEW/04nQ23o/cUeMKHNe+Bj/Ks4y1iEfYnmBFz370uy3uF9XdsvcHue9ETfz9UvrW1IEQUNLuQDdbu5pyBCgZ1xE2hOjDXCdai+AGDHNWCbXGy6DZN6KWNTdkOcZnNnys9oYv8WLLtb4C8+tToLrOQ0ShQLoOfp/cZtAJ/j8c0Wze8STzOm+AKe+YXiB9EAgeivRpkbZEEchMBDypd/DgTrmder0G8j0ChE3XtjDPA5Ez2g8FZSaPlH1f4XYYocS8A4j7W1fWK8m/VK2EEMUdC+cHIOynjTrFRMnhYU0dDQEl7Y52x7W/qUCg7neUO2rCW1BjHOXW1lZBLM6NuxgmNvoDkbGI695hj9Sp5iAz19WFdUZjZwg27LR+lPh+rAAAAdxJREFUWFU66xGVsD3IOvJf/9XfkSHQvisCSUHASNrZPfvthD76KLGzuhmpmVRNziUZc0ZjbFZjoIv29nvRZ0wdhtwZ09jOQsg1dxPieJ5WXVrynBJ2Uu5TxleipJ3xt1A7kEYIWJFNaz/P7pH/J0jbgyEhj8USM2HMxJgIyJgEnih5UjiCSOIggvziHIsROuWvdjR6anXZ3I+NSmTJq1SVaOrgCCR+hDo4KNp9RWCvEaAZnq9vDo8c+xWIyxeBfCF5251NnYjoaww+zBKrUH0YjQiXXHUchnJ7CysPVC+ciyVSXJ1mW/90aASUtDv07dfOpwiBYP4DJWcJjx4/GjL0sbAQORgy9yioTwZgdxf/2ohAb6+BNmSBa7nvQ+39Zs3CuYzizlSvHm+X/u3oCChpd/QnQPufSgSofqRobcjbv1CWDJ/YpVMo0pVqk8qIvV3yc3ZwUk1cQ0DWjUVxjyulq4qAIqAIKAIpQcA2Ko6Y5JzoIk0pk+g83dfBEFBJu4PdcO1umyPQ2G8usCZp8wZqAxQBRUARUAQUAUVAEVAEFAFFQBFQBBQBRUARUAQUAUVAEVAEFAFFQBFQBBQBRUARUAQUAUVAEVAEFAFFQBFQBBQBRUARUARajMD/A3I2yX+U11kZAAAAAElFTkSuQmCC;comic=0;snapToPoint=0;fixDash=1;" parent="1" vertex="1">
          <mxGeometry x="1134" y="901" width="140.34" height="147.25" as="geometry" />
        </mxCell>
        <mxCell id="LB7Hno4nHKk7k6WSY0Ma-168" style="edgeStyle=none;rounded=0;orthogonalLoop=1;jettySize=auto;html=1;strokeColor=#ffffff;strokeWidth=6;comic=0;snapToPoint=0;fixDash=1;" parent="1" target="LB7Hno4nHKk7k6WSY0Ma-67" edge="1">
          <mxGeometry relative="1" as="geometry">
            <mxPoint x="764" y="1183" as="sourcePoint" />
          </mxGeometry>
        </mxCell>
        <mxCell id="LB7Hno4nHKk7k6WSY0Ma-103" value="" style="sketch=0;html=1;dashed=0;whitespace=wrap;fillColor=#2875E2;strokeColor=#ffffff;points=[[0.005,0.63,0],[0.1,0.2,0],[0.9,0.2,0],[0.5,0,0],[0.995,0.63,0],[0.72,0.99,0],[0.5,1,0],[0.28,0.99,0]];verticalLabelPosition=bottom;align=center;verticalAlign=top;shape=mxgraph.kubernetes.icon;prIcon=node;fontColor=#FFFFFF;comic=0;snapToPoint=0;fixDash=1;" parent="1" vertex="1">
          <mxGeometry x="759" y="1133" width="158" height="106.62" as="geometry" />
        </mxCell>
        <mxCell id="LB7Hno4nHKk7k6WSY0Ma-121" value="" style="shape=image;html=1;verticalAlign=top;verticalLabelPosition=bottom;labelBackgroundColor=#ffffff;imageAspect=0;aspect=fixed;image=https://cdn0.iconfinder.com/data/icons/social-media-and-logos-11/32/Gmail_envelope_letter_email_Gmail_envelope_letter_email-128.png;strokeColor=#FFFFFF;fontColor=#FFFFFF;fillColor=#182E3E;comic=0;snapToPoint=0;fixDash=1;" parent="1" vertex="1">
          <mxGeometry x="623.33" y="509" width="90" height="90" as="geometry" />
        </mxCell>
        <mxCell id="LB7Hno4nHKk7k6WSY0Ma-122" value="" style="shape=image;verticalLabelPosition=bottom;labelBackgroundColor=#ffffff;verticalAlign=top;aspect=fixed;imageAspect=0;image=data:image/svg+xml,PHN2ZyB4bWxuczpjYz0iaHR0cDovL2NyZWF0aXZlY29tbW9ucy5vcmcvbnMjIiB4bWxuczpkYz0iaHR0cDovL3B1cmwub3JnL2RjL2VsZW1lbnRzLzEuMS8iIHhtbG5zOmlua3NjYXBlPSJodHRwOi8vd3d3Lmlua3NjYXBlLm9yZy9uYW1lc3BhY2VzL2lua3NjYXBlIiB4bWxuczpyZGY9Imh0dHA6Ly93d3cudzMub3JnLzE5OTkvMDIvMjItcmRmLXN5bnRheC1ucyMiIHhtbG5zOnNvZGlwb2RpPSJodHRwOi8vc29kaXBvZGkuc291cmNlZm9yZ2UubmV0L0RURC9zb2RpcG9kaS0wLmR0ZCIgeG1sbnM6c3ZnPSJodHRwOi8vd3d3LnczLm9yZy8yMDAwL3N2ZyIgeG1sbnM9Imh0dHA6Ly93d3cudzMub3JnLzIwMDAvc3ZnIiB4bWxuczp4bGluaz0iaHR0cDovL3d3dy53My5vcmcvMTk5OS94bGluayIgdmVyc2lvbj0iMS4xIiBpZD0ic3ZnMTg1OTAzIiBpbmtzY2FwZTp2ZXJzaW9uPSIwLjkyLjMgKDI0MDU1NDYsIDIwMTgtMDMtMTEpIiBzb2RpcG9kaTpkb2NuYW1lPSJucG0uc3ZnIiB4PSIwcHgiIHk9IjBweCIgdmlld0JveD0iMCAwIDQ1Ljc1IDE5LjUiIHN0eWxlPSJlbmFibGUtYmFja2dyb3VuZDpuZXcgMCAwIDQ1Ljc1IDE5LjU7IiB4bWw6c3BhY2U9InByZXNlcnZlIj4mI3hhOzxzb2RpcG9kaTpuYW1lZHZpZXcgYm9yZGVyY29sb3I9IiM2NjY2NjYiIGJvcmRlcm9wYWNpdHk9IjEiIGZpdC1tYXJnaW4tYm90dG9tPSIwIiBmaXQtbWFyZ2luLWxlZnQ9IjAiIGZpdC1tYXJnaW4tcmlnaHQ9IjAiIGZpdC1tYXJnaW4tdG9wPSIwIiBncmlkdG9sZXJhbmNlPSIxMCIgZ3VpZGV0b2xlcmFuY2U9IjEwIiBpZD0ibmFtZWR2aWV3MTg1OTA1IiBpbmtzY2FwZTpjdXJyZW50LWxheWVyPSJzdmcxODU5MDMiIGlua3NjYXBlOmN4PSIzMC41IiBpbmtzY2FwZTpjeT0iMTIuOTk5OTk3IiBpbmtzY2FwZTpwYWdlb3BhY2l0eT0iMCIgaW5rc2NhcGU6cGFnZXNoYWRvdz0iMiIgaW5rc2NhcGU6d2luZG93LWhlaWdodD0iMTAxNyIgaW5rc2NhcGU6d2luZG93LW1heGltaXplZD0iMSIgaW5rc2NhcGU6d2luZG93LXdpZHRoPSIxOTIwIiBpbmtzY2FwZTp3aW5kb3cteD0iLTgiIGlua3NjYXBlOndpbmRvdy15PSItOCIgaW5rc2NhcGU6em9vbT0iMjguMjg1NzE0IiBvYmplY3R0b2xlcmFuY2U9IjEwIiBwYWdlY29sb3I9IiNmZmZmZmYiIHNob3dncmlkPSJmYWxzZSI+JiN4YTsJPC9zb2RpcG9kaTpuYW1lZHZpZXc+JiN4YTs8ZyBpZD0iZzE4NTkwMSIgdHJhbnNmb3JtPSJ0cmFuc2xhdGUoLTAuNzUsLTAuNzUwMDExNzEpIj4mI3hhOwk8dGl0bGUgaWQ9InRpdGxlMTg1ODczIj5QYWdlLTE8L3RpdGxlPiYjeGE7CTxnIGlkPSJncm91cDkyMS0xIiB0cmFuc2Zvcm09InRyYW5zbGF0ZSgwLjc1LC0wLjc1KSI+JiN4YTsJCTx0aXRsZSBpZD0idGl0bGUxODU4NzUiPm5wbTwvdGl0bGU+JiN4YTsJCTxnIGlkPSJncm91cDkyMi0yIj4mI3hhOwkJCTx0aXRsZSBpZD0idGl0bGUxODU4NzciPkZpbGVOYW1lczwvdGl0bGU+JiN4YTsJCQk8ZyBpZD0ic2hhcGU5MjMtMyI+JiN4YTsJCQkJPHRpdGxlIGlkPSJ0aXRsZTE4NTg3OSI+cG9seWdvbjQyNjI8L3RpdGxlPiYjeGE7CQkJCTxwYXRoIGlkPSJwYXRoMTg1ODgxIiBpbmtzY2FwZTpjb25uZWN0b3ItY3VydmF0dXJlPSIwIiBzdHlsZT0iZmlsbDojQ0IzODM3OyIgZD0iTTAsMThoMTMuNXYzaDl2LTNoMjMuMjVWMS41SDBWMTh6Ii8+JiN4YTsJCQk8L2c+JiN4YTsJCQk8ZyBpZD0ic2hhcGU5MjQtNSIgdHJhbnNmb3JtPSJ0cmFuc2xhdGUoMTUuNzUsLTMpIj4mI3hhOwkJCQk8dGl0bGUgaWQ9InRpdGxlMTg1ODg0Ij5wYXRoNDI2NDwvdGl0bGU+JiN4YTsJCQkJPHBhdGggaWQ9InBhdGgxODU4ODYiIGlua3NjYXBlOmNvbm5lY3Rvci1jdXJ2YXR1cmU9IjAiIHN0eWxlPSJmaWxsOiNGRkZGRkY7IiBkPSJNMCw3LjVWMjFoNC41di0zaDUuMjVWNy41SDB6IE04LjI1LDE1Ljc1aC0zICAgICAgVjEwLjVoM1YxNS43NXoiLz4mI3hhOwkJCTwvZz4mI3hhOwkJCTxnIGlkPSJzaGFwZTkyNS03IiB0cmFuc2Zvcm09InRyYW5zbGF0ZSgyNy43NSwtNikiPiYjeGE7CQkJCTx0aXRsZSBpZD0idGl0bGUxODU4ODkiPnBvbHlnb240MjY2PC90aXRsZT4mI3hhOwkJCQk8cGF0aCBpZD0icGF0aDE4NTg5MSIgaW5rc2NhcGU6Y29ubmVjdG9yLWN1cnZhdHVyZT0iMCIgc3R5bGU9ImZpbGw6I0ZGRkZGRjsiIGQ9Ik0wLDEwLjVWMjFoNS4yNXYtNy41SDcuNVYyMWgzdi03LjVoMi4yNVYyMWgzICAgICAgVjEwLjVINS4yNUgzLjg2SDB6Ii8+JiN4YTsJCQk8L2c+JiN4YTsJCQk8ZyBpZD0ic2hhcGU5MjYtOSIgdHJhbnNmb3JtPSJ0cmFuc2xhdGUoMi4yNSwtNikiPiYjeGE7CQkJCTx0aXRsZSBpZD0idGl0bGUxODU4OTQiPnBvbHlnb240MjY4PC90aXRsZT4mI3hhOwkJCQk8cGF0aCBpZD0icGF0aDE4NTg5NiIgaW5rc2NhcGU6Y29ubmVjdG9yLWN1cnZhdHVyZT0iMCIgc3R5bGU9ImZpbGw6I0ZGRkZGRjsiIGQ9Ik01LjI1LDIxdi04LjI1aDNWMjFoM1YxMC41SDBWMjFINS4yNXoiLz4mI3hhOwkJCTwvZz4mI3hhOwkJPC9nPiYjeGE7CTwvZz4mI3hhOzwvZz4mI3hhOzwvc3ZnPg==;strokeColor=#FFFFFF;fontColor=#FFFFFF;fillColor=#182E3E;comic=0;snapToPoint=0;fixDash=1;" parent="1" vertex="1">
          <mxGeometry x="822" y="528" width="119.61" height="52" as="geometry" />
        </mxCell>
        <mxCell id="LB7Hno4nHKk7k6WSY0Ma-124" value="" style="shape=image;verticalLabelPosition=bottom;labelBackgroundColor=default;verticalAlign=top;aspect=fixed;imageAspect=0;image=data:image/svg+xml,PHN2ZyB4bWxuczp4bGluaz0iaHR0cDovL3d3dy53My5vcmcvMTk5OS94bGluayIgeG1sbnM9Imh0dHA6Ly93d3cudzMub3JnLzIwMDAvc3ZnIiB2ZXJzaW9uPSIxLjEiIHZpZXdCb3g9IjAgMCA3MyA3MyIgaGVpZ2h0PSI4MDBweCIgd2lkdGg9IjgwMHB4Ij4mI3hhOyAgICAmI3hhOyAgICA8dGl0bGU+cHJvZ3Jlc3NpdmUtd2ViYXBwcy9zZWN1cml0eS9vd2FzcDwvdGl0bGU+JiN4YTsgICAgPGRlc2M+Q3JlYXRlZCB3aXRoIFNrZXRjaC48L2Rlc2M+JiN4YTsgICAgPGRlZnM+JiN4YTsmI3hhOzwvZGVmcz4mI3hhOyAgICA8ZyBmaWxsLXJ1bGU9ImV2ZW5vZGQiIGZpbGw9Im5vbmUiIHN0cm9rZS13aWR0aD0iMSIgc3Ryb2tlPSJub25lIiBpZD0icHJvZ3Jlc3NpdmUtd2ViYXBwcy9zZWN1cml0eS9vd2FzcCI+JiN4YTsgICAgICAgIDxnIHN0cm9rZS13aWR0aD0iMiIgc3Ryb2tlPSIjMDAwMDAwIiBmaWxsLXJ1bGU9Im5vbnplcm8iIGZpbGw9IiNGRkZGRkYiIHRyYW5zZm9ybT0idHJhbnNsYXRlKDIuMDAwMDAwLCAyLjAwMDAwMCkiIGlkPSJjb250YWluZXIiPiYjeGE7ICAgICAgICAgICAgPHJlY3Qgcng9IjE0IiBoZWlnaHQ9IjcxIiB3aWR0aD0iNzEiIHk9Ii0xIiB4PSItMSIgaWQ9Im1hc2siPiYjeGE7JiN4YTs8L3JlY3Q+JiN4YTsgICAgICAgIDwvZz4mI3hhOyAgICAgICAgPGcgZmlsbC1ydWxlPSJub256ZXJvIiB0cmFuc2Zvcm09InRyYW5zbGF0ZSgzNi41NjI5OTEsIDM2LjYxNDIwNikgcm90YXRlKC0zMzAuMDAwMDAwKSB0cmFuc2xhdGUoLTM2LjU2Mjk5MSwgLTM2LjYxNDIwNikgdHJhbnNsYXRlKDEyLjc3NjQ0MiwgMTIuNjg3NzM2KSIgaWQ9Indhc3AiPiYjeGE7ICAgICAgICAgICAgPGcgZmlsbD0iIzgwNTMzMyIgdHJhbnNmb3JtPSJ0cmFuc2xhdGUoMy4xNzE1NDAsIDAuMDAwMDAwKSIgaWQ9Ikdyb3VwIj4mI3hhOyAgICAgICAgICAgICAgICA8cGF0aCBpZD0iU2hhcGUiIGQ9Ik0xOS43OTEwNjIxLDEwLjcwNDc4NjggQzE5LjQwMzIwMTUsMTAuNzA0Nzg2OCAxOS4wNTgxNTY2LDEwLjQzMDU0MTkgMTguOTgzMjUyMywxMC4wMzYxNTE2IEMxOC41Njc0MDc0LDcuODU4OTgyNjcgMTYuNzY0MTA3MSwxLjY0Njk2MjAzIDE0LjAyNzgxNDQsMS42NDY5NjIwMyBDMTMuNTcyNDE4NiwxLjY0Njk2MjAzIDEzLjIwNDMzMzQsMS4yNzgwMzczMSAxMy4yMDQzMzM0LDAuODIzNDgxMDE2IEMxMy4yMDQzMzM0LDAuMzY4OTI0NzE5IDEzLjU3MjQxODYsMCAxNC4wMjc4MTQ0LDAgQzE4LjYxNjg0NjEsMCAyMC40MTEwOTgyLDguNzMxODA5MTIgMjAuNjAwNTUxMSw5LjcyNzI5OTU0IEMyMC42ODYxODI3LDEwLjE3MzY0NzEgMjAuMzkyMjU1NSwxMC42MDUwNjk5IDE5Ljk0NTkwNzksMTAuNjg5ODYxOSBDMTkuODkzOTUwNiwxMC42OTk4NDI5IDE5Ljg0MjA4NjYsMTAuNzA0Nzg2OCAxOS43OTEwNjIxLDEwLjcwNDc4NjgiPiYjeGE7JiN4YTs8L3BhdGg+JiN4YTsgICAgICAgICAgICAgICAgPHBhdGggaWQ9IlNoYXBlIiBkPSJNMjEuNDM5NjA5OSwxMC43MDQ3ODY4IEMyMS4zODg1ODU1LDEwLjcwNDc4NjggMjEuMzM1ODgxOSwxMC42OTk4NDI5IDIxLjI4NDAxNzksMTAuNjg5OTU1MiBDMjAuODM3NjcwMywxMC42MDQzMjM2IDIwLjU0NDU4MjcsMTAuMTcyODA3NiAyMC42MzAyMTQzLDkuNzI2NTUzMjkgQzIwLjgyMTE1OTcsOC43MzA5Njk1OSAyMi42MjY5Nzg1LDAgMjcuMjAyODU3NywwIEMyNy42NTgyNTM1LDAgMjguMDI2MzM4NywwLjM2ODkyNDcxOSAyOC4wMjYzMzg3LDAuODIzNDgxMDE2IEMyOC4wMjYzMzg3LDEuMjc4MDM3MzEgMjcuNjU4MjUzNSwxLjY0Njk2MjAzIDI3LjIwMjg1NzcsMS42NDY5NjIwMyBDMjQuNDcxNTA4OCwxLjY0Njk2MjAzIDIyLjY2NDg1MDUsNy44NTk4MjIyIDIyLjI0NzQxOTgsMTAuMDM2MTUxNiBDMjIuMTcyNDIyMiwxMC40MzA1NDE5IDIxLjgyNjYzMTEsMTAuNzA0Nzg2OCAyMS40Mzk2MDk5LDEwLjcwNDc4NjgiPiYjeGE7JiN4YTs8L3BhdGg+JiN4YTsgICAgICAgICAgICAgICAgPHBhdGggaWQ9IlNoYXBlIiBkPSJNMTcuMzIwNzEyNCwxNy4yOTIyNjE4IEMxNy4xMzcwNDI5LDE3LjI5MjI2MTggMTYuOTUzNDY2NywxNy4yMzEzNDk2IDE2LjgwMDMsMTcuMTA2MTY3IEw3Ljc0MjQ3NTIyLDkuNjk1MjExMDIgQzcuNjY0MjEyODEsOS42MzA5NDA2OSA3LjU5ODM1NjcyLDkuNTU0MzU3MzMgNy41NDkwMTEyOSw5LjQ2NjMwMDQ2IEw0LjI1NTI3Mzc4LDMuNzAyMjEzMTkgQzQuMDI4Nzg4NTIsMy4zMDc4MjI4NyA0LjE2NjM3NzM5LDIuODA0NjY3MzkgNC41NjE2MDcyMywyLjU3OTAyMTY1IEM0Ljk1NTI1MTMsMi4zNTI1MzYzOSA1LjQ1OTE1MzAzLDIuNDkwMTI1MjUgNS42ODQ3OTg3NywyLjg4NTM1NTA5IEw4LjkwMjc5MjQzLDguNTE2ODkwNjUgTDE3Ljg0Mjg5NzEsMTUuODMxNDg3OCBDMTguMTk1MzExMiwxNi4xMTk3MjQ4IDE4LjI0NzE3NTIsMTYuNjM4NDU4MiAxNy45NTkwMzE0LDE2Ljk5MDAzMjcgQzE3Ljc5NTg4MzcsMTcuMTg5MzczMyAxNy41NTk1MTA3LDE3LjI5MjI2MTggMTcuMzIwNzEyNCwxNy4yOTIyNjE4Ij4mI3hhOyYjeGE7PC9wYXRoPiYjeGE7ICAgICAgICAgICAgICAgIDxwYXRoIGlkPSJTaGFwZSIgZD0iTTIzLjkwOTk1OTcsMTcuMjkyMjYxOCBDMjMuNjcxMTYxNCwxNy4yOTIyNjE4IDIzLjQzNDc4ODQsMTcuMTg5MzczMyAyMy4yNzE4MjcyLDE2Ljk5MDAzMjcgQzIyLjk4MzU5MDIsMTYuNjM4NDU4MiAyMy4wMzU0NTQyLDE2LjExOTYzMTYgMjMuMzg3OTYxNiwxNS44MzE0ODc4IEwzMi4zMjgwNjYyLDguNTE2ODkwNjUgTDM1LjU0NjA1OTksMi44ODUzNTUwOSBDMzUuNzcwODY2MSwyLjQ5MDEyNTI1IDM2LjI3NDAyMTYsMi4zNTI2Mjk2NyAzNi42NjkyNTE0LDIuNTc5MDIxNjUgQzM3LjA2NDQ4MTMsMi44MDQ2NjczOSAzNy4yMDE5NzY5LDMuMzA3NzI5NTkgMzYuOTc1NTg0OSwzLjcwMjIxMzE5IEwzMy42ODE4NDc0LDkuNDY2MzAwNDYgQzMzLjYzMjQwODcsOS41NTQ0NTA2MSAzMy41NjY1NTI2LDkuNjMxMDMzOTcgMzMuNDg4MzgzNCw5LjY5NTIxMTAyIEwyNC40MzA1NTg3LDE3LjEwNjE2NyBDMjQuMjc3MjA1NCwxNy4yMzEzNDk2IDI0LjA5MzUzNTksMTcuMjkyMjYxOCAyMy45MDk5NTk3LDE3LjI5MjI2MTgiPiYjeGE7JiN4YTs8L3BhdGg+JiN4YTsgICAgICAgICAgICAgICAgPHBhdGggaWQ9IlNoYXBlIiBkPSJNNi42MTY3NjUxMSw0Ny43NjAwMzMzIEM2LjUyMDQwNjI2LDQ3Ljc2MDAzMzMgNi40MjMzMDExNyw0Ny43NDI3NzY0IDYuMzI3NzgxODUsNDcuNzA3MzI5OCBDNS45MDIwNDkyNSw0Ny41NDc1NDAxIDUuNjg2MjkxMjYsNDcuMDczMzAxNiA1Ljg0NTI0MTM4LDQ2LjY0NjcyOTUgTDcuMzY2MTgxMzQsNDIuNTkxMjYyNyBDNy45OTAzMjE3NCw0MC45Mjk1NjI0IDguOTY2MTI5OTUsMzkuNDM2Njk5OSAxMC4yNjYzNjgsMzguMTUzNzE4NyBMMTAuNDQ5MTk4LDM3Ljk3MTcyODMgQzExLjk5NjQ0MzEsMzYuNDE4Njk5OCAxMy4wMDM1MDAzLDM0LjQ4MDMyOTIgMTMuMzU5MjcyNCwzMi4zNjY1OTExIEMxMy42MDIxNzUxLDMwLjkyMzkxMzYgMTQuMjMwNTEzMSwyOC43NjQwMDE2IDE1Ljg0NjAzOTYsMjYuNjcwODc4NSBDMTYuMTIzNTQ5MywyNi4zMTEwMDIgMTYuNjM4MTc4MywyNi4yNDI3MjA2IDE3LjAwMTMxOTcsMjYuNTIxODE2MSBDMTcuMzYxMTk2MiwyNi43OTkzMjU5IDE3LjQyNzg5MTgsMjcuMzE2NDczNCAxNy4xNTAzODIsMjcuNjc2MjU2NyBDMTUuNzQzMTUxMSwyOS41MDAxNzIgMTUuMTk1NTAwOCwzMS4zODE3MzQ3IDE0Ljk4Mzk0MDQsMzIuNjM5OTk2NSBDMTQuNTcwNjE0MSwzNS4wOTIyNDk4IDEzLjQwNTQ0NjMsMzcuMzM3NzAwMSAxMS42MTQ0NTkxLDM5LjEzNDQ3MDggTDExLjQyMDk5NTEsMzkuMzI3OTM0NyBDMTAuMjkzNjk5Myw0MC40NDAzOTkgOS40NDgwMTc0Niw0MS43MzMxNzQ2IDguOTA4NjY5MTEsNDMuMTY5MzIyNSBMNy4zODg1Njg2OCw0Ny4yMjU2Mjg4IEM3LjI2NDAzOTA5LDQ3LjU1NTg0MjEgNi45NDk0OTY5Niw0Ny43NjAwMzMzIDYuNjE2NzY1MTEsNDcuNzYwMDMzMyI+JiN4YTsmI3hhOzwvcGF0aD4mI3hhOyAgICAgICAgICAgICAgICA8cGF0aCBpZD0iU2hhcGUiIGQ9Ik0wLjg1MTkzMTU5NCwzNC41ODQ5OSBDMC40OTM3MzQxNDMsMzQuNTg0OTkgMC4xNjQzNjAzOTMsMzQuMzQ4NjE3IDAuMDYwNjMyMzgxMSwzMy45ODcxNTQ3IEMtMC4wNjM3MTA2NDA0LDMzLjU0OTk0ODYgMC4xODkwNzk3NDgsMzMuMDk0NTUyOCAwLjYyNzEyNTM4MiwzMi45NjkzNzAzIEw2LjI0NDY2ODg1LDMxLjM2NDQ3NzggTDE2LjAwNDE1MDIsMjQuMDQ0OTM2NyBDMTYuMzY4MTMxLDIzLjc2OTk0NTYgMTYuODg0NDM5MSwyMy44NDU2ODk0IDE3LjE1NzAwNSwyNC4yMDg4MzA3IEMxNy40MzA0MTA0LDI0LjU3MjgxMTYgMTcuMzU2MjUyMywyNS4wODkxMTk2IDE2Ljk5MjI3MTQsMjUuMzYxNjg1NSBMNy4xMTA5NjU2NSwzMi43NzI2NDE1IEM3LjAzMDI3Nzk1LDMyLjgzMzU1MzcgNi45NDA1NDIwMiwzMi44Nzg4ODgxIDYuODQyNTA0MTMsMzIuOTA2MDMyNyBMMS4wNzgzMjM1OCwzNC41NTI5MDE1IEMxLjAwMzQxOTI3LDM0LjU3NDI2MjcgMC45Mjc2NzU0MywzNC41ODQ5OSAwLjg1MTkzMTU5NCwzNC41ODQ5OSI+JiN4YTsmI3hhOzwvcGF0aD4mI3hhOyAgICAgICAgICAgICAgICA8cGF0aCBpZD0iU2hhcGUiIGQ9Ik0zNC42MTM4MTM3LDQ3Ljc2MDAzMzMgQzM0LjI4MTE3NTEsNDcuNzYwMDMzMyAzMy45NjY2MzMsNDcuNTU1ODQyMSAzMy44NDIyOSw0Ny4yMjU2Mjg4IEwzMi4zMjEzNSw0My4xNjkzMjI1IEMzMS43ODM2ODA3LDQxLjczNDg1MzcgMzAuOTM3OTk4OSw0MC40NDEyMzg1IDI5LjgwODE4NDUsMzkuMzI2MzQ4OSBMMjkuNjEzMDQxNSwzOS4xMzIwNDU1IEMyNy44MjUzMTksMzcuMzM3NzkzNCAyNi42NjAxNTEyLDM1LjA5MjI0OTggMjYuMjQ2ODI1LDMyLjYzOTk5NjUgQzI2LjAzNDMzMTgsMzEuMzgxNzM0NyAyNS40ODY3NzQ3LDI5LjQ5OTQyNTcgMjQuMDgwMzgzMywyNy42NzYyNTY3IEMyMy44MDI4NzM2LDI3LjMxNjM4MDIgMjMuODY5NTY5MiwyNi43OTkzMjU5IDI0LjIzMDI4NTIsMjYuNTIxODE2MSBDMjQuNTkwMTYxOCwyNi4yNDQzMDY0IDI1LjEwNzIxNiwyNi4zMTEwMDIgMjUuMzg0NzI1OCwyNi42NzA4Nzg1IEMyNi45OTg2NjY1LDI4Ljc2MzI1NTMgMjcuNjI3NzUwOCwzMC45MjMxNjczIDI3Ljg3MTQ5MjksMzIuMzY1ODQ0OSBDMjguMjI3MjY1MSwzNC40ODA0MjI1IDI5LjIzNDMyMjMsMzYuNDE4NzkzMSAzMC43ODI0MDY5LDM3Ljk3MjY2MTEgTDMwLjk2MjcxODMsMzguMTUyMTMyOSBDMzIuMjY2MjIxMiwzOS40MzkyMTg0IDMzLjI0MTE4OTksNDAuOTMyMDgwOSAzMy44NjM3NDQ1LDQyLjU5MTM1NiBMMzUuMzg1NDMwNyw0Ni42NDY4MjI4IEMzNS41NDQzODA4LDQ3LjA3MzM5NDkgMzUuMzI4NjIyOCw0Ny41NDc2MzM0IDM0LjkwMzcyOTgsNDcuNzA3NDIzIEMzNC44MDczNzA5LDQ3Ljc0Mjc3NjQgMzQuNzEwMTcyNiw0Ny43NjAwMzMzIDM0LjYxMzgxMzcsNDcuNzYwMDMzMyI+JiN4YTsmI3hhOzwvcGF0aD4mI3hhOyAgICAgICAgICAgICAgICA8cGF0aCBpZD0iU2hhcGUiIGQ9Ik00MC4zNzg3NDA1LDM0LjU4NDk5IEM0MC4zMDI5OTY3LDM0LjU4NDk5IDQwLjIyNzI1MjgsMzQuNTc0MjYyNyA0MC4xNTIyNTUyLDM0LjU1MjkwMTUgTDM0LjM4ODE2OCwzMi45MDYwMzI3IEMzNC4yOTAxMzAxLDMyLjg3ODg4ODEgMzQuMjAwMzk0MiwzMi44MzM1NTM3IDM0LjExOTcwNjQsMzIuNzcyNjQxNSBMMjQuMjM4NDAwNywyNS4zNjE2ODU1IEMyMy44NzQ0MTk4LDI1LjA4OTExOTYgMjMuODAwMzU1LDI0LjU3MjgxMTYgMjQuMDczNjY3MSwyNC4yMDg4MzA3IEMyNC4zNDcwNzI1LDIzLjg0NTY4OTQgMjQuODYyNTQxMSwyMy43NzE2MjQ2IDI1LjIyNjUyMTksMjQuMDQ0OTM2NyBMMzQuOTg2MDAzMiwzMS4zNjQ0Nzc4IEw0MC42MDM1NDY3LDMyLjk2OTM3MDMgQzQxLjA0MTU5MjMsMzMuMDk0NTUyOCA0MS4yOTQzODI3LDMzLjU0OTg1NTMgNDEuMTcwMDM5NywzMy45ODcxNTQ3IEM0MS4wNjYzMTE3LDM0LjM0ODcxMDMgNDAuNzM2OTM4LDM0LjU4NDk5IDQwLjM3ODc0MDUsMzQuNTg0OTkiPiYjeGE7JiN4YTs8L3BhdGg+JiN4YTsgICAgICAgICAgICA8L2c+JiN4YTsgICAgICAgICAgICA8ZyBmaWxsPSIjRjBDNDE5IiB0cmFuc2Zvcm09InRyYW5zbGF0ZSgxOS41ODg5MjMsIDEzLjE1MjU2MykiIGlkPSJHcm91cCI+JiN4YTsgICAgICAgICAgICAgICAgPHBhdGggaWQ9IlNoYXBlIiBkPSJNOC4zMTUxMjQ3NCwxNi42NDc2OTMgTDguMzE1MTI0NzQsMTEuNjg5NzM2NSBDOC4zMTUxMjQ3NCwxMC43MDMyOTQzIDcuNTE1NTIzNTYsOS45MDM2OTMxMyA2LjUyOTA4MTM2LDkuOTAzNjkzMTMgTDEuODY2NzMxMDksOS45MDM2OTMxMyBDMC44ODAyODg4OTMsOS45MDM2OTMxMyAwLjA4MDY4NzcwNzEsMTAuNzAzMjk0MyAwLjA4MDY4NzcwNzEsMTEuNjg5NzM2NSBMMC4wODA2ODc3MDcxLDE2LjY0NzY5MyBDMC4wODA2ODc3MDcxLDIwLjgwMjc4MzQgMS41MzgxOTY4NywyNC44MjY5MDc5IDQuMTk3OTA2MjIsMjguMDE5NDM1OSBDNi44NTc3MDg4NiwyNC44MjcwMDEyIDguMzE1MTI0NzQsMjAuODAyNzgzNCA4LjMxNTEyNDc0LDE2LjY0NzY5MyI+JiN4YTsmI3hhOzwvcGF0aD4mI3hhOyAgICAgICAgICAgICAgICA8cGF0aCBpZD0iU2hhcGUiIGQ9Ik02LjY2ODI1NTk5LDAuMDIyNDgwNjIxMyBMMS43Mjc2NDk3NCwwLjAyMjQ4MDYyMTMgTDAuOTA0MTY4NzIzLDMuMzE2MjE4MTIgTDAuOTA0MTY4NzIzLDYuNjA5OTU1NjIgQzAuOTA0MTY4NzIzLDguNDI4OTI3MDYgMi4zNzg5MzQ3OSw5LjkwMzY5MzEzIDQuMTk3OTA2MjIsOS45MDM2OTMxMyBDNi4wMTY4Nzc2Niw5LjkwMzY5MzEzIDcuNDkxNjQzNzMsOC40Mjg5MjcwNiA3LjQ5MTY0MzczLDYuNjA5OTU1NjIgTDcuNDkxNjQzNzMsMy4zMTYyMTgxMiBMNi42NjgyNTU5OSwwLjAyMjQ4MDYyMTMgWiI+JiN4YTsmI3hhOzwvcGF0aD4mI3hhOyAgICAgICAgICAgIDwvZz4mI3hhOyAgICAgICAgICAgIDxwYXRoIGZpbGw9IiM5NUE1QTUiIGlkPSJTaGFwZSIgZD0iTTI2LjI1NzE3OTEsMTMuMTc1MDQzMyBMMjEuMzE2NTcyOSwxMy4xNzUwNDMzIEMyMC40MDc0NjAzLDEzLjE3NTA0MzMgMTkuNjY5NzA0MSwxMi40MzcxOTM4IDE5LjY2OTcwNDEsMTEuNTI4MTc0NSBDMTkuNjY5NzA0MSwxMC42MTkxNTUyIDIwLjQwNzU1MzUsOS44ODEzMDU3OCAyMS4zMTY1NzI5LDkuODgxMzA1NzggTDI2LjI1NzE3OTEsOS44ODEzMDU3OCBDMjcuMTY2MjkxNyw5Ljg4MTMwNTc4IDI3LjkwNDA0NzksMTAuNjE5MTU1MiAyNy45MDQwNDc5LDExLjUyODE3NDUgQzI3LjkwNDA0NzksMTIuNDM3MTkzOCAyNy4xNjYyOTE3LDEzLjE3NTA0MzMgMjYuMjU3MTc5MSwxMy4xNzUwNDMzIj4mI3hhOyYjeGE7PC9wYXRoPiYjeGE7ICAgICAgICAgICAgPGcgZmlsbD0iI0RCQ0I5NSIgdHJhbnNmb3JtPSJ0cmFuc2xhdGUoMC4wMDAwMDAsIDEzLjk5MjA4OCkiIGlkPSJHcm91cCI+JiN4YTsgICAgICAgICAgICAgICAgPHBhdGggaWQ9IlNoYXBlIiBkPSJNNi40OTQ1Njc1NCwwLjAwNjQzNjM2MDQ1IEM2LjQ5NDU2NzU0LDAuMDA2NDM2MzYwNDUgMy4xODc1ODQxOSwwLjI0NTIzNDY2MSAxLjA5NjA0Njg5LDIuMzU5ODEyMjcgQy0wLjA3NjQ5MDA4MDcsMy41NDY0MzQ2MSAtMC4zNDE2ODY3ODgsNS40NDI3MzU2NSAwLjY0MDY1MTA2Nyw2Ljc5MTU3MjkzIEMxLjIxNjE5MjI4LDcuNTgyMDMyNjEgMi4yMzMyMzA1Miw4LjI0MDg3MzM5IDQuMDI0MjE3NzcsOC4yNDA4NzMzOSBMNy4zMTc5NTUyNyw4LjI0MDg3MzM5IEM3LjMxNzk1NTI3LDguMjQwODczMzkgOC4yMzg1NDEzOCw4LjQ3MDYyMzQ4IDguOTU0OTM2MjgsOS4wNzE3MjM1OCBDMTAuNTgyMDI5NSwxMC40MzM3MTM0IDEyLjg3MzY1MzcsMTAuNzkxMDcxMyAxNC44MjM1OTExLDkuOTU2OTU2MzQgQzE2LjQ0NjU4LDkuMjYzNjAxNzQgMTkuMDI2NDQxMiw3LjE4NjA1NjUyIDIwLjQ5Mjk5ODYsNC45NDcxMzU4OSBMMTkuNDM0OTE2OSw0LjU5NDcyMTg0IEMxNy40MjIzODgyLDMuOTIzNjYxMyAxNS41MTc3ODUyLDIuOTg0ODg1NDggMTMuNjk1NTQ5LDEuODk5NTY1ODYgQzEyLjE4OTUzMzksMS4wMDI3NjYzIDkuNzc3NjcxMDUsMC4wMDY0MzYzNjA0NSA2LjQ5NDU2NzU0LDAuMDA2NDM2MzYwNDUiPiYjeGE7JiN4YTs8L3BhdGg+JiN4YTsgICAgICAgICAgICAgICAgPHBhdGggaWQ9IlNoYXBlIiBkPSJNNDEuMDc5MTg0NCwwLjAwNjQzNjM2MDQ1IEM0MS4wNzkxODQ0LDAuMDA2NDM2MzYwNDUgNDQuMzg2MTY3OCwwLjI0NTIzNDY2MSA0Ni40NzY4NjU2LDIuMzU5ODEyMjcgQzQ3LjY1MDI0MiwzLjU0NjQzNDYxIDQ3LjkxNTQzODgsNS40NDI3MzU2NSA0Ni45MzIyNjE0LDYuNzkxNTcyOTMgQzQ2LjM1NjYyNjksNy41ODIwMzI2MSA0NS4zNDA1MjE0LDguMjQwODczMzkgNDMuNTQ5NTM0Miw4LjI0MDg3MzM5IEw0MC4yNTU3OTY3LDguMjQwODczMzkgQzQwLjI1NTc5NjcsOC4yNDA4NzMzOSAzOS4zMzUyMTA2LDguNDcwNjIzNDggMzguNjE3OTc2Miw5LjA3MTcyMzU4IEMzNi45OTE2MjkxLDEwLjQzMzcxMzQgMzQuNzAwMDA1LDEwLjc5MTA3MTMgMzIuNzQ5MzIxNCw5Ljk1Njk1NjM0IEMzMS4xMjcxNzIsOS4yNjM2MDE3NCAyOC41NDczMTA4LDcuMTg2MDU2NTIgMjcuMDgwNzUzNCw0Ljk0NzEzNTg5IEwyOC4xMzgwODg4LDQuNTk0NzIxODQgQzMwLjE1MTM2MzcsMy45MjM2NjEzIDMyLjA1NjA2LDIuOTg0ODg1NDggMzMuODc4Mjk2MywxLjg5OTU2NTg2IEMzNS4zODMzNzg1LDEuMDAyNzY2MyAzNy43OTUyNDE0LDAuMDA2NDM2MzYwNDUgNDEuMDc5MTg0NCwwLjAwNjQzNjM2MDQ1Ij4mI3hhOyYjeGE7PC9wYXRoPiYjeGE7ICAgICAgICAgICAgPC9nPiYjeGE7ICAgICAgICAgICAgPGcgZmlsbD0iIzAwMDAwMCIgdHJhbnNmb3JtPSJ0cmFuc2xhdGUoMTkuNTg4OTIzLCAyNi4zMDUxMjUpIiBpZD0iR3JvdXAiPiYjeGE7ICAgICAgICAgICAgICAgIDxwb2x5Z29uIHBvaW50cz0iMC4wODA2ODc3MDcxIDEuNjkxOTIzMjcgOC4zMTUxMjQ3NCAxLjY5MTkyMzI3IDguMzE1MTI0NzQgMC4wNDUwNTQ1MjMyIDAuMDgwNjg3NzA3MSAwLjA0NTA1NDUyMzIiIGlkPSJTaGFwZSI+JiN4YTsmI3hhOzwvcG9seWdvbj4mI3hhOyAgICAgICAgICAgICAgICA8cGF0aCBpZD0iU2hhcGUiIGQ9Ik0wLjI0ODc3OTMyNCw1LjgwOTE0MTc5IEw4LjE0NzIxOTY5LDUuODA5MTQxNzkgQzguMjE4ODU5MTgsNS4yNjQwMTAwNCA4LjI2NDkzOTc5LDQuNzE0NzczOTUgOC4yODYzOTQzMiw0LjE2MjI3MzA0IEwwLjEwOTYwNDY4OSw0LjE2MjI3MzA0IEMwLjEzMDIxOTY5OCw0LjcxNDc3Mzk1IDAuMTc3MTM5ODMzLDUuMjY0MDEwMDQgMC4yNDg3NzkzMjQsNS44MDkxNDE3OSI+JiN4YTsmI3hhOzwvcGF0aD4mI3hhOyAgICAgICAgICAgICAgICA8cGF0aCBpZD0iU2hhcGUiIGQ9Ik0wLjc1NDYzOTk0Myw4LjMwOTYyMTE5IEMwLjkwODY0NjE5MSw4Ljg1ODAxNzc1IDEuMDkzOTAxNDQsOS4zOTU3ODAzMyAxLjI5OTc3MTY5LDkuOTI2MDgwNDcgTDcuMDk1OTQ3NDgsOS45MjYwODA0NyBDNy4zMDE4MTc3Myw5LjM5NTc4MDMzIDcuNDg3MDcyOTgsOC44NTgxMTEwMyA3LjY0MTA3OTIyLDguMzA5NjIxMTkgQzcuNTkwODk0MjcsOC4yOTk3MzM0NCA3LjU0NDcyMDM4LDguMjc5MTE4NDMgNy40OTIwMTY4NSw4LjI3OTExODQzIEwwLjkwNDQ0ODU2NSw4LjI3OTExODQzIEMwLjg1MDk5ODc4OSw4LjI3OTExODQzIDAuODA1NjY0NDI0LDguMjk5NzMzNDQgMC43NTQ2Mzk5NDMsOC4zMDk2MjExOSI+JiN4YTsmI3hhOzwvcGF0aD4mI3hhOyAgICAgICAgICAgIDwvZz4mI3hhOyAgICAgICAgPC9nPiYjeGE7ICAgIDwvZz4mI3hhOzwvc3ZnPg==;comic=0;snapToPoint=0;fixDash=1;" parent="1" vertex="1">
          <mxGeometry x="1006" y="580" width="100" height="100" as="geometry" />
        </mxCell>
        <mxCell id="LB7Hno4nHKk7k6WSY0Ma-126" value="" style="shape=image;verticalLabelPosition=bottom;labelBackgroundColor=default;verticalAlign=top;aspect=fixed;imageAspect=0;image=data:image/svg+xml,PHN2ZyB4bWxucz0iaHR0cDovL3d3dy53My5vcmcvMjAwMC9zdmciIHZpZXdCb3g9IjAgMCAzMiAzMiIgaGVpZ2h0PSI4MDBweCIgd2lkdGg9IjgwMHB4Ij48dGl0bGU+Zm9sZGVyX3R5cGVfa3ViZXJuZXRlczwvdGl0bGU+PHBhdGggc3R5bGU9ImZpbGw6Izg5YThlYyIgZD0iTTI3LjUsNS41SDE4LjJMMTYuMSw5LjdINC40VjI2LjVIMjkuNlY1LjVabTAsNC4ySDE5LjNsMS4xLTIuMWg3LjFaIi8+PHBhdGggc3R5bGU9ImZpbGw6IzMyNmNlNSIgZD0iTTIwLjEsMTBhMS40NDgsMS40NDgsMCwwLDAtLjU1MS4xNGwtNy41MjQsMy42YTEuNDI5LDEuNDI5LDAsMCwwLS43NzguOTY4TDkuMzksMjIuNzhhMS40MTcsMS40MTcsMCwwLDAsLjIsMS4wOTRxLjAzOC4wNTkuMDgyLjExNGw1LjIwOCw2LjQ3NUExLjQ0MywxLjQ0MywwLDAsMCwxNiwzMWw4LjM1MiwwYTEuNDQzLDEuNDQzLDAsMCwwLDEuMTI1LS41MzZsNS4yMDYtNi40NzZhMS40MTgsMS40MTgsMCwwLDAsLjI3OC0xLjIwOEwyOS4xLDE0LjdhMS40MjksMS40MjksMCwwLDAtLjc3OC0uOTY4TDIwLjgsMTAuMTQxQTEuNDQ5LDEuNDQ5LDAsMCwwLDIwLjEsMTBaIi8+PHBhdGggc3R5bGU9ImZpbGw6I2ZmZmZmZjtzdHJva2U6I2ZmZmZmZjtzdHJva2Utd2lkdGg6MC4yNXB4IiBkPSJNMjAuMTc1LDEyLjc1YS40NzcuNDc3LDAsMCwwLS40NS41di4wMTNjMCwuMDM4LDAsLjA4MywwLC4xMTVhMy43NTcsMy43NTcsMCwwLDAsLjA2Mi40MjgsNC4yMDcsNC4yMDcsMCwwLDEsLjA1LjgxNy40OTEuNDkxLDAsMCwxLS4xNDYuMjMzbC0uMDExLjE5MWE1Ljg2MSw1Ljg2MSwwLDAsMC0uODE0LjEyNSw1Ljc5Myw1Ljc5MywwLDAsMC0yLjk0MywxLjY4MWMtLjA1LS4wMzQtLjEzNy0uMS0uMTYzLS4xMTVhLjM1Ni4zNTYsMCwwLDEtLjI2OC0uMDI2LDQuMjA2LDQuMjA2LDAsMCwxLS42MDctLjU0OSwzLjc1MywzLjc1MywwLDAsMC0uMy0uMzE1Yy0uMDI3LS4wMjQtLjA2OS0uMDU2LS4xLS4wOGEuNTM2LjUzNiwwLDAsMC0uMzE0LS4xMTguNDM0LjQzNCwwLDAsMC0uMzU5LjE1OS40NzcuNDc3LDAsMCwwLC4xMTEuNjY0bC4wMDcsMGMuMDMuMDI0LjA2Ni4wNTUuMDkzLjA3NWEzLjc1NCwzLjc1NCwwLDAsMCwuMzczLjIxOCw0LjIsNC4yLDAsMCwxLC42Ny40NzEuNS41LDAsMCwxLC4wOS4yNmwuMTQ0LjEyOWE1LjgyOCw1LjgyOCwwLDAsMC0uOTE5LDQuMDYzbC0uMTg5LjA1NWEuNjI0LjYyNCwwLDAsMS0uMTkzLjIsNC4yMDUsNC4yMDUsMCwwLDEtLjgwNy4xMzMsMy43NjgsMy43NjgsMCwwLDAtLjQzMi4wMzVjLS4wMzQuMDA3LS4wODMuMDE5LS4xMi4wMjhoMGwtLjAwNywwYS40NTIuNDUyLDAsMSwwLC4yLjg3OGguMDA3bC4wMDksMGMuMDM3LS4wMDguMDg0LS4wMTcuMTE2LS4wMjZhMy43NjQsMy43NjQsMCwwLDAsLjQtLjE1NSw0LjIwOSw0LjIwOSwwLDAsMSwuNzg1LS4yMzEuNS41LDAsMCwxLC4yNTkuMDkxbC4yLS4wMzRhNS44NjEsNS44NjEsMCwwLDAsMi42LDMuMjQzbC0uMDgyLjJhLjQ0Ni40NDYsMCwwLDEsLjA0LjI1NSw0LjQsNC40LDAsMCwxLS40MDguNzMzLDMuNzcyLDMuNzcyLDAsMCwwLS4yNDIuMzZjLS4wMTguMDM0LS4wNDEuMDg2LS4wNTguMTIxYS40NTIuNDUyLDAsMSwwLC44MTMuMzg2aDBjLjAxNy0uMDM1LjA0MS0uMDgxLjA1Ni0uMTE1YTMuNzU4LDMuNzU4LDAsMCwwLC4xMy0uNDEzLDMuMTQ5LDMuMTQ5LDAsMCwxLC4zNDktLjgwOUEuMzY1LjM2NSwwLDAsMSwxOCwyNi41MjJsLjEtLjE4NWE1LjgyOSw1LjgyOSwwLDAsMCw0LjE1Ni4wMTFjLjAyOS4wNTEuMDgyLjE0OS4xLjE3M2EuMzU2LjM1NiwwLDAsMSwuMjMuMTQsNC4yLDQuMiwwLDAsMSwuMzA5Ljc1NywzLjc2NywzLjc2NywwLDAsMCwuMTMxLjQxM2MuMDE1LjAzMy4wMzkuMDguMDU2LjExNWEuNDUyLjQ1MiwwLDEsMCwuODE0LS4zODVjLS4wMTctLjAzNi0uMDQxLS4wODgtLjA1OS0uMTIxYTMuNzU2LDMuNzU2LDAsMCwwLS4yNDItLjM1OSw0LjIwOCw0LjIwOCwwLDAsMS0uNC0uNzE1LjM1My4zNTMsMCwwLDEsLjAzNS0uMjY2LDEuNTQ4LDEuNTQ4LDAsMCwxLS4wNzUtLjE4Miw1Ljg2MSw1Ljg2MSwwLDAsMCwyLjYtMy4yNjZjLjA1OC4wMDkuMTYuMDI3LjE5Mi4wMzRhLjM1Ni4zNTYsMCwwLDEsLjI1Mi0uMDkzLDQuMjEsNC4yMSwwLDAsMSwuNzg1LjIzMSwzLjc2NSwzLjc2NSwwLDAsMCwuNC4xNTZjLjAzMy4wMDkuMDc5LjAxNy4xMTYuMDI1bC4wMDksMGguMDA3YS40NTIuNDUyLDAsMSwwLC4yLS44NzhjLS4wMzktLjAwOS0uMDkzLS4wMjQtLjEzMS0uMDMxYTMuNzY4LDMuNzY4LDAsMCwwLS40MzItLjAzNSw0LjIsNC4yLDAsMCwxLS44MDctLjEzMy41MDUuNTA1LDAsMCwxLS4xOTQtLjJsLS4xODItLjA1M2E1Ljg1LDUuODUsMCwwLDAtLjkzOC00LjA1M2wuMTYtLjE0M2EuMzU2LjM1NiwwLDAsMSwuMDg1LS4yNTUsNC4yLDQuMiwwLDAsMSwuNjctLjQ3MSwzLjc2NiwzLjc2NiwwLDAsMCwuMzc0LS4yMThjLjAyOS0uMDIxLjA2OS0uMDU1LjEtLjA4YS40NTMuNDUzLDAsMSwwLS41NjEtLjdjLS4wMzEuMDI0LS4wNzIuMDU2LS4xLjA4YTMuNzY4LDMuNzY4LDAsMCwwLS4zLjMxNSw0LjIxOCw0LjIxOCwwLDAsMS0uNjA3LjU0OS41LjUsMCwwLDEtLjI3My4wM2wtLjE3MS4xMjJhNS45LDUuOSwwLDAsMC0zLjczOC0xLjgwNmMwLS4wNi0uMDA5LS4xNjgtLjAxMS0uMmEuMzU2LjM1NiwwLDAsMS0uMTQ3LS4yMjUsNC4yMTUsNC4yMTUsMCwwLDEsLjA1MS0uODE3LDMuNzU3LDMuNzU3LDAsMCwwLC4wNjItLjQyOGMwLS4wMzYsMC0uMDg5LDAtLjEyOGEuNDc3LjQ3NywwLDAsMC0uNDUtLjVabS0uNTY0LDMuNDkzLS4xMzQsMi4zNjItLjAxLDBhLjQuNCwwLDAsMS0uNjMuM2wwLDBMMTYuOSwxNy41NDNhNC42MzksNC42MzksMCwwLDEsMi4yMzQtMS4yMTdBNC43NDYsNC43NDYsMCwwLDEsMTkuNjExLDE2LjI0M1ptMS4xMjksMGE0LjY3OCw0LjY3OCwwLDAsMSwyLjcsMS4zbC0xLjkyNSwxLjM2NS0uMDA3LDBhLjQuNCwwLDAsMS0uNjMxLS4zaDBabS00LjU0NiwyLjE4MiwxLjc2OSwxLjU4MiwwLC4wMWEuNC40LDAsMCwxLS4xNTYuNjgybDAsLjAwOC0yLjI2Ny42NTRBNC42MzgsNC42MzgsMCwwLDEsMTYuMTk0LDE4LjQyNlptNy45NDksMGE0LjcyNCw0LjcyNCwwLDAsMSwuNjc4LDIuOTI3TDIyLjU0MywyMC43bDAtLjAxYS40LjQsMCwwLDEtLjE1Ni0uNjgydjBsMS43NTktMS41NzRabS00LjMzMSwxLjdoLjcyNWwuNDUuNTYzLS4xNjIuNy0uNjUxLjMxMy0uNjUyLS4zMTQtLjE2Mi0uN1ptMi4zMjMsMS45MjdhLjQuNCwwLDAsMSwuMDkxLjAwN2wwLDAsMi4zNDUuNEE0LjY0NCw0LjY0NCwwLDAsMSwyMi43LDI0LjgxM2wtLjkxLTIuMiwwLDBhLjQuNCwwLDAsMSwuMzQ1LS41NTRabS0zLjkzOS4wMWEuNC40LDAsMCwxLC4zNTkuNTUzbC4wMDcuMDA5LS45LDIuMTc3YTQuNjYzLDQuNjYzLDAsMCwxLTEuODcyLTIuMzQybDIuMzI1LS4zOTUsMCwwYS40LjQsMCwwLDEsLjA3OC0uMDA3Wm0xLjk2NC45NTRhLjQuNCwwLDAsMSwuMzY0LjIwOWguMDA5TDIxLjY3OSwyNS4zYTQuNzUxLDQuNzUxLDAsMCwxLS40NTguMTI4LDQuNjU3LDQuNjU3LDAsMCwxLTIuNTQxLS4xMzFsMS4xNDMtMi4wNjdoMEEuNC40LDAsMCwxLDIwLjE2LDIzLjAyWiIvPjwvc3ZnPg==;comic=0;snapToPoint=0;fixDash=1;" parent="1" vertex="1">
          <mxGeometry x="877" y="996.5" width="109" height="109" as="geometry" />
        </mxCell>
        <mxCell id="LB7Hno4nHKk7k6WSY0Ma-138" style="edgeStyle=none;rounded=0;orthogonalLoop=1;jettySize=auto;html=1;exitX=0.5;exitY=1;exitDx=0;exitDy=0;strokeColor=#23445D;comic=0;snapToPoint=0;fixDash=1;" parent="1" edge="1">
          <mxGeometry relative="1" as="geometry">
            <mxPoint x="418.5" y="1076.0000000000002" as="sourcePoint" />
            <mxPoint x="418.5" y="1076.0000000000002" as="targetPoint" />
          </mxGeometry>
        </mxCell>
        <mxCell id="LB7Hno4nHKk7k6WSY0Ma-146" value="" style="shape=image;verticalLabelPosition=bottom;labelBackgroundColor=default;verticalAlign=top;aspect=fixed;imageAspect=0;image=data:image/svg+xml,PHN2ZyB4bWxucz0iaHR0cDovL3d3dy53My5vcmcvMjAwMC9zdmciIGZpbGw9Im5vbmUiIHZpZXdCb3g9IjAgMCAxMzEgMzIiIGhlaWdodD0iMzIiIHdpZHRoPSIxMzEiPiYjeGE7PHBhdGggZmlsbD0iIzFCMTcxQiIgZD0iTTAuNjk2NTc2IDI0LjUwM0MxLjQxNDkyIDI0Ljk1MjIgMi45MDk2NSAyNS40NzUxIDQuMDcwNjEgMjUuNDc1MUM1LjI2MDYgMjUuNDc1MSA1Ljc0Njc1IDI1LjA1NTMgNS43NDY3NSAyNC40MDcyQzUuNzQ2NzUgMjMuNzU5MSA1LjM2MjE4IDIzLjQ0MjQgMy44ODkyMSAyMi45NDE2QzEuMjg0MzEgMjIuMDUwNSAwLjI4Mjk4NCAyMC42MTQ0IDAuMzEyMDA4IDE5LjA5NzJDMC4zMTIwMDggMTYuNzE4NCAyLjMyMTkyIDE0LjkxNDEgNS40MzQ3NCAxNC45MTQxQzYuOTAwNDUgMTQuOTE0MSA4LjIxMzc5IDE1LjI1MjggOC45OTAxOCAxNS42NDMyTDguMjkzNiAxOC4zOTAyQzcuNzI3NjMgMTguMDczNSA2LjY0NjQ5IDE3LjY2MTEgNS41NjUzNSAxNy42NjExQzQuNjE0ODEgMTcuNjYxMSA0LjA3MDYxIDE4LjA1MTQgNC4wNzA2MSAxOC43MDY5QzQuMDcwNjEgMTkuMzEwOCA0LjU2NDAyIDE5LjYyMDEgNi4xMDk1NSAyMC4xNzI1QzguNTA0MDMgMjEuMDEyMSA5LjUxMjYxIDIyLjIzNDYgOS41MzQzOCAyNC4xMkM5LjUzNDM4IDI2LjQ5ODggNy42ODQxIDI4LjI1MTYgNC4wNzA2MSAyOC4yNTE2QzIuNDIzNSAyOC4yNTE2IDAuOTU3NzkxIDI3Ljg4MzQgMCAyNy4zNjA1TDAuNjk2NTc2IDI0LjUwM1oiLz4mI3hhOzxwYXRoIGZpbGw9IiMxQjE3MUIiIGQ9Ik0yMy4zMTI4IDIxLjQ0NjZDMjMuMzEyOCAyNi4xMjMyIDIwLjA0MDMgMjguMjczNyAxNi42NjYzIDI4LjI3MzdDMTIuOTgwMiAyOC4yNzM3IDEwLjE1MDQgMjUuODEzOSAxMC4xNTA0IDIxLjY4MjNDMTAuMTUwNCAxNy41NTA3IDEyLjgyNzkgMTQuOTE0MSAxNi44NzY3IDE0LjkxNDFDMjAuNzQ0MSAxNC45MDY3IDIzLjMxMjggMTcuNjAyMiAyMy4zMTI4IDIxLjQ0NjZaTTE0LjE5OTIgMjEuNTcxOEMxNC4xOTkyIDIzLjc2NjUgMTUuMDk5IDI1LjQxNjIgMTYuNzc1MSAyNS40MTYyQzE4LjI5ODkgMjUuNDE2MiAxOS4yNzEyIDIzLjg2OTYgMTkuMjcxMiAyMS41NzE4QzE5LjI3MTIgMTkuNjY0MyAxOC41NTI4IDE3LjcyNzQgMTYuNzc1MSAxNy43Mjc0QzE0Ljg5NTggMTcuNzI3NCAxNC4xOTkyIDE5LjY5MzggMTQuMTk5MiAyMS41NzE4WiIvPiYjeGE7PHBhdGggZmlsbD0iIzFCMTcxQiIgZD0iTTI0LjcxNDkgMTkuMjczNUMyNC43MTQ5IDE3LjY4MjggMjQuNjY0MSAxNi4zMjAzIDI0LjYxMzMgMTUuMTkzNUgyOC4wMTYzTDI4LjE5NzcgMTYuOTQ2M0gyOC4yNzc2QzI4Ljc5MjcgMTYuMTM2MiAzMC4wNzcgMTQuOTA2MiAzMi4xNjY4IDE0LjkwNjJDMzQuNzQyNiAxNC45MDYyIDM2LjY4IDE2LjYyOTYgMzYuNjggMjAuMzkzVjI3Ljk3ODdIMzIuNzYxOFYyMC44ODY0QzMyLjc2MTggMTkuMjM2NyAzMi4xOTU4IDE4LjExNzMgMzAuNzgwOSAxOC4xMTczQzI5LjY5OTcgMTguMTE3MyAyOS4wNTM5IDE4Ljg3NTggMjguOCAxOS42MDVDMjguNjk4NCAxOS44NDA2IDI4LjY0MDQgMjAuMjMxIDI4LjY0MDQgMjAuNTk5MlYyNy45NzEzSDI0LjcyOTRWMTkuMjczNUgyNC43MTQ5WiIvPiYjeGE7PHBhdGggZmlsbD0iIzFCMTcxQiIgZD0iTTQ1LjkzNzIgMjcuOTc4OEw0NS43MDUgMjYuNjk3M0g0NS42MzI1QzQ0LjgxMjUgMjcuNzIxIDQzLjUyMSAyOC4yNjYgNDIuMDMzNSAyOC4yNjZDMzkuNDc5NCAyOC4yNjYgMzcuOTYyOSAyNi4zODA2IDM3Ljk2MjkgMjQuMzQwNkMzNy45NjI5IDIxLjAxOTEgNDAuOTAxNiAxOS40MjA5IDQ1LjM1NjcgMTkuNDUwNFYxOS4yNjYzQzQ1LjM1NjcgMTguNTg4NyA0NC45OTM5IDE3LjYxNjYgNDMuMDYzOSAxNy42MTY2QzQxLjc3OTUgMTcuNjE2NiA0MC40MTU0IDE4LjA1ODQgMzkuNTg4MiAxOC41ODEzTDM4Ljg2MjYgMTYuMDE4NEMzOS43NDA2IDE1LjUxNzYgNDEuNDY3NSAxNC44OTE2IDQzLjc2MDQgMTQuODkxNkM0Ny45NjE2IDE0Ljg5MTYgNDkuMjk2NyAxNy40MDMgNDkuMjk2NyAyMC40MDc4VjI0Ljg1NjFDNDkuMjk2NyAyNi4wODYgNDkuMzQ3NSAyNy4yNTcgNDkuNDc4MSAyNy45NjRINDUuOTM3MlYyNy45Nzg4Wk00NS40ODAxIDIxLjkzOTdDNDMuNDE5NCAyMS45MTAyIDQxLjgyMzEgMjIuNDExIDQxLjgyMzEgMjMuOTUwMkM0MS44MjMxIDI0Ljk3MzkgNDIuNDkwNiAyNS40Njc0IDQzLjM2ODYgMjUuNDY3NEM0NC4yODI5IDI1LjQ3NDcgNDUuMTAyOCAyNC44ODU2IDQ1LjQwMDMgMjQuMDAxOEM0NS40NTExIDIzLjc4MDkgNDUuNDgwMSAyMy41NTI1IDQ1LjQ4MDEgMjMuMzI0MlYyMS45Mzk3WiIvPiYjeGE7PHBhdGggZmlsbD0iIzFCMTcxQiIgZD0iTTUxLjM1OTQgMTkuNDA2NEM1MS4zNTk0IDE3LjUyODQgNTEuMzA4NiAxNi4yOTg1IDUxLjI1NzggMTUuMjAxMUg1NC42MzE4TDU0Ljc2MjUgMTcuNTUwNUg1NC44NjRDNTUuNTA5OCAxNS42OTQ2IDU3LjA1NTQgMTQuOTEzOSA1OC4yNjcxIDE0LjkxMzlDNTguNTQyOCAxNC45MDY2IDU4LjgxODYgMTQuOTIxMyA1OS4wOTQzIDE0Ljk2NTVWMTguNzA2OEM1OC43NDYgMTguNjQwNSA1OC4zOTA1IDE4LjYwMzcgNTguMDQyMiAxOC42MDM3QzU2LjU5ODIgMTguNjAzNyA1NS42MTg3IDE5LjM5MTcgNTUuMzU3NCAyMC42MjE2QzU1LjMwNjcgMjAuOTE2MiA1NS4yODQ5IDIxLjIxMDggNTUuMjg0OSAyMS41MTI3VjI3Ljk5MzdINTEuMzY2N0w1MS4zNTk0IDE5LjQwNjRaIi8+JiN4YTs8cGF0aCBmaWxsPSIjMUIxNzFCIiBkPSJNODQuOTI2MSAyNC41MjQ3Qzg0LjkyNjEgMjUuODI4MyA4NC45NTUxIDI2Ljk4NDYgODUuMDI3NiAyNy45Nzg4SDgzLjAxNzdMODIuODg3MSAyNS45MDkzSDgyLjgzNjNDODIuMjQxMyAyNi45MjU3IDgwLjkyOCAyOC4yNjYgNzguNzE0OSAyOC4yNjZDNzYuNzU1OCAyOC4yNjYgNzQuNDEyMSAyNy4xNjg3IDc0LjQxMjEgMjIuNzIwNFYxNS4zMjYySDc2LjY3NlYyMi4zM0M3Ni42NzYgMjQuNzMxIDc3LjM5NDMgMjYuMzU4NiA3OS40NTUgMjYuMzU4NkM4MC45NzE1IDI2LjM1ODYgODIuMDMwOSAyNS4yODMzIDgyLjQ0NDUgMjQuMjY3QzgyLjU4MjQgMjMuODkxNCA4Mi42NDc3IDIzLjQ5MzcgODIuNjQ3NyAyMy4wODg2VjE1LjMyNjJIODQuOTExNlYyNC41MjQ3SDg0LjkyNjFaIi8+JiN4YTs8cGF0aCBmaWxsPSIjMUIxNzFCIiBkPSJNODcuNTU4NiAyNy45Nzg2Qzg3LjYwOTQgMjcuMTE3IDg3LjY2MDIgMjUuODM1NSA4Ny42NjAyIDI0LjcwODdWOS40MTIxMUg4OS45MDIzVjE3LjM2Nkg4OS45NTMxQzkwLjc1MTIgMTUuOTUyIDkyLjE5NTIgMTUuMDM4OCA5NC4yMDUxIDE1LjAzODhDOTcuMjk2MSAxNS4wMzg4IDk5LjQ4NzQgMTcuNjUzMyA5OS40NTg0IDIxLjQ5NzdDOTkuNDU4NCAyNi4wMTk2IDk2LjY1MDQgMjguMjczMiA5My44NzEzIDI4LjI3MzJDOTIuMDY0NiAyOC4yNzMyIDkwLjYyNzkgMjcuNTY2MiA4OS42OTkxIDI1Ljg5NDRIODkuNjE5M0w4OS41MTc3IDI3Ljk4Nkw4Ny41NTg2IDI3Ljk3ODZaTTg5LjkwMjMgMjIuOTA0M0M4OS45MDk1IDIzLjE4NDIgODkuOTQ1OCAyMy40NjQxIDkwLjAwMzkgMjMuNzQzOUM5MC40MzkyIDI1LjMzNDcgOTEuNzUyNiAyNi40MzIxIDkzLjM5OTcgMjYuNDMyMUM5NS43NzI0IDI2LjQzMjEgOTcuMTg3MyAyNC40NzMgOTcuMTg3MyAyMS41NzEzQzk3LjE4NzMgMTkuMDM3OCA5NS45MDMgMTYuODY1MiA5My40Nzk1IDE2Ljg2NTJDOTEuOTM0IDE2Ljg2NTIgOTAuNDkgMTcuOTMzMSA5MC4wMjU2IDE5LjY4NTlDODkuOTc0OCAxOS45NTExIDg5Ljg5NSAyMC4yNjA0IDg5Ljg5NSAyMC42Mjg2VjIyLjkwNDNIODkuOTAyM1oiLz4mI3hhOzxwYXRoIGZpbGw9IiMxQjE3MUIiIGQ9Ik0xMDIuNTUgMjIuMDcxOUMxMDIuNjAxIDI1LjE3OTkgMTA0LjU2IDI2LjQ2MTMgMTA2LjgyNCAyNi40NjEzQzEwOC40NSAyNi40NjEzIDEwOS40MjkgMjYuMTc0MSAxMTAuMjc4IDI1LjgwNTlMMTEwLjY2MyAyNy40NTU2QzEwOS44NjQgMjcuODIzOCAxMDguNSAyOC4yMzYyIDEwNi41MTIgMjguMjM2MkMxMDIuNjc0IDI4LjIzNjIgMTAwLjM4MSAyNS42NzMzIDEwMC4zODEgMjEuODU4NEMxMDAuMzgxIDE4LjA0MzQgMTAyLjU5NCAxNS4wMzEyIDEwNi4yMjkgMTUuMDMxMkMxMTAuMyAxNS4wMzEyIDExMS4zODEgMTguNjY5NCAxMTEuMzgxIDIwLjk5NjdDMTExLjM4MSAyMS4zNTc2IDExMS4zNTIgMjEuNzExMSAxMTEuMzA4IDIyLjA2NDZMMTAyLjU1IDIyLjA3MTlaTTEwOS4xOTcgMjAuNDIyMkMxMDkuMjI2IDE4Ljk1NjcgMTA4LjYwOSAxNi42ODEgMTA2LjA1NSAxNi42ODFDMTAzLjc2MiAxNi42ODEgMTAyLjc2MSAxOC44MjQxIDEwMi41NzIgMjAuNDIyMkgxMDkuMTk3WiIvPiYjeGE7PHBhdGggZmlsbD0iIzFCMTcxQiIgZD0iTTcxLjcyNjUgMTcuNjAxNEM2OS42MzY4IDE0LjQ3ODcgNjUuNDUwMSAxMy42Njg2IDYyLjM3MzYgMTUuNzg5N0M1OS4yOTcgMTcuOTEwNyA1OC40OTg5IDIyLjE2MDIgNjAuNTg4NiAyNS4yODI4QzYyLjQwOTkgMjguMDAwNCA2NS44NzEgMjkuMDE2NyA2OC44Mzg3IDI3LjcwNThMNzEuNDQzNiAzMS45OTk1TDczLjUxMTUgMzAuNTcwN0w3MC45MDY2IDI2LjI3NzFDNzMuMTk5NSAyMy45NjQ1IDczLjU0NzggMjAuMzE5IDcxLjcyNjUgMTcuNjAxNFpNNjguODA5NiAyNS40MDA3QzY2LjY1NDYgMjYuODg4MyA2My43MjMyIDI2LjMyMTIgNjIuMjU3NSAyNC4xMzM5QzYwLjc5MTggMjEuOTQ2NiA2MS4zNTA1IDE4Ljk3MTIgNjMuNTA1NSAxNy40ODM2QzY1LjY2MDUgMTUuOTk1OSA2OC41OTIgMTYuNTYzIDcwLjA1NzcgMTguNzUwM0M3MS41MTYxIDIwLjkzNzYgNzAuOTU3NCAyMy45MTMgNjguODA5NiAyNS40MDA3WiIvPiYjeGE7PHBhdGggZmlsbD0iIzRFOUJDRCIgZD0iTTEyNi44NzggMjguMDMwMkgxMjUuMjgyQzEyNS4yODIgMTQuOTc5OSAxMTQuNjc0IDQuMzY3MzEgMTAxLjYzNSA0LjM2NzMxVjIuNzQ3MDdDMTE1LjU1MiAyLjc0NzA3IDEyNi44NzggMTQuMDg4OCAxMjYuODc4IDI4LjAzMDJaIi8+JiN4YTs8cGF0aCBmaWxsPSIjNEU5QkNEIiBkPSJNMTI3Ljk4MSAxOS4zMzI0QzEyNi4wNjYgMTEuMTQyOCAxMTkuNTI4IDQuMzA4MzUgMTExLjMzNiAxLjkyMjE3TDExMS42OTkgMC42MjU5NzdDMTIwLjM0OCAzLjE0NDcyIDEyNy4yNDggMTAuMzYyMiAxMjkuMjczIDE5LjAyMzFMMTI3Ljk4MSAxOS4zMzI0WiIvPiYjeGE7PHBhdGggZmlsbD0iIzRFOUJDRCIgZD0iTTEyOS4yMDkgMTEuNjUxQzEyNy4yMzUgNy4yODM3MyAxMjMuODY4IDMuNDY4OCAxMTkuNzMyIDAuOTIwNTkzTDEyMC4yODQgMEMxMjQuNjAxIDIuNjU4NjcgMTI4LjExMyA2LjY0MyAxMzAuMTc0IDExLjIwOTFMMTI5LjIwOSAxMS42NTFaIi8+JiN4YTs8L3N2Zz4=;imageBorder=#ffffff;shadow=1;fillColor=#99FF99;imageBackground=default;comic=0;snapToPoint=0;fixDash=1;" parent="1" vertex="1">
          <mxGeometry x="969" y="803.75" width="257.88" height="63" as="geometry" />
        </mxCell>
        <mxCell id="LB7Hno4nHKk7k6WSY0Ma-149" value="" style="endArrow=none;dashed=1;html=1;dashPattern=1 3;strokeWidth=6;rounded=0;strokeColor=#FFFFFF;entryX=1;entryY=1;entryDx=0;entryDy=0;arcSize=100;exitX=0.5;exitY=0;exitDx=0;exitDy=0;comic=0;snapToPoint=0;fixDash=1;" parent="1" target="LB7Hno4nHKk7k6WSY0Ma-121" edge="1" source="LB7Hno4nHKk7k6WSY0Ma-98">
          <mxGeometry width="50" height="50" relative="1" as="geometry">
            <mxPoint x="926" y="772" as="sourcePoint" />
            <mxPoint x="723" y="750" as="targetPoint" />
          </mxGeometry>
        </mxCell>
        <mxCell id="LB7Hno4nHKk7k6WSY0Ma-159" value="" style="endArrow=none;dashed=1;html=1;rounded=0;strokeColor=#FFFFFF;entryX=0.5;entryY=1;entryDx=0;entryDy=0;exitX=1;exitY=0;exitDx=0;exitDy=0;strokeWidth=5;comic=0;snapToPoint=0;fixDash=1;" parent="1" source="LB7Hno4nHKk7k6WSY0Ma-63" target="LB7Hno4nHKk7k6WSY0Ma-122" edge="1">
          <mxGeometry width="50" height="50" relative="1" as="geometry">
            <mxPoint x="1203" y="926" as="sourcePoint" />
            <mxPoint x="1253" y="876" as="targetPoint" />
          </mxGeometry>
        </mxCell>
        <mxCell id="LB7Hno4nHKk7k6WSY0Ma-160" value="" style="endArrow=none;dashed=1;html=1;rounded=0;strokeColor=#ffffff;entryX=0;entryY=1;entryDx=0;entryDy=0;exitX=1;exitY=0.25;exitDx=0;exitDy=0;strokeWidth=4;comic=0;snapToPoint=0;fixDash=1;" parent="1" source="LB7Hno4nHKk7k6WSY0Ma-63" target="LB7Hno4nHKk7k6WSY0Ma-124" edge="1">
          <mxGeometry width="50" height="50" relative="1" as="geometry">
            <mxPoint x="1203" y="926" as="sourcePoint" />
            <mxPoint x="1253" y="876" as="targetPoint" />
          </mxGeometry>
        </mxCell>
        <mxCell id="LB7Hno4nHKk7k6WSY0Ma-162" style="edgeStyle=none;rounded=0;orthogonalLoop=1;jettySize=auto;html=1;exitX=0;exitY=0;exitDx=0;exitDy=0;strokeColor=#23445D;comic=0;snapToPoint=0;fixDash=1;" parent="1" source="LB7Hno4nHKk7k6WSY0Ma-98" target="LB7Hno4nHKk7k6WSY0Ma-98" edge="1">
          <mxGeometry relative="1" as="geometry" />
        </mxCell>
        <mxCell id="LB7Hno4nHKk7k6WSY0Ma-163" value="" style="shape=image;html=1;verticalAlign=top;verticalLabelPosition=bottom;labelBackgroundColor=#ffffff;imageAspect=0;aspect=fixed;image=https://cdn1.iconfinder.com/data/icons/ionicons-fill-vol-2/512/logo-docker-128.png;strokeColor=#FFFFFF;fontColor=#FFFFFF;fillColor=#182E3E;comic=0;snapToPoint=0;fixDash=1;" parent="1" vertex="1">
          <mxGeometry x="1343" y="1112.6599999999999" width="140" height="140" as="geometry" />
        </mxCell>
        <mxCell id="LB7Hno4nHKk7k6WSY0Ma-169" style="edgeStyle=none;rounded=0;orthogonalLoop=1;jettySize=auto;html=1;exitX=0.75;exitY=1;exitDx=0;exitDy=0;strokeColor=#fafafa;strokeWidth=6;comic=0;snapToPoint=0;fixDash=1;" parent="1" source="LB7Hno4nHKk7k6WSY0Ma-63" edge="1">
          <mxGeometry relative="1" as="geometry">
            <mxPoint x="791" y="1120" as="targetPoint" />
          </mxGeometry>
        </mxCell>
        <mxCell id="LB7Hno4nHKk7k6WSY0Ma-173" value="" style="endArrow=none;dashed=1;html=1;strokeWidth=4;rounded=0;strokeColor=#FFFFFF;exitX=1;exitY=1;exitDx=0;exitDy=0;entryX=0;entryY=0;entryDx=0;entryDy=0;comic=0;snapToPoint=0;fixDash=1;" parent="1" source="LB7Hno4nHKk7k6WSY0Ma-98" target="LB7Hno4nHKk7k6WSY0Ma-163" edge="1">
          <mxGeometry width="50" height="50" relative="1" as="geometry">
            <mxPoint x="1156" y="920" as="sourcePoint" />
            <mxPoint x="1091" y="1229" as="targetPoint" />
          </mxGeometry>
        </mxCell>
        <mxCell id="LB7Hno4nHKk7k6WSY0Ma-174" value="" style="shape=image;verticalLabelPosition=bottom;labelBackgroundColor=default;verticalAlign=top;aspect=fixed;imageAspect=0;image=data:image/svg+xml,PHN2ZyB4bWxucz0iaHR0cDovL3d3dy53My5vcmcvMjAwMC9zdmciIHZpZXdCb3g9IjAgLTEwLjQ0IDcyMi44NDYgNzIyLjg0NiIgaGVpZ2h0PSI4MDBweCIgd2lkdGg9IjgwMHB4Ij48cGF0aCBmaWxsPSIjMzI2Y2U1IiBkPSJNMzU4Ljk4NiAxMC4wNmE0Ni43MjUgNDYuMzQyIDAgMDAtMTcuOTA2IDQuNTMxTDk2LjczNiAxMzEuMzQxYTQ2LjcyNSA0Ni4zNDIgMCAwMC0yNS4yOCAzMS40MzhsLTYwLjI4MiAyNjIuMjVhNDYuNzI1IDQ2LjM0MiAwIDAwNi4zNDQgMzUuNTMxIDQ2LjcyNSA0Ni4zNDIgMCAwMDIuNjU2IDMuNjg4bDE2OS4xMjUgMjEwLjI4YTQ2LjcyNSA0Ni4zNDIgMCAwMDM2LjUzMSAxNy40MzhsMjcxLjIxOS0uMDYyYTQ2LjcyNSA0Ni4zNDIgMCAwMDM2LjUzMS0xNy40MDZsMTY5LjA2My0yMTAuMzEzYTQ2LjcyNSA0Ni4zNDIgMCAwMDkuMDMtMzkuMjE5TDY1MS4zIDE2Mi43MTZhNDYuNzI1IDQ2LjM0MiAwIDAwLTI1LjI4MS0zMS40MzdMMzgxLjY0MyAxNC41OWE0Ni43MjUgNDYuMzQyIDAgMDAtMjIuNjU3LTQuNTN6Ii8+PHBhdGggZm9udC1mYW1pbHk9IlNhbnMiIG92ZXJmbG93PSJ2aXNpYmxlIiBzdHJva2Utd2lkdGg9Ii4yNSIgc3Ryb2tlPSIjZmZmZmZmIiBmaWxsPSIjZmZmZmZmIiBjb2xvcj0iIzAwMDAwMCIgZm9udC13ZWlnaHQ9IjQwMCIgc3R5bGU9InRleHQtaW5kZW50OjA7dGV4dC1hbGlnbjpzdGFydDtsaW5lLWhlaWdodDpub3JtYWw7dGV4dC10cmFuc2Zvcm06bm9uZTtibG9jay1wcm9ncmVzc2lvbjp0YjttYXJrZXI6bm9uZTstaW5rc2NhcGUtZm9udC1zcGVjaWZpY2F0aW9uOlNhbnMiIGQ9Ik0zNjEuNDA4IDk5LjMwN2MtOC4wNzcuMDAxLTE0LjYyNiA3LjI3Ni0xNC42MjUgMTYuMjUgMCAuMTM4LjAyOC4yNy4wMy40MDYtLjAxMSAxLjIyLS4wNyAyLjY4OS0uMDMgMy43NS4xOTIgNS4xNzYgMS4zMiA5LjEzOCAyIDEzLjkwNyAxLjIzIDEwLjIwNiAyLjI2IDE4LjY2NyAxLjYyNSAyNi41MzEtLjYyIDIuOTY1LTIuODAzIDUuNjc3LTQuNzUgNy41NjJsLS4zNDQgNi4xODhhMTkwLjMzNyAxOTAuMzM3IDAgMDAtMjYuNDM4IDQuMDYyYy0zNy45NzQgOC42MjMtNzAuNjcgMjguMTg0LTk1LjU2MiA1NC41OTRhMjQ1LjE2NyAyNDUuMTY3IDAgMDEtNS4yODEtMy43NWMtMi42MTIuMzUzLTUuMjUgMS4xNTktOC42ODgtLjg0NC02LjU0NS00LjQwNS0xMi41MDYtMTAuNDg2LTE5LjcxOS0xNy44MTItMy4zMDUtMy41MDQtNS42OTgtNi44NDEtOS42MjUtMTAuMjE5LS44OTEtLjc2Ny0yLjI1Mi0xLjgwNC0zLjI1LTIuNTk0LTMuMDctMi40NDctNi42OS0zLjcyNC0xMC4xODctMy44NDMtNC40OTYtLjE1NC04LjgyNCAxLjYwNC0xMS42NTYgNS4xNTYtNS4wMzYgNi4zMTUtMy40MjQgMTUuOTY4IDMuNTkzIDIxLjU2Mi4wNzEuMDU3LjE0Ny4xMDEuMjE5LjE1Ny45NjQuNzgxIDIuMTQ1IDEuNzgzIDMuMDMxIDIuNDM3IDQuMTY3IDMuMDc3IDcuOTczIDQuNjUyIDEyLjEyNSA3LjA5NCA4Ljc0NyA1LjQwMiAxNS45OTkgOS44OCAyMS43NSAxNS4yODEgMi4yNDYgMi4zOTQgMi42MzkgNi42MTMgMi45MzggOC40MzhsNC42ODcgNC4xODdjLTI1LjA5MyAzNy43NjQtMzYuNzA3IDg0LjQxLTI5Ljg0MyAxMzEuOTM4bC02LjEyNSAxLjc4MWMtMS42MTUgMi4wODUtMy44OTYgNS4zNjUtNi4yODIgNi4zNDQtNy41MjUgMi4zNy0xNS45OTQgMy4yNC0yNi4yMTggNC4zMTItNC44LjQtOC45NDMuMTYxLTE0LjAzMiAxLjEyNS0xLjEyLjIxMi0yLjY4LjYxOS0zLjkwNi45MDZsLS4xMjUuMDMyYy0uMDY3LjAxNS0uMTU1LjA0OC0uMjE5LjA2Mi04LjYyIDIuMDgzLTE0LjE1NyAxMC4wMDYtMTIuMzc1IDE3LjgxMyAxLjc4MyA3LjgwOCAxMC4yMDMgMTIuNTU2IDE4Ljg3NSAxMC42ODcuMDYzLS4wMTQuMTU0LS4wMTcuMjE5LS4wMzEuMDk4LS4wMjIuMTg0LS4wNy4yODEtLjA5NCAxLjIxLS4yNjUgMi43MjQtLjU2IDMuNzgyLS44NDMgNS4wMDMtMS4zNCA4LjYyNi0zLjMwOCAxMy4xMjUtNS4wMzIgOS42NzYtMy40NyAxNy42OTEtNi4zNyAyNS41LTcuNSAzLjI2LS4yNTUgNi42OTcgMi4wMTIgOC40MDYgMi45NjlsNi4zNzUtMS4wOTRjMTQuNjcgNDUuNDgzIDQ1LjQxNCA4Mi4yNDUgODQuMzQ0IDEwNS4zMTNsLTIuNjU3IDYuMzc1Yy45NTggMi40NzUgMi4wMTQgNS44MjQgMS4zIDguMjctMi44MzggNy4zNi03LjcgMTUuMTMtMTMuMjM3IDIzLjc5Mi0yLjY4MSA0LjAwMi01LjQyNSA3LjEwOC03Ljg0NCAxMS42ODgtLjU3OSAxLjA5Ni0xLjMxNiAyLjc4LTEuODc1IDMuOTM3LTMuNzU5IDguMDQzLTEuMDAyIDE3LjMwNSA2LjIxOSAyMC43ODIgNy4yNjYgMy40OTcgMTYuMjg0LS4xOTIgMjAuMTg3LTguMjUuMDA2LS4wMTIuMDI2LS4wMi4wMzEtLjAzMi4wMDQtLjAwOS0uMDA0LS4wMjIgMC0uMDMuNTU2LTEuMTQzIDEuMzQ0LTIuNjQ1IDEuODEzLTMuNzIgMi4wNzItNC43NDcgMi43NjItOC44MTUgNC4yMTktMTMuNDA2IDMuODctOS43MiA1Ljk5NS0xOS45MTkgMTEuMzIyLTI2LjI3NCAxLjQ1OS0xLjc0IDMuODM3LTIuNDEgNi4zMDMtMy4wN2wzLjMxMi02YzMzLjkzOCAxMy4wMjcgNzEuOTI3IDE2LjUyMyAxMDkuODc1IDcuOTA3YTE4OS43NyAxODkuNzcgMCAwMDI1LjA5NC03LjU2M2MuOTMgMS42NTEgMi42NjEgNC44MjYgMy4xMjUgNS42MjUgMi41MDYuODE1IDUuMjQgMS4yMzYgNy40NjkgNC41MzEgMy45ODUgNi44MSA2LjcxIDE0Ljg2NSAxMC4wMzEgMjQuNTk0IDEuNDU3IDQuNTkxIDIuMTc4IDguNjYgNC4yNSAxMy40MDYuNDcyIDEuMDgyIDEuMjU2IDIuNjA1IDEuODEyIDMuNzUgMy44OTUgOC4wODUgMTIuOTQzIDExLjc4NyAyMC4yMiA4LjI4MiA3LjIxOS0zLjQ3OCA5Ljk3OS0xMi43NCA2LjIxOC0yMC43ODItLjU1OS0xLjE1OC0xLjMyNy0yLjg0MS0xLjkwNi0zLjkzNy0yLjQyLTQuNTgtNS4xNjMtNy42NTUtNy44NDQtMTEuNjU2LTUuNTM3LTguNjYyLTEwLjEzLTE1Ljg1OC0xMi45NjktMjMuMjItMS4xODctMy43OTYuMi02LjE1NyAxLjEyNS04LjYyNC0uNTU0LS42MzUtMS43MzktNC4yMi0yLjQzNy01LjkwNiA0MC40NTctMjMuODg5IDcwLjI5OC02Mi4wMjIgODQuMzEyLTEwNi4wNjMgMS44OTMuMjk4IDUuMTgyLjg4IDYuMjUgMS4wOTQgMi4yLTEuNDUgNC4yMjItMy4zNDQgOC4xODgtMy4wMzEgNy44MDggMS4xMjkgMTUuODIzIDQuMDMgMjUuNSA3LjUgNC40OTggMS43MjMgOC4xMjEgMy43MjMgMTMuMTI1IDUuMDYyIDEuMDU3LjI4MyAyLjU3Mi41NDcgMy43ODEuODEzLjA5Ny4wMjMuMTgzLjA3MS4yODEuMDkzLjA2Ni4wMTUuMTU2LjAxNy4yMTkuMDMyIDguNjcyIDEuODY2IDE3LjA5NC0yLjg4IDE4Ljg3NS0xMC42ODggMS43OC03LjgwNy0zLjc1NC0xNS43MzItMTIuMzc1LTE3LjgxMi0xLjI1NC0uMjg2LTMuMDMyLS43Ny00LjI1LTEtNS4wOS0uOTY0LTkuMjMxLS43MjctMTQuMDMxLTEuMTI1LTEwLjIyNS0xLjA3Mi0xOC42OTQtMS45NDMtMjYuMjE5LTQuMzEzLTMuMDY4LTEuMTktNS4yNTEtNC44NDEtNi4zMTMtNi4zNDRsLTUuOTA2LTEuNzE4YzMuMDYyLTIyLjE1NSAyLjIzNy00NS4yMTItMy4wNjItNjguMjgyLTUuMzQ5LTIzLjI4NC0xNC44LTQ0LjU4LTI3LjQwNy02My4zNDMgMS41MTUtMS4zNzggNC4zNzctMy45MTEgNS4xODgtNC42NTcuMjM3LTIuNjI0LjAzMy01LjM3NSAyLjc1LTguMjgxIDUuNzUxLTUuNCAxMy4wMDMtOS44NzkgMjEuNzUtMTUuMjgxIDQuMTUyLTIuNDQzIDcuOTktNC4wMTcgMTIuMTU2LTcuMDk0Ljk0Mi0uNjk2IDIuMjMtMS43OTggMy4yMTktMi41OTQgNy4wMTUtNS41OTYgOC42My0xNS4yNDggMy41OTQtMjEuNTYyLTUuMDM3LTYuMzE0LTE0Ljc5Ny02LjkxLTIxLjgxMy0xLjMxMy0uOTk4Ljc5MS0yLjM1MyAxLjgyMy0zLjI1IDIuNTk0LTMuOTI2IDMuMzc4LTYuMzUxIDYuNzE0LTkuNjU2IDEwLjIxOS03LjIxMyA3LjMyNi0xMy4xNzQgMTMuNDM4LTE5LjcxOSAxNy44NDQtMi44MzYgMS42NS02Ljk5IDEuMDgtOC44NzUuOTY4bC01LjU2MiAzLjk2OWMtMzEuNzItMzMuMjYtNzQuOTA1LTU0LjUyNS0xMjEuNDA2LTU4LjY1Ni0uMTMtMS45NDktLjMtNS40NzEtLjM0NC02LjUzMi0xLjkwNC0xLjgyMS00LjIwNC0zLjM3Ni00Ljc4MS03LjMxMi0uNjM3LTcuODY0LjQyNi0xNi4zMjUgMS42NTYtMjYuNTMxLjY3OS00Ljc2OSAxLjgwNy04LjczIDItMTMuOTA3LjA0NC0xLjE3Ni0uMDI3LTIuODg0LS4wMzEtNC4xNTYtLjAwMS04Ljk3NC02LjU0OC0xNi4yNS0xNC42MjUtMTYuMjV6bS0xOC4zMTMgMTEzLjQzOGwtNC4zNDQgNzYuNzE4LS4zMTIuMTU3Yy0uMjkyIDYuODYzLTUuOTQgMTIuMzQzLTEyLjg3NSAxMi4zNDMtMi44NDEgMC01LjQ2My0uOTEyLTcuNTk0LTIuNDY4bC0uMTI1LjA2Mi02Mi45MDYtNDQuNTk0YzE5LjMzMy0xOS4wMSA0NC4wNjMtMzMuMDYgNzIuNTYyLTM5LjUzYTE1NC4xMjUgMTU0LjEyNSAwIDAxMTUuNTk0LTIuNjg4em0zNi42NTYgMGMzMy4yNzQgNC4wOTIgNjQuMDQ1IDE5LjE1OSA4Ny42MjUgNDIuMjVsLTYyLjUgNDQuMzEyLS4yMTgtLjA5M2MtNS41NDggNC4wNTEtMTMuMzY0IDMuMDQ2LTE3LjY4OC0yLjM3NWExMi44MDcgMTIuODA3IDAgMDEtMi44MTItNy40N2wtLjA2My0uMDN6TTIzMi4xMjYgMjgzLjYybDU3LjQzOCA1MS4zNzUtLjA2My4zMTJjNS4xODUgNC41MDcgNS45NSAxMi4zMjggMS42MjUgMTcuNzVhMTIuODkyIDEyLjg5MiAwIDAxLTYuNjg3IDQuNDA2bC0uMDYzLjI1LTczLjYyNSAyMS4yNWMtMy43NDctMzQuMjY1IDQuMzI5LTY3LjU3MyAyMS4zNzUtOTUuMzQzem0yNTguMTU3LjAzYzguNTM0IDEzLjgzMyAxNC45OTYgMjkuMjgzIDE4Ljg0MyA0Ni4wMzIgMy44MDEgMTYuNTQ4IDQuNzU1IDMzLjA2NyAzLjE4OCA0OS4wMzFsLTc0LTIxLjMxMi0uMDYzLS4zMTNjLTYuNjI2LTEuODEtMTAuNjk5LTguNTUxLTkuMTU2LTE1LjMxMmExMi43ODYgMTIuNzg2IDAgMDE0LjA5NC02Ljg0NGwtLjAzMS0uMTU2IDU3LjEyNS01MS4xMjV6bS0xNDAuNjU3IDU1LjMxM2gyMy41MzJsMTQuNjI1IDE4LjI4Mi01LjI1IDIyLjgxMi0yMS4xMjUgMTAuMTU2LTIxLjE4OC0xMC4xODctNS4yNS0yMi44MTN6bTc1LjQzOCA2Mi41NjNjMS0uMDUgMS45OTUuMDQgMi45NjkuMjE5bC4xMjUtLjE1NyA3Ni4xNTYgMTIuODc1Yy0xMS4xNDYgMzEuMzE0LTMyLjQ3MyA1OC40NC02MC45NjkgNzYuNTk0bC0yOS41NjItNzEuNDA2LjA5My0uMTI1Yy0yLjcxNS02LjMxLjAwMi0xMy43MSA2LjI1LTE2LjcxOSAxLjYtLjc3IDMuMjcxLTEuMTk3IDQuOTM4LTEuMjgxem0tMTI3LjkwNi4zMTJjNS44MTEuMDgyIDExLjAyNCA0LjExNiAxMi4zNzUgMTAuMDMyLjYzMiAyLjc3LjMyNCA1LjUxMy0uNzIgNy45MzdsLjIyLjI4MS0yOS4yNSA3MC42ODhjLTI3LjM0OC0xNy41NDktNDkuMTMtNDMuODI0LTYwLjc4Mi03Ni4wNjNsNzUuNS0xMi44MTIuMTI1LjE1NmMuODQ1LS4xNTUgMS43MDEtLjIzIDIuNTMyLS4yMTl6bTYzLjc4IDMwLjk3YTEyLjc2NCAxMi43NjQgMCAwMTYuMDMyIDEuMjhjMi41NiAxLjIzMyA0LjUzNyAzLjE3NCA1Ljc4MSA1LjVoLjI4MmwzNy4yMTggNjcuMjVhMTU0LjI1NiAxNTQuMjU2IDAgMDEtMTQuODc1IDQuMTU3Yy0yOC40NjQgNi40NjMtNTYuODM4IDQuNTA0LTgyLjUzLTQuMjVsMzcuMTI0LTY3LjEyNWguMDYzYTEyLjkxIDEyLjkxIDAgMDExMC45MDYtNi44MTN6Ii8+PC9zdmc+;comic=0;snapToPoint=0;fixDash=1;" parent="1" vertex="1">
          <mxGeometry x="623.33" y="1438" width="133" height="133" as="geometry" />
        </mxCell>
        <mxCell id="LB7Hno4nHKk7k6WSY0Ma-125" value="" style="shape=image;verticalLabelPosition=bottom;labelBackgroundColor=default;verticalAlign=top;aspect=fixed;imageAspect=0;image=data:image/svg+xml,PHN2ZyB4bWxuczp4bGluaz0iaHR0cDovL3d3dy53My5vcmcvMTk5OS94bGluayIgeG1sbnM9Imh0dHA6Ly93d3cudzMub3JnLzIwMDAvc3ZnIiB4bWw6c3BhY2U9InByZXNlcnZlIiB2aWV3Qm94PSIwIDAgNDgyLjk5NyA0ODIuOTk3IiBpZD0iTGF5ZXJfMSIgdmVyc2lvbj0iMS4xIiB3aWR0aD0iODAwcHgiIGhlaWdodD0iODAwcHgiPiYjeGE7PHBhdGggZD0iTTI0OS41NjksNzguNTMzVjExLjQ0NWMwLTQuNDUtMy42MTYtOC4wNjYtOC4wNzQtOC4wNjZjLTQuNDUsMC04LjA2NiwzLjYxNi04LjA2Niw4LjA2NnY3NC42NjUmIzEwOyYjOTtjMCw0LjQ0MywzLjYxNiw4LjA1OCw4LjA2Niw4LjA1OGMwLjUwNCwwLDEuMDA4LTAuMDM5LDEuNDg5LTAuMTQyYzE3LjI5OCwwLjc4OCwzMS4xNDUsMTUuMDYxLDMxLjE0NSwzMi41NTUmIzEwOyYjOTtjMCwxNy45NzUtMTQuNjM1LDMyLjYyNi0zMi42MzQsMzIuNjI2Yy0xNy45ODMsMC0zMi42MzQtMTQuNjQzLTMyLjYzNC0zMi42MjZoLTE2LjE0OGMwLDI2Ljg5MiwyMS44OTgsNDguNzY2LDQ4Ljc3NCw0OC43NjYmIzEwOyYjOTtjMjYuOSwwLDQ4Ljc3NC0yMS44NzQsNDguNzc0LTQ4Ljc2NkMyOTAuMjY5LDEwMi40NTUsMjcyLjYxNiw4Mi40LDI0OS41NjksNzguNTMzeiIgc3R5bGU9ImZpbGw6IzkxQURCNTsiLz4mI3hhOzxnPiYjeGE7CTxwYXRoIGQ9Ik0yNDEuNDk1LDc3LjU4OGMwLjUwNCwwLDEuMDA4LTAuMDU1LDEuNDg5LTAuMTVjMi4yNzYsMC4xMDIsNC40NjYsMC40NDksNi41ODUsMC45ODVWNjEuOTQ0VjExLjQ0NSYjMTA7JiM5OyYjOTtjMC00LjQ1LTMuNjE2LTguMDY2LTguMDc0LTguMDY2Yy00LjQ1LDAtOC4wNjYsMy42MTYtOC4wNjYsOC4wNjZ2NTguMDc3QzIzMy40MjEsNzMuOTY0LDIzNy4wNDQsNzcuNTg4LDI0MS40OTUsNzcuNTg4eiIgc3R5bGU9ImZpbGw6I0E4QzZDQzsiLz4mI3hhOwk8cGF0aCBkPSJNMjg5LjUxMiwxMTguMTdjLTMuNDUtMTkuODEtMTguOTYtMzUuNTAxLTM4LjY2LTM5LjM1M2MxMy40Myw0LjA0MSwyMy4yNjgsMTYuNDQ3LDIzLjI2OCwzMS4xODUmIzEwOyYjOTsmIzk7YzAsMi44NTEtMC40MSw1LjYyNC0xLjExOCw4LjI3MWMwLjcwOSwyLjY3LDEuMTE4LDUuNDM1LDEuMTE4LDguMzE4YzAsMTQuNzY5LTkuOTAxLDI3LjI3OC0yMy40MTgsMzEuMjY0JiMxMDsmIzk7JiM5O0MyNzAuNTQ1LDE1NC4wMzMsMjg2LjEyNSwxMzguMTc3LDI4OS41MTIsMTE4LjE3eiIgc3R5bGU9ImZpbGw6I0E4QzZDQzsiLz4mI3hhOwk8cGF0aCBkPSJNMjA4Ljg2MSwxMjYuNTgyaC0xMy4xN2M1Ljc5LDE1LjkxOSwxOS42MTQsMjguMDEsMzYuNTg4LDMxLjI2NCYjMTA7JiM5OyYjOTtDMjE4Ljc2MiwxNTMuODYsMjA4Ljg2MSwxNDEuMzUxLDIwOC44NjEsMTI2LjU4MnoiIHN0eWxlPSJmaWxsOiNBOEM2Q0M7Ii8+JiN4YTs8L2c+JiN4YTs8cGF0aCBkPSJNMjcyLjA5NiwyMy41NDRjMCwyLjk3Ny0yLjQxLDUuMzg4LTUuMzcyLDUuMzg4aC01MC40NTJjLTIuOTg1LDAtNS4zOC0yLjQxLTUuMzgtNS4zODhWNS4zOCYjMTA7JiM5O2MwLTIuOTc3LDIuMzk1LTUuMzgsNS4zOC01LjM4aDUwLjQ1MmMyLjk2MiwwLDUuMzcyLDIuNDAyLDUuMzcyLDUuMzhWMjMuNTQ0eiIgc3R5bGU9ImZpbGw6IzYwODM4NzsiLz4mI3hhOzxwYXRoIGQ9Ik04OS43MDYsMzI1LjQ5Yy0yLjkzLDAtNS44NDUtMS4xMjYtOC4wODItMy4zNTYmIzEwOyYjOTtjLTQuNDY2LTQuNDY2LTQuNDY2LTExLjY5NywwLTE2LjE3MWwxNTEuNzgtMTUxLjc4YzQuNDY2LTQuNDU4LDExLjcwNS00LjQ1OCwxNi4xNzEsMGwxNTEuNzgsMTUxLjc4JiMxMDsmIzk7YzQuNDY2LDQuNDY2LDQuNDY2LDExLjY5NywwLDE2LjE3MWMtNC40NjYsNC40NTgtMTEuNjk3LDQuNDU4LTE2LjE2MywwTDI0MS40OTUsMTc4LjQzNkw5Ny43ODgsMzIyLjEzNSYjMTA7JiM5O0M5NS41NTksMzI0LjM3Miw5Mi42MjksMzI1LjQ5LDg5LjcwNiwzMjUuNDl6IiBzdHlsZT0iZmlsbDojOTFBREI1OyIgaWQ9IlNWR0NsZWFuZXJJZF8wIi8+JiN4YTs8cGF0aCBkPSJNNDY5LjkyNSw0NjguMTAyYzAsOC4yMjMtNi42NjQsMTQuODk1LTE0Ljg5NSwxNC44OTVIMjcuOTY3Yy04LjIzMSwwLTE0LjkwMy02LjY3Mi0xNC45MDMtMTQuODk1JiMxMDsmIzk7VjMwNS40NTFjMC04LjIzMSw2LjY3Mi0xNC45MDMsMTQuOTAzLTE0LjkwM2g0MjcuMDcxYzguMjMxLDAsMTQuODk1LDYuNjcyLDE0Ljg5NSwxNC45MDN2MTYyLjY1MUg0NjkuOTI1eiIgc3R5bGU9ImZpbGw6IzEwNEZCNTsiLz4mI3hhOzxnPiYjeGE7CTxwYXRoIGQ9Ik04OS43MDYsMzI1LjQ5Yy0yLjkzLDAtNS44NDUtMS4xMjYtOC4wODItMy4zNTYmIzEwOyYjOTsmIzk7Yy00LjQ2Ni00LjQ2Ni00LjQ2Ni0xMS42OTcsMC0xNi4xNzFsMTUxLjc4LTE1MS43OGM0LjQ2Ni00LjQ1OCwxMS43MDUtNC40NTgsMTYuMTcxLDBsMTUxLjc4LDE1MS43OCYjMTA7JiM5OyYjOTtjNC40NjYsNC40NjYsNC40NjYsMTEuNjk3LDAsMTYuMTcxYy00LjQ2Niw0LjQ1OC0xMS42OTcsNC40NTgtMTYuMTYzLDBMMjQxLjQ5NSwxNzguNDM2TDk3Ljc4OCwzMjIuMTM1JiMxMDsmIzk7JiM5O0M5NS41NTksMzI0LjM3Miw5Mi42MjksMzI1LjQ5LDg5LjcwNiwzMjUuNDl6IiBzdHlsZT0iZmlsbDojOTFBREI1OyIgaWQ9IlNWR0NsZWFuZXJJZF8wXzFfIi8+JiN4YTs8L2c+JiN4YTs8cGF0aCBkPSJNOTcuNTA1LDMyMS44NDNsMTUxLjc4OC0xNTEuNzg4YzQuNDY2LTQuNDUsMTEuNjY2LTQuNDUsMTYuMTMyLTAuMDE2bC0xNS44NDgtMTUuODU2JiMxMDsmIzk7Yy00LjQ2Ni00LjQ1OC0xMS43MDUtNC40NTgtMTYuMTcxLDBMODEuNjI1LDMwNS45NzFjLTQuNDY2LDQuNDY2LTQuNDY2LDExLjY5NywwLDE2LjE3MWMyLjIzNywyLjIyOSw1LjE1MiwzLjM1Niw4LjA4MiwzLjM1NiYjMTA7JiM5O2MyLjU5MiwwLDUuMTItMS4wMzIsNy4yMzEtMi43ODhDOTcuMTY2LDMyMi40MzQsOTcuMjUyLDMyMi4wODcsOTcuNTA1LDMyMS44NDN6IiBzdHlsZT0iZmlsbDojQThDNkNDOyIvPiYjeGE7PHBhdGggZD0iTTQ2OS45MjUsNDY4LjEwMlYzMDUuNDUxYzAtOC4yMzEtNi42NjQtMTQuOTAzLTE0Ljg5NS0xNC45MDNIMzEzLjc1OCYjMTA7JiM5O2MtOC4yMzEsMC0xNC44OTUsNi42NzItMTQuODk1LDE0LjkwM3YxNjIuNjQzYzAsOC4yMjMsNi42NjQsMTQuODk1LDE0Ljg5NSwxNC44OTVoMTQxLjI4JiMxMDsmIzk7QzQ2My4yNjIsNDgyLjk4OSw0NjkuOTI1LDQ3Ni4zMjUsNDY5LjkyNSw0NjguMTAyeiIgc3R5bGU9ImZpbGw6IzNCQUJGRjsiLz4mI3hhOzxnPiYjeGE7CTxwYXRoIGQ9Ik0zMTMuNzU4LDI5MC41NTZjLTguMjMxLDAtMTQuODk1LDYuNjcyLTE0Ljg5NSwxNC45MDN2MTYyLjY0M2MwLDguMjIzLDYuNjY0LDE0Ljg5NSwxNC44OTUsMTQuODk1JiMxMDsmIzk7JiM5O2gxNDEuMjhjOC4yMzEsMCwxNC44OTUtNi42NzIsMTQuODk1LTE0Ljg5NSIgc3R5bGU9ImZpbGw6IzE0OERFMDsiLz4mI3hhOwk8cGF0aCBkPSJNNDkuNTczLDQ0My45MjhjMCwyLjExOS0xLjcwMSwzLjgxMi0zLjgxMiwzLjgxMmwwLDBjLTIuMTAzLDAtMy44MTItMS43MDEtMy44MTItMy44MTJ2LTExNC4zMSYjMTA7JiM5OyYjOTtjMC0yLjEwMywxLjcwOS0zLjgxMiwzLjgxMi0zLjgxMmwwLDBjMi4xMTEsMCwzLjgxMiwxLjcxNywzLjgxMiwzLjgxMlY0NDMuOTI4eiIgc3R5bGU9ImZpbGw6IzE0OERFMDsiLz4mI3hhOwk8cGF0aCBkPSJNNzcuNTM2LDQ0My45MjhjMCwyLjExOS0xLjcwOSwzLjgxMi0zLjgxMiwzLjgxMmwwLDBjLTIuMTExLDAtMy44MTItMS43MDEtMy44MTItMy44MTJ2LTExNC4zMSYjMTA7JiM5OyYjOTtjMC0yLjEwMywxLjcwMS0zLjgxMiwzLjgxMi0zLjgxMmwwLDBjMi4xMDMsMCwzLjgxMiwxLjcxNywzLjgxMiwzLjgxMlY0NDMuOTI4eiIgc3R5bGU9ImZpbGw6IzE0OERFMDsiLz4mI3hhOwk8cGF0aCBkPSJNMTA1LjQ2OCw0NDMuOTI4YzAsMi4xMTktMS43MTcsMy44MTItMy44MTIsMy44MTJsMCwwYy0yLjExMSwwLTMuODEyLTEuNzAxLTMuODEyLTMuODEydi0xMTQuMzEmIzEwOyYjOTsmIzk7YzAtMi4xMDMsMS43MDEtMy44MTIsMy44MTItMy44MTJsMCwwYzIuMDk1LDAsMy44MTIsMS43MTcsMy44MTIsMy44MTJWNDQzLjkyOHoiIHN0eWxlPSJmaWxsOiMxNDhERTA7Ii8+JiN4YTsJPHBhdGggZD0iTTEzMy40MjMsNDQzLjkyOGMwLDIuMTE5LTEuNzA5LDMuODEyLTMuODA1LDMuODEybDAsMGMtMi4xMTksMC0zLjgxMi0xLjcwMS0zLjgxMi0zLjgxMnYtMTE0LjMxJiMxMDsmIzk7JiM5O2MwLTIuMTAzLDEuNjk0LTMuODEyLDMuODEyLTMuODEybDAsMGMyLjA5NSwwLDMuODA1LDEuNzE3LDMuODA1LDMuODEyVjQ0My45Mjh6IiBzdHlsZT0iZmlsbDojMTQ4REUwOyIvPiYjeGE7CTxwYXRoIGQ9Ik0xNjEuMzYzLDQ0My45MjhjMCwyLjExOS0xLjcwMSwzLjgxMi0zLjgxMiwzLjgxMmwwLDBjLTIuMTAzLDAtMy44MTItMS43MDEtMy44MTItMy44MTJ2LTExNC4zMSYjMTA7JiM5OyYjOTtjMC0yLjEwMywxLjcwOS0zLjgxMiwzLjgxMi0zLjgxMmwwLDBjMi4xMTEsMCwzLjgxMiwxLjcxNywzLjgxMiwzLjgxMlY0NDMuOTI4eiIgc3R5bGU9ImZpbGw6IzE0OERFMDsiLz4mI3hhOwk8cGF0aCBkPSJNMTg5LjMwMiw0NDMuOTI4YzAsMi4xMTktMS42OTQsMy44MTItMy44MDUsMy44MTJsMCwwYy0yLjEwMywwLTMuODEyLTEuNzAxLTMuODEyLTMuODEydi0xMTQuMzEmIzEwOyYjOTsmIzk7YzAtMi4xMDMsMS43MDktMy44MTIsMy44MTItMy44MTJsMCwwYzIuMTE5LDAsMy44MDUsMS43MTcsMy44MDUsMy44MTJWNDQzLjkyOHoiIHN0eWxlPSJmaWxsOiMxNDhERTA7Ii8+JiN4YTsJPHBhdGggZD0iTTIxNy4yNTcsNDQzLjkyOGMwLDIuMTE5LTEuNzE3LDMuODEyLTMuODEyLDMuODEybDAsMGMtMi4xMTksMC0zLjgxMi0xLjcwMS0zLjgxMi0zLjgxMnYtMTE0LjMxJiMxMDsmIzk7JiM5O2MwLTIuMTAzLDEuNjk0LTMuODEyLDMuODEyLTMuODEybDAsMGMyLjA5NSwwLDMuODEyLDEuNzE3LDMuODEyLDMuODEyVjQ0My45Mjh6IiBzdHlsZT0iZmlsbDojMTQ4REUwOyIvPiYjeGE7CTxwYXRoIGQ9Ik0yNDUuMjA1LDQ0My45MjhjMCwyLjExOS0xLjcwMSwzLjgxMi0zLjgxMiwzLjgxMmwwLDBjLTIuMTAzLDAtMy44MDUtMS43MDEtMy44MDUtMy44MTJ2LTExNC4zMSYjMTA7JiM5OyYjOTtjMC0yLjEwMywxLjcwMS0zLjgxMiwzLjgwNS0zLjgxMmwwLDBjMi4xMTEsMCwzLjgxMiwxLjcxNywzLjgxMiwzLjgxMlY0NDMuOTI4eiIgc3R5bGU9ImZpbGw6IzE0OERFMDsiLz4mI3hhOwk8cGF0aCBkPSJNMjczLjE1Miw0NDMuOTI4YzAsMi4xMTktMS43MDEsMy44MTItMy44MTIsMy44MTJsMCwwYy0yLjEwMywwLTMuODEyLTEuNzAxLTMuODEyLTMuODEydi0xMTQuMzEmIzEwOyYjOTsmIzk7YzAtMi4xMDMsMS43MDktMy44MTIsMy44MTItMy44MTJsMCwwYzIuMTExLDAsMy44MTIsMS43MTcsMy44MTIsMy44MTJWNDQzLjkyOHoiIHN0eWxlPSJmaWxsOiMxNDhERTA7Ii8+JiN4YTs8L2c+JiN4YTs8cGF0aCBkPSJNNDIyLjI1NCwzNjUuNDY2bC0yOS4zNTctMjkuMzU3Yy00LjY4Ny00LjcxLTEyLjMzNS00LjcxLTE3LjAzLDBsLTI5LjM1NywyOS4zNTcmIzEwOyYjOTtjLTQuNzAzLDQuNzEtNC43MDMsMTIuMzM1LDAsMTcuMDQ2YzQuNzEsNC43MDMsMTIuMzQzLDQuNzAzLDE3LjA0NiwwbDExLjc5Mi0xMS43OTJ2MzAuODQ2YzAsNC45ODYsNC4wNDksOS4wMjcsOS4wMzUsOS4wMjcmIzEwOyYjOTtzOS4wMzUtNC4wNDksOS4wMzUtOS4wMjdWMzcwLjcybDExLjc5MiwxMS43OTJjMi4zNTUsMi4zNTUsNS40NDMsMy41MjEsOC41MzEsMy41MjFzNi4xNi0xLjE2Niw4LjUxNS0zLjUyMSYjMTA7JiM5O0M0MjYuOTU3LDM3Ny44MDksNDI2Ljk1NywzNzAuMTc2LDQyMi4yNTQsMzY1LjQ2NnoiIHN0eWxlPSJmaWxsOiMzQkFCRkY7Ii8+JiN4YTs8cGF0aCBkPSJNMzkyLjkwNSwzMzYuMTE2Yy00LjY4Ny00LjcxLTEyLjMzNS00LjcxLTE3LjAzLDBsLTI2LjM0OCwyNi4zNDhsMTcuMDM4LDE3LjA0Nmw4Ljc4My04Ljc4M3YxNy41NTgmIzEwOyYjOTtsMTcuMTY0LDE3LjE4YzAuNTY3LTEuMTg5LDAuOTE0LTIuNDgxLDAuOTE0LTMuODgzdi0zMC44NDZsMTEuNzkyLDExLjc5MmMyLjM1NSwyLjM1NSw1LjQ0MywzLjUyMSw4LjUzMSwzLjUyMSYjMTA7JiM5O3M2LjE2LTEuMTY2LDguNTE1LTMuNTIxYzQuNzAzLTQuNzEsNC43MDMtMTIuMzM1LDAtMTcuMDQ2TDM5Mi45MDUsMzM2LjExNnoiIHN0eWxlPSJmaWxsOiMxMDRGQjU7Ii8+JiN4YTs8cGF0aCBkPSJNNDA4Ljg2NCw0MjIuODczaC00OC45MzljLTUuMDAyLDAtOS4wMzUsNC4wNTctOS4wMzUsOS4wMzVjMCw0Ljk5NCw0LjAzMyw5LjAzNSw5LjAzNSw5LjAzNWg0OC45MzkmIzEwOyYjOTtjNC45ODYsMCw5LjAzNS00LjA0OSw5LjAzNS05LjAzNUM0MTcuODk4LDQyNi45MjksNDEzLjg0Miw0MjIuODczLDQwOC44NjQsNDIyLjg3M3oiIHN0eWxlPSJmaWxsOiMzQkFCRkY7Ii8+JiN4YTs8L3N2Zz4=;comic=0;snapToPoint=0;fixDash=1;" parent="1" vertex="1">
          <mxGeometry x="1347" y="1396" width="144" height="144" as="geometry" />
        </mxCell>
        <mxCell id="LB7Hno4nHKk7k6WSY0Ma-184" style="edgeStyle=none;rounded=0;orthogonalLoop=1;jettySize=auto;html=1;exitX=1;exitY=0.5;exitDx=0;exitDy=0;strokeColor=#FFFFFF;strokeWidth=6;comic=0;snapToPoint=0;fixDash=1;" parent="1" source="LB7Hno4nHKk7k6WSY0Ma-179" target="LB7Hno4nHKk7k6WSY0Ma-180" edge="1">
          <mxGeometry relative="1" as="geometry" />
        </mxCell>
        <mxCell id="LB7Hno4nHKk7k6WSY0Ma-179" value="" style="shape=image;verticalLabelPosition=bottom;labelBackgroundColor=#e50914;verticalAlign=top;aspect=fixed;imageAspect=0;image=data:image/svg+xml,PHN2ZyB4bWxucz0iaHR0cDovL3d3dy53My5vcmcvMjAwMC9zdmciIGZpbGw9Im5vbmUiIHZpZXdCb3g9IjAgMCAxNiAxNiIgaGVpZ2h0PSI4MDBweCIgd2lkdGg9IjgwMHB4Ij4mI3hhOyYjeGE7PHBhdGggZD0iTTQuNTEgNy42ODdjMCAuMTk3LjAyLjM1Ny4wNTguNDc1LjA0Mi4xMTcuMDk2LjI0NS4xNy4zODRhLjIzMy4yMzMgMCAwMS4wMzcuMTIzYzAgLjA1My0uMDMyLjEwNy0uMS4xNmwtLjMzNi4yMjRhLjI1NS4yNTUgMCAwMS0uMTM4LjA0OGMtLjA1NCAwLS4xMDctLjAyNi0uMTYtLjA3NGExLjY1MiAxLjY1MiAwIDAxLS4xOTItLjI1MSA0LjEzNyA0LjEzNyAwIDAxLS4xNjUtLjMxNWMtLjQxNS40OTEtLjkzNi43MzctMS41NjQuNzM3LS40NDcgMC0uODA0LS4xMjktMS4wNjQtLjM4NS0uMjYxLS4yNTYtLjM5NC0uNTk4LS4zOTQtMS4wMjUgMC0uNDU0LjE2LS44MjIuNDg0LTEuMS4zMjUtLjI3OC43NTYtLjQxNiAxLjMwNC0uNDE2LjE4IDAgLjM2Ny4wMTYuNTY0LjA0Mi4xOTcuMDI3LjQuMDcuNjEyLjExOHYtLjM5YzAtLjQwNi0uMDg1LS42ODktLjI1LS44NTQtLjE3LS4xNjYtLjQ1OC0uMjQ2LS44NjgtLjI0Ni0uMTg2IDAtLjM3Ny4wMjItLjU3NC4wN2E0LjIzIDQuMjMgMCAwMC0uNTc1LjE4MSAxLjUyNSAxLjUyNSAwIDAxLS4xODYuMDcuMzI2LjMyNiAwIDAxLS4wODUuMDE2Yy0uMDc1IDAtLjExMi0uMDU0LS4xMTItLjE2NnYtLjI2MmMwLS4wODUuMDEtLjE1LjAzNy0uMTg2YS4zOTkuMzk5IDAgMDEuMTUtLjExM2MuMTg1LS4wOTYuNDA5LS4xNzYuNjctLjI0LjI2LS4wNy41MzctLjEwMS44My0uMTAxLjYzMyAwIDEuMDk2LjE0NCAxLjM5NC40MzIuMjkzLjI4OC40NDIuNzI2LjQ0MiAxLjMxNHYxLjczaC4wMXptLTIuMTYxLjgxMWMuMTc1IDAgLjM1Ni0uMDMyLjU0OC0uMDk2LjE5MS0uMDY0LjM2Mi0uMTgyLjUwNS0uMzQyYS44NDguODQ4IDAgMDAuMTgxLS4zNDFjLjAzMi0uMTI5LjA1NC0uMjgzLjA1NC0uNDY1VjcuMDNhNC40MyA0LjQzIDAgMDAtLjQ5LS4wOSAzLjk5NiAzLjk5NiAwIDAwLS41LS4wMzNjLS4zNTcgMC0uNjE4LjA3LS43OTMuMjE0LS4xNzYuMTQ0LS4yNi4zNDctLjI2LjYxNCAwIC4yNS4wNjMuNDM3LjE5Ni41NjYuMTI4LjEzMy4zMTQuMTk3LjU1OS4xOTd6bTQuMjczLjU3N2MtLjA5NiAwLS4xNi0uMDE2LS4yMDItLjA1NC0uMDQzLS4wMzItLjA4LS4xMDYtLjExMi0uMjA4bC0xLjI1LTQuMTI3YS45MzguOTM4IDAgMDEtLjA0OS0uMjE0YzAtLjA4NS4wNDMtLjEzMy4xMjgtLjEzM2guNTIyYy4xIDAgLjE3LjAxNi4yMDcuMDUzLjA0My4wMzIuMDc1LjEwNy4xMDcuMjA4bC44OTQgMy41MzUuODMtMy41MzVjLjAyNi0uMTA2LjA1OC0uMTc2LjEtLjIwOGEuMzY1LjM2NSAwIDAxLjIxNC0uMDUzaC40MjVjLjEwMiAwIC4xNy4wMTYuMjEzLjA1My4wNDMuMDMyLjA4LjEwNy4xMDEuMjA4bC44NDEgMy41NzguOTItMy41NzhhLjQ1OC40NTggMCAwMS4xMDctLjIwOC4zNDYuMzQ2IDAgMDEuMjA4LS4wNTNoLjQ5NWMuMDg1IDAgLjEzMy4wNDMuMTMzLjEzMyAwIC4wMjctLjAwNi4wNTQtLjAxLjA4NmEuNzYuNzYgMCAwMS0uMDM4LjEzM2wtMS4yODMgNC4xMjdjLS4wMzIuMTA3LS4wNjkuMTc3LS4xMTEuMjA5YS4zNC4zNCAwIDAxLS4yMDMuMDUzaC0uNDU3Yy0uMTAxIDAtLjE3LS4wMTYtLjIxMy0uMDUzLS4wNDMtLjAzOC0uMDgtLjEwNy0uMTAxLS4yMTRMOC4yMTMgNS4zN2wtLjgyIDMuNDM5Yy0uMDI2LjEwNy0uMDU4LjE3Ni0uMS4yMTMtLjA0My4wMzgtLjExOC4wNTQtLjIxMy4wNTRoLS40NTh6bTYuODM4LjE0NGEzLjUxIDMuNTEgMCAwMS0uODItLjA5NmMtLjI2Ni0uMDY0LS40NzMtLjEzNC0uNjEyLS4yMTQtLjA4NS0uMDQ4LS4xNDMtLjEwMS0uMTY1LS4xNWEuMzc4LjM3OCAwIDAxLS4wMzEtLjE0OXYtLjI3MmMwLS4xMTIuMDQyLS4xNjYuMTIyLS4xNjZhLjMuMyAwIDAxLjA5Ni4wMTZjLjAzMi4wMTEuMDguMDMyLjEzMy4wNTQuMTguMDguMzc4LjE0NC41ODUuMTg3LjIxMy4wNDIuNDIuMDY0LjYzMy4wNjQuMzM2IDAgLjU5Ni0uMDU5Ljc3Ny0uMTc2YS41NzUuNTc1IDAgMDAuMjc3LS41MDguNTIuNTIgMCAwMC0uMTQ0LS4zNzNjLS4wOTUtLjEwMi0uMjc2LS4xOTMtLjUzNy0uMjc4bC0uNzcyLS4yNGMtLjM4OC0uMTIzLS42NzYtLjMwNS0uODUxLS41NDVhMS4yNzUgMS4yNzUgMCAwMS0uMjY2LS43NzRjMC0uMjI0LjA0OC0uNDIyLjE0My0uNTkzLjA5Ni0uMTcuMjI0LS4zMi4zODQtLjQzOC4xNi0uMTIyLjM0LS4yMTMuNTUzLS4yNzcuMjEzLS4wNjQuNDM2LS4wOTEuNjctLjA5MS4xMTggMCAuMjQuMDA1LjM1Ny4wMjEuMTIyLjAxNi4yMzQuMDM4LjM0Ni4wNi4xMDYuMDI2LjIwOC4wNTIuMzAzLjA4NS4wOTYuMDMyLjE3LjA2NC4yMjQuMDk2YS40Ni40NiAwIDAxLjE2LjEzMy4yODkuMjg5IDAgMDEuMDQ3LjE3NnYuMjUxYzAgLjExMi0uMDQyLjE3MS0uMTIyLjE3MWEuNTUyLjU1MiAwIDAxLS4yMDItLjA2NCAyLjQyNyAyLjQyNyAwIDAwLTEuMDIyLS4yMDhjLS4zMDMgMC0uNTQzLjA0OC0uNzA4LjE1LS4xNjUuMS0uMjUuMjU2LS4yNS40NzUgMCAuMTQ5LjA1My4yNzcuMTYuMzc5LjEwNi4xMDEuMzAzLjIwMi41ODUuMjkzbC43NTYuMjRjLjM4My4xMjMuNjYuMjk0LjgyNS41MTMuMTY1LjIxOS4yNDQuNDcuMjQ0Ljc0OCAwIC4yMy0uMDQ3LjQzNy0uMTM4LjYxOWExLjQzNiAxLjQzNiAwIDAxLS4zODguNDdjLS4xNjUuMTMzLS4zNjIuMjMtLjU5MS4yOTktLjI0LjA3NS0uNDkuMTEyLS43NjEuMTEyeiIgZmlsbD0iIzI1MkYzRSIvPiYjeGE7JiN4YTs8ZyBjbGlwLXJ1bGU9ImV2ZW5vZGQiIGZpbGwtcnVsZT0iZXZlbm9kZCIgZmlsbD0iI0Y5MCI+JiN4YTsmI3hhOzxwYXRoIGQ9Ik0xNC40NjUgMTEuODEzYy0xLjc1IDEuMjk3LTQuMjk0IDEuOTg2LTYuNDgxIDEuOTg2LTMuMDY1IDAtNS44MjctMS4xMzctNy45MTMtMy4wMjctLjE2NS0uMTUtLjAxNi0uMzUzLjE4LS4yMzUgMi4yNTcgMS4zMTMgNS4wNCAyLjEwOSA3LjkyIDIuMTA5IDEuOTQxIDAgNC4wNzUtLjQwNiA2LjAzOS0xLjIzOS4yOTMtLjEzMy41NDMuMTkyLjI1NS40MDZ6Ii8+JiN4YTsmI3hhOzxwYXRoIGQ9Ik0xNS4xOTQgMTAuOThjLS4yMjMtLjI4Ny0xLjQ3OS0uMTM4LTIuMDQ4LS4wNjktLjE3LjAyMi0uMTk3LS4xMjgtLjA0My0uMjQgMS0uNzA1IDIuNjQ1LS41MDIgMi44MzYtLjI2Ny4xOTIuMjQtLjA1MyAxLjg5LS45OSAyLjY4LS4xNDMuMTIzLS4yODEuMDYtLjIxOC0uMS4yMTMtLjUzLjY4Ny0xLjcyLjQ2My0yLjAwM3oiLz4mI3hhOyYjeGE7PC9nPiYjeGE7JiN4YTs8L3N2Zz4=;imageBackground=none;fontColor=#e50914;comic=0;snapToPoint=0;fixDash=1;" parent="1" vertex="1">
          <mxGeometry x="-173" y="866.75" width="153.25" height="153.25" as="geometry" />
        </mxCell>
        <mxCell id="LB7Hno4nHKk7k6WSY0Ma-180" value="" style="shape=image;verticalLabelPosition=bottom;labelBackgroundColor=default;verticalAlign=top;aspect=fixed;imageAspect=0;image=data:image/svg+xml,PHN2ZyB4bWxucz0iaHR0cDovL3d3dy53My5vcmcvMjAwMC9zdmciIHZpZXdCb3g9IjAgMCA1MTIgNTEyIiByb2xlPSJpbWciIGFyaWEtbGFiZWw9IlVidW50dSI+JiN4YTsmI3hhOzxyZWN0IGZpbGw9IiNlNjVlMTciIHJ4PSIxNSUiIGhlaWdodD0iNTEyIiB3aWR0aD0iNTEyIi8+JiN4YTsmI3hhOzxjaXJjbGUgc3Ryb2tlLXdpZHRoPSI1MSIgc3Ryb2tlPSIjZmZmZmZmIiBmaWxsPSJub25lIiByPSIxMjQiIGN5PSIyNTYiIGN4PSIyNjUiLz4mI3hhOyYjeGE7PGcgc3Ryb2tlLXdpZHRoPSIxMCIgc3Ryb2tlPSIjZTY1ZTE3IiBmaWxsPSIjZmZmZmZmIj4mI3hhOyYjeGE7PGNpcmNsZSByPSI0MSIgY3k9IjI1NyIgY3g9IjkwIi8+JiN4YTsmI3hhOzxjaXJjbGUgcj0iNDEiIGN5PSI0MDkiIGN4PSIzNTMiLz4mI3hhOyYjeGE7PGNpcmNsZSByPSI0MSIgY3k9IjEwNCIgY3g9IjM1MyIvPiYjeGE7JiN4YTs8cGF0aCBkPSJNMTg1LDExOGw4MiwxMzhtMCwwaDE1NWgtMTU1bC04NCwxNDAiIHN0cm9rZS13aWR0aD0iMTkiLz4mI3hhOyYjeGE7PC9nPiYjeGE7JiN4YTs8L3N2Zz4=;comic=0;snapToPoint=0;fixDash=1;" parent="1" vertex="1">
          <mxGeometry x="205" y="883.5" width="119.5" height="119.5" as="geometry" />
        </mxCell>
        <mxCell id="LB7Hno4nHKk7k6WSY0Ma-185" value="" style="shape=link;html=1;rounded=0;strokeColor=#f0f0f0;exitX=0.5;exitY=1;exitDx=0;exitDy=0;entryX=0;entryY=0.5;entryDx=0;entryDy=0;strokeWidth=3;comic=0;snapToPoint=0;fixDash=1;" parent="1" source="LB7Hno4nHKk7k6WSY0Ma-180" target="LB7Hno4nHKk7k6WSY0Ma-174" edge="1">
          <mxGeometry width="100" relative="1" as="geometry">
            <mxPoint x="1008" y="893" as="sourcePoint" />
            <mxPoint x="258" y="1711" as="targetPoint" />
            <Array as="points">
              <mxPoint x="258" y="1505" />
            </Array>
          </mxGeometry>
        </mxCell>
        <mxCell id="LB7Hno4nHKk7k6WSY0Ma-186" value="" style="shape=link;html=1;rounded=0;entryX=0;entryY=0.75;entryDx=0;entryDy=0;strokeColor=#FFFFFF;strokeWidth=3;comic=0;snapToPoint=0;fixDash=1;" parent="1" edge="1">
          <mxGeometry width="100" relative="1" as="geometry">
            <mxPoint x="317" y="891" as="sourcePoint" />
            <mxPoint x="591" y="791.75" as="targetPoint" />
          </mxGeometry>
        </mxCell>
        <mxCell id="LB7Hno4nHKk7k6WSY0Ma-187" value="" style="shape=link;html=1;rounded=0;strokeColor=#f7f7f7;width=6.363636363636363;strokeWidth=3;comic=0;snapToPoint=0;fixDash=1;" parent="1" edge="1">
          <mxGeometry width="100" relative="1" as="geometry">
            <mxPoint x="317" y="960" as="sourcePoint" />
            <mxPoint x="675" y="1276" as="targetPoint" />
            <Array as="points">
              <mxPoint x="669" y="955" />
            </Array>
          </mxGeometry>
        </mxCell>
        <mxCell id="Fcg8xen1CVTa1HGGvQpZ-6" value="" style="endArrow=classic;html=1;rounded=0;strokeColor=#fafafa;fontColor=#1D3557;fillColor=#A8DADC;exitX=1;exitY=1;exitDx=0;exitDy=0;entryX=0;entryY=1;entryDx=0;entryDy=0;strokeWidth=5;comic=0;snapToPoint=0;fixDash=1;" edge="1" parent="1" source="LB7Hno4nHKk7k6WSY0Ma-63" target="LB7Hno4nHKk7k6WSY0Ma-146">
          <mxGeometry width="50" height="50" relative="1" as="geometry">
            <mxPoint x="569" y="995" as="sourcePoint" />
            <mxPoint x="619" y="945" as="targetPoint" />
          </mxGeometry>
        </mxCell>
        <mxCell id="Fcg8xen1CVTa1HGGvQpZ-7" value="" style="endArrow=classic;html=1;rounded=0;strokeColor=#FFFFFF;fontColor=#1D3557;fillColor=#A8DADC;exitX=0.5;exitY=1;exitDx=0;exitDy=0;entryX=0;entryY=0.25;entryDx=0;entryDy=0;strokeWidth=5;comic=0;snapToPoint=0;fixDash=1;" edge="1" parent="1" source="Fcg8xen1CVTa1HGGvQpZ-34" target="LB7Hno4nHKk7k6WSY0Ma-126">
          <mxGeometry width="50" height="50" relative="1" as="geometry">
            <mxPoint x="569" y="995" as="sourcePoint" />
            <mxPoint x="619" y="945" as="targetPoint" />
          </mxGeometry>
        </mxCell>
        <mxCell id="Fcg8xen1CVTa1HGGvQpZ-8" value="" style="endArrow=classic;html=1;rounded=0;strokeColor=#ffffff;fontColor=#1D3557;fillColor=#A8DADC;exitX=1;exitY=0.5;exitDx=0;exitDy=0;entryX=0;entryY=0.75;entryDx=0;entryDy=0;strokeWidth=6;comic=0;snapToPoint=0;fixDash=1;" edge="1" parent="1" source="LB7Hno4nHKk7k6WSY0Ma-174" target="LB7Hno4nHKk7k6WSY0Ma-125">
          <mxGeometry width="50" height="50" relative="1" as="geometry">
            <mxPoint x="569" y="995" as="sourcePoint" />
            <mxPoint x="619" y="945" as="targetPoint" />
          </mxGeometry>
        </mxCell>
        <mxCell id="Fcg8xen1CVTa1HGGvQpZ-9" value="" style="endArrow=classic;html=1;rounded=0;strokeColor=#fafafa;fontColor=#1D3557;fillColor=#A8DADC;exitX=0.5;exitY=1;exitDx=0;exitDy=0;strokeWidth=6;comic=0;snapToPoint=0;fixDash=1;" edge="1" parent="1" source="Fcg8xen1CVTa1HGGvQpZ-23">
          <mxGeometry width="50" height="50" relative="1" as="geometry">
            <mxPoint x="569" y="995" as="sourcePoint" />
            <mxPoint x="1415" y="1396" as="targetPoint" />
          </mxGeometry>
        </mxCell>
        <mxCell id="Fcg8xen1CVTa1HGGvQpZ-10" value="" style="endArrow=classic;startArrow=classic;html=1;rounded=0;strokeColor=#fcfcfc;fontColor=#1D3557;fillColor=#A8DADC;exitX=0.5;exitY=1;exitDx=0;exitDy=0;entryX=0.41;entryY=0.09;entryDx=0;entryDy=0;entryPerimeter=0;strokeWidth=5;startSize=4;endSize=4;comic=0;snapToPoint=0;fixDash=1;" edge="1" parent="1" source="LB7Hno4nHKk7k6WSY0Ma-121" target="LB7Hno4nHKk7k6WSY0Ma-63">
          <mxGeometry width="50" height="50" relative="1" as="geometry">
            <mxPoint x="569" y="995" as="sourcePoint" />
            <mxPoint x="619" y="945" as="targetPoint" />
          </mxGeometry>
        </mxCell>
        <mxCell id="Fcg8xen1CVTa1HGGvQpZ-12" value="" style="shape=image;verticalLabelPosition=bottom;labelBackgroundColor=default;verticalAlign=top;aspect=fixed;imageAspect=0;image=data:image/svg+xml,PHN2ZyB4bWxucz0iaHR0cDovL3d3dy53My5vcmcvMjAwMC9zdmciIGFyaWEtaGlkZGVuPSJ0cnVlIiByb2xlPSJpbWciIHZpZXdCb3g9IjAgMCAxNCAxNCIgaGVpZ2h0PSI4MDBweCIgd2lkdGg9IjgwMHB4IiBmaWxsPSIjMDAwMDAwIj48cGF0aCBkPSJtIDExLjkyMjQ1MSw1LjQzODQgYyAwLDAuMDQ0IDAuMDU4NzgsMC4zODIgMC4xMjczNDcsMC43NDQ0IGwgMC4xMjczNDcsMC42NjEzIC0wLjEyNzM0NywwLjc4ODUgYyAtMC4wNzM0NywwLjQzNiAtMC4xMjczNDcsMC44MTggLTAuMTI3MzQ3LDAuODQ3NCAwLDAuMDM5IDAuMDYzNjcsMC4wNjQgMC4xNjE2MzMsMC4wNjQgbCAwLjE2MTYzMiwwIDAuMDYzNjcsLTAuNTMzOSBjIDAuMDM0MjksLTAuMjkzOSAwLjA3ODM3LC0wLjU5NzYgMC4wOTc5NiwtMC42NzU5IGwgMC4wMzkxOCwtMC4xMzcyIDAuMDI5MzksMC4xMjI1IGMgMC4wMTQ2OSwwLjA2OSAwLjA1Mzg4LDAuMzc3MSAwLjA4ODE2LDAuNjkwNiBsIDAuMDU4NzgsMC41NzMgMC4xNzE0MjksMC4wMjkgYyAwLjA5Nzk2LDAuMDE1IDAuMTgxMjI0LDAuMDIgMC4xODYxMjIsMC4wMTUgMC4wMDk4LDAgLTAuMDQ4OTgsLTAuNDA2NSAtMC4xMjI0NDksLTAuODg2NSBMIDEyLjcyNTcxMyw2Ljg2ODggMTIuODU3OTU4LDYuMTc4MiBjIDAuMDc4MzcsLTAuMzgyMSAwLjEzNzE0MywtMC43MjQ5IDAuMTQyMDQxLC0wLjc1OTIgMCwtMC4wMzQgLTAuMDYzNjcsLTAuMDU5IC0wLjE2NjUzMSwtMC4wNTkgLTAuMTkxMDIsMCAtMC4xODYxMjIsLTAuMDE1IC0wLjI3OTE4MiwwLjY3MSAtMC4wMzQyOSwwLjI0OTggLTAuMDc4MzcsMC40NTU1IC0wLjA5Nzk2LDAuNDU1NSAtMC4wMTk1OSwwIC0wLjA2MzY3LC0wLjE2MTYgLTAuMDkzMDYsLTAuMzU3NSAtMC4wMzQyOCwtMC4xOTExIC0wLjA3MzQ3LC0wLjQ0MDkgLTAuMDkzMDYsLTAuNTQ4NiAtMC4wMjkzOSwtMC4xNzYzIC0wLjA0ODk4LC0wLjE5NTkgLTAuMTkxMDIsLTAuMjEwNiAtMC4xMjI0NDksLTAuMDE1IC0wLjE1NjczNSwwIC0wLjE1NjczNSwwLjA2OSB6IG0gLTEuNDIwNDA4LDEuNDM1MSAwLDEuNTIzMiAwLjE0NjkzOSwwIDAuMTQ2OTM4LDAgLTAuMDA5OCwtMS41MDg2IC0wLjAxNDY5LC0xLjUwMzYgLTAuMTMyMjQ1LC0wLjAxNSAtMC4xMzcxNDMsLTAuMDE1IDAsMS41MTg0IHogTSA4LjgyMjA0MjUsNS4zODk0IGMgLTAuMDE5NTksMC4wMiAtMC4wMzQyOSwwLjY4MDggLTAuMDM0MjksMS40NjQ1IGwgMCwxLjQzMDIgMC4xNTE4MzcsMC4wMzQgYyAwLjA4MzI2LDAuMDE1IDAuMjQ5Nzk2LDAuMDI5IDAuMzY3MzQ3LDAuMDI5IDAuMjA1NzE0LDAgMC4yMTU1MSwwIDAuMjE1NTEsLTAuMTQyIDAsLTAuMTM3MSAtMC4wMTQ2OSwtMC4xNDY5IC0wLjIwNTcxNCwtMC4xNjE2IGwgLTAuMjEwNjEzLC0wLjAxNSAtMC4wMDk4LC0xLjMyMjUgLTAuMDA5OCwtMS4zMjI0IC0wLjExNzU1MSwtMC4wMTUgYyAtMC4wNTg3OCwtMC4wMSAtMC4xMjczNDcsMCAtMC4xNDY5MzksMC4wMiB6IG0gLTEuNzk3NTUxLDAgYyAwLDAuMDE1IDAsMC42NzEgLTAuMDA0OSwxLjQ1NDcgbCAwLDEuNDM1MSAwLjE1MTgzNywwLjAxNSAwLjE0NjkzOCwwLjAxNSAwLC0wLjYxMjMgMCwtMC42MTIyIDAuMjEwNjEzLC0wLjAxNSBjIDAuMTg2MTIyLC0wLjAxNSAwLjIwNTcxNCwtMC4wMjkgMC4yMjA0MDgsLTAuMTUxOSAwLjAxNDY5LC0wLjEyNzMgMC4wMDk4LC0wLjEzMjIgLTAuMjA1NzE1LC0wLjEzMjIgbCAtMC4yMjUzMDYsMCAwLC0wLjUzMzkgMCwtMC41Mzg4IDAuMjEwNjEzLC0wLjAxNSBjIDAuMTkxMDIsLTAuMDE1IDAuMjA1NzE0LC0wLjAyNCAwLjIwNTcxNCwtMC4xNjE3IGwgMCwtMC4xNDY5IC0wLjM1MjY1MywtMC4wMTUgYyAtMC4xOTU5MTksLTAuMDEgLTAuMzU3NTUxLDAgLTAuMzU3NTUxLDAuMDE1IHogbSAtMi4wMjI4NTcsMCBjIC0wLjAxOTU5LDAuMDIgLTAuMDM0MjksMC4wOTggLTAuMDM0MjksMC4xNzYzIDAsMC4xMjI0IDAuMDE0NjksMC4xMzcyIDAuMTcxNDI5LDAuMTM3MiBsIDAuMTcxNDI4LDAgMCwxLjI4ODEgYyAwLDAuNzEwMiAwLjAwOTgsMS4zMDI5IDAuMDI0NDksMS4zMTc2IDAuMDE0NjksMC4wMSAwLjA4ODE2LDAuMDE1IDAuMTcxNDI4LDAgbCAwLjE0NjkzOSwtMC4wMiAwLC0xLjI5MzEgMCwtMS4yOTMgMC4xNzYzMjcsMCBjIDAuMTY2NTMsMCAwLjE3MTQyOCwwIDAuMTU2NzM0LC0wLjE2MTcgbCAtMC4wMTQ2OSwtMC4xNTY3IC0wLjQ2NTMwNywtMC4wMTUgYyAtMC4yNTk1OTEsMCAtMC40ODQ4OTgsMCAtMC41MDQ0ODksMC4wMiB6IG0gLTEuNjAxNjMzLDEuNTE4MyBjIDAsMS4zOTExIDAuMDA5OCwxLjU0NzggMC4wNzgzNywxLjUxODQgMC4wNDQwOCwtMC4wMTUgMC4yMDU3MTUsLTAuMDI5IDAuMzY3MzQ3LC0wLjAyOSAwLjI4ODk4LDAgMC4yODg5OCwwIDAuMjg4OTgsLTAuMTQ2OSAwLC0wLjE0MjEgLTAuMDA5OCwtMC4xNDY5IC0wLjIyMDQwOCwtMC4xNDY5IGwgLTAuMjIwNDA4LDAgMCwtMC41MTQzIDAsLTAuNTE0MyAwLjIyMDQwOCwwIGMgMC4yMTA2MTIsMCAwLjIyMDQwOCwwIDAuMjIwNDA4LC0wLjE0NyAwLC0wLjE0MiAtMC4wMDk4LC0wLjE0NjkgLTAuMjIwNDA4LC0wLjE0NjkgbCAtMC4yMjA0MDgsMCAwLC0wLjUzMzkgMCwtMC41Mzg4IDAuMjEwNjEyLC0wLjAxNSBjIDAuMTkxMDIsLTAuMDE1IDAuMjA1NzE0LC0wLjAyNCAwLjIwNTcxNCwtMC4xNjE3IGwgMCwtMC4xNDY5IC0wLjM1MjY1MywtMC4wMTUgLTAuMzU3NTUxLC0wLjAxNSAwLDEuNTUyNiB6IE0gMS4wMzQyODc1LDUuMzk0MyBjIC0wLjAxOTU5MiwwLjAxNSAtMC4wMzQyODYsMC43NTQzIC0wLjAzNDI4NiwxLjY0MDggbCAwLDEuNjExNCAwLjE1NjczNSwtMC4wMTUgMC4xNjE2MzIsLTAuMDE1IC0wLjAxOTU5LC0xLjExNjcgYyAtMC4wMDk4LC0wLjc5ODQgMCwtMS4xMTE4IDAuMDM5MTgsLTEuMTExOCAwLjAyOTM5LDAgMC4wNTM4OCwwLjAxNSAwLjA1Mzg4LDAuMDM0IDAsMC4wNTkgMC4yODg5NzksMS45MzQ2IDAuMzE4MzY3LDIuMDQ3MyAwLjAxOTU5LDAuMDg4IDAuMDUzODgsMC4wOTggMC4yOTM4NzgsMC4wODMgbCAwLjI2OTM4NywtMC4wMiAwLC0xLjU5MTkgMCwtMS41ODY5IC0wLjE1MTgzNiwwLjAxNSAtMC4xNDY5MzksMC4wMTUgMC4wMDQ5LDEuMTg1MyBjIDAsMC43ODg2IC0wLjAxNDY5LDEuMTkwMiAtMC4wNDg5OCwxLjE5MDIgLTAuMDI0NDksMCAtMC4wNDg5OCwtMC4wMTUgLTAuMDQ4OTgsLTAuMDI5IDAsLTAuMTAyOSAtMC4zNDc3NTUsLTIuMjkyMiAtMC4zNzIyNDUsLTIuMzI2NSAtMC4wMjkzOSwtMC4wNDkgLTAuNDI2MTIzLC0wLjA1OSAtMC40NzUxMDIsLTAuMDEgeiIvPjwvc3ZnPg==;comic=0;snapToPoint=0;fixDash=1;" vertex="1" parent="1">
          <mxGeometry x="-256" y="463" width="127" height="127" as="geometry" />
        </mxCell>
        <mxCell id="Fcg8xen1CVTa1HGGvQpZ-14" value="" style="endArrow=classic;startArrow=classic;html=1;rounded=0;strokeColor=#ffffff;fontColor=#1D3557;fillColor=#A8DADC;entryX=0.5;entryY=1;entryDx=0;entryDy=0;exitX=0.5;exitY=0;exitDx=0;exitDy=0;strokeWidth=6;" edge="1" parent="1" source="LB7Hno4nHKk7k6WSY0Ma-163" target="LB7Hno4nHKk7k6WSY0Ma-91">
          <mxGeometry width="50" height="50" relative="1" as="geometry">
            <mxPoint x="719" y="1187" as="sourcePoint" />
            <mxPoint x="769" y="1137" as="targetPoint" />
          </mxGeometry>
        </mxCell>
        <mxCell id="Fcg8xen1CVTa1HGGvQpZ-17" value="&lt;font color=&quot;#ffffff&quot; style=&quot;font-size: 22px;&quot;&gt;AWS&lt;/font&gt;" style="rounded=0;whiteSpace=wrap;html=1;strokeColor=#0C120F;fontColor=#1D3557;fillColor=#121212;" vertex="1" parent="1">
          <mxGeometry x="-173" y="1032" width="136" height="38" as="geometry" />
        </mxCell>
        <mxCell id="Fcg8xen1CVTa1HGGvQpZ-18" value="&lt;font color=&quot;#ffffff&quot;&gt;&lt;span style=&quot;font-size: 25px;&quot;&gt;EC2&lt;/span&gt;&lt;/font&gt;" style="rounded=0;whiteSpace=wrap;html=1;strokeColor=#0C120F;fontColor=#1D3557;fillColor=#121212;" vertex="1" parent="1">
          <mxGeometry x="196.75" y="1020" width="136" height="38" as="geometry" />
        </mxCell>
        <mxCell id="Fcg8xen1CVTa1HGGvQpZ-19" value="&lt;font color=&quot;#ffffff&quot;&gt;&lt;span style=&quot;font-size: 25px;&quot;&gt;&lt;b&gt;GitHub&lt;/b&gt;&lt;/span&gt;&lt;/font&gt;" style="rounded=0;whiteSpace=wrap;html=1;strokeColor=#0C120F;fontColor=#1D3557;fillColor=#121212;" vertex="1" parent="1">
          <mxGeometry x="285" y="702" width="136" height="38" as="geometry" />
        </mxCell>
        <mxCell id="Fcg8xen1CVTa1HGGvQpZ-20" value="&lt;font color=&quot;#ffffff&quot; style=&quot;font-size: 25px;&quot;&gt;&lt;b&gt;Gmail&lt;/b&gt;&lt;/font&gt;" style="rounded=0;whiteSpace=wrap;html=1;strokeColor=#0C120F;fontColor=#1D3557;fillColor=#121212;" vertex="1" parent="1">
          <mxGeometry x="611" y="590" width="114" height="27" as="geometry" />
        </mxCell>
        <mxCell id="Fcg8xen1CVTa1HGGvQpZ-24" value="&lt;font color=&quot;#ffffff&quot;&gt;&lt;span style=&quot;font-size: 25px;&quot;&gt;&lt;b&gt;Kubectl&lt;/b&gt;&lt;/span&gt;&lt;/font&gt;" style="rounded=0;whiteSpace=wrap;html=1;strokeColor=#0C120F;fontColor=#1D3557;fillColor=#121212;" vertex="1" parent="1">
          <mxGeometry x="888" y="1102" width="109" height="29" as="geometry" />
        </mxCell>
        <mxCell id="Fcg8xen1CVTa1HGGvQpZ-25" value="&lt;font color=&quot;#ffffff&quot; style=&quot;font-size: 25px;&quot;&gt;&lt;b&gt;Trivy&lt;/b&gt;&lt;/font&gt;" style="rounded=0;whiteSpace=wrap;html=1;strokeColor=#0C120F;fontColor=#1D3557;fillColor=#121212;" vertex="1" parent="1">
          <mxGeometry x="1156" y="1003" width="83" height="38" as="geometry" />
        </mxCell>
        <mxCell id="Fcg8xen1CVTa1HGGvQpZ-26" value="&lt;font color=&quot;#ffffff&quot; style=&quot;font-size: 25px;&quot;&gt;&lt;b&gt;Docker&lt;/b&gt;&lt;/font&gt;" style="rounded=0;whiteSpace=wrap;html=1;strokeColor=#0C120F;fontColor=#1D3557;fillColor=#121212;" vertex="1" parent="1">
          <mxGeometry x="1347" y="764" width="107" height="29" as="geometry" />
        </mxCell>
        <mxCell id="Fcg8xen1CVTa1HGGvQpZ-27" value="&lt;font color=&quot;#ffffff&quot;&gt;&lt;span style=&quot;font-size: 25px;&quot;&gt;&lt;b&gt;OWASP&lt;/b&gt;&lt;/span&gt;&lt;/font&gt;" style="rounded=0;whiteSpace=wrap;html=1;strokeColor=#0C120F;fontColor=#1D3557;fillColor=#121212;" vertex="1" parent="1">
          <mxGeometry x="1010" y="687" width="91" height="23" as="geometry" />
        </mxCell>
        <mxCell id="Fcg8xen1CVTa1HGGvQpZ-28" value="&lt;font color=&quot;#ffffff&quot; style=&quot;font-size: 25px;&quot;&gt;&lt;b&gt;Node&lt;/b&gt;&lt;/font&gt;" style="rounded=0;whiteSpace=wrap;html=1;strokeColor=#0C120F;fontColor=#1D3557;fillColor=#121212;" vertex="1" parent="1">
          <mxGeometry x="832" y="577" width="80" height="25" as="geometry" />
        </mxCell>
        <mxCell id="Fcg8xen1CVTa1HGGvQpZ-33" value="" style="endArrow=classic;html=1;rounded=0;strokeColor=#fafafa;fontColor=#1D3557;fillColor=#A8DADC;exitX=0.5;exitY=1;exitDx=0;exitDy=0;strokeWidth=6;comic=0;snapToPoint=0;fixDash=1;" edge="1" parent="1" source="LB7Hno4nHKk7k6WSY0Ma-163" target="Fcg8xen1CVTa1HGGvQpZ-23">
          <mxGeometry width="50" height="50" relative="1" as="geometry">
            <mxPoint x="1413" y="1253" as="sourcePoint" />
            <mxPoint x="1415" y="1396" as="targetPoint" />
          </mxGeometry>
        </mxCell>
        <mxCell id="Fcg8xen1CVTa1HGGvQpZ-23" value="&lt;font color=&quot;#ffffff&quot; style=&quot;font-size: 25px;&quot;&gt;&lt;b&gt;DockerHub&lt;/b&gt;&lt;/font&gt;" style="rounded=0;whiteSpace=wrap;html=1;strokeColor=#0C120F;fontColor=#1D3557;fillColor=#121212;" vertex="1" parent="1">
          <mxGeometry x="1343" y="1237" width="136" height="38" as="geometry" />
        </mxCell>
        <mxCell id="Fcg8xen1CVTa1HGGvQpZ-35" value="&lt;font color=&quot;#ffffff&quot; style=&quot;font-size: 25px;&quot;&gt;&lt;b&gt;Deploy Container&lt;/b&gt;&lt;/font&gt;" style="rounded=0;whiteSpace=wrap;html=1;strokeColor=#0C120F;fontColor=#1D3557;fillColor=#121212;" vertex="1" parent="1">
          <mxGeometry x="1202.5" y="1561" width="405" height="38" as="geometry" />
        </mxCell>
        <mxCell id="Fcg8xen1CVTa1HGGvQpZ-36" value="&lt;font color=&quot;#ffffff&quot; style=&quot;font-size: 25px;&quot;&gt;&lt;b&gt;Kubernetes&lt;/b&gt;&lt;/font&gt;" style="rounded=0;whiteSpace=wrap;html=1;strokeColor=#0C120F;fontColor=#1D3557;fillColor=#121212;" vertex="1" parent="1">
          <mxGeometry x="585" y="1573" width="216" height="38" as="geometry" />
        </mxCell>
        <mxCell id="Fcg8xen1CVTa1HGGvQpZ-37" value="&lt;font size=&quot;1&quot; color=&quot;#ffffff&quot;&gt;&lt;b style=&quot;font-size: 21px;&quot;&gt;prometheus&lt;/b&gt;&lt;/font&gt;" style="rounded=0;whiteSpace=wrap;html=1;strokeColor=#0C120F;fontColor=#1D3557;fillColor=#121212;" vertex="1" parent="1">
          <mxGeometry x="401" y="1239.62" width="169" height="38" as="geometry" />
        </mxCell>
        <mxCell id="Fcg8xen1CVTa1HGGvQpZ-38" value="&lt;font color=&quot;#ffffff&quot; style=&quot;font-size: 25px;&quot;&gt;&lt;b&gt;Node Expo&lt;/b&gt;&lt;/font&gt;" style="rounded=0;whiteSpace=wrap;html=1;strokeColor=#0C120F;fontColor=#1D3557;fillColor=#121212;" vertex="1" parent="1">
          <mxGeometry x="776" y="1247" width="136" height="38" as="geometry" />
        </mxCell>
        <mxCell id="Fcg8xen1CVTa1HGGvQpZ-39" value="&lt;font color=&quot;#ffffff&quot;&gt;&lt;span style=&quot;font-size: 25px;&quot;&gt;&lt;b&gt;Grafana&lt;/b&gt;&lt;/span&gt;&lt;/font&gt;" style="rounded=0;whiteSpace=wrap;html=1;strokeColor=#0C120F;fontColor=#1D3557;fillColor=#121212;" vertex="1" parent="1">
          <mxGeometry x="610" y="1396" width="132" height="27" as="geometry" />
        </mxCell>
        <mxCell id="Fcg8xen1CVTa1HGGvQpZ-42" value="" style="endArrow=classic;html=1;rounded=0;strokeColor=#FFFFFF;fontColor=#1D3557;fillColor=#A8DADC;exitX=0.5;exitY=1;exitDx=0;exitDy=0;entryX=0;entryY=0.25;entryDx=0;entryDy=0;strokeWidth=5;comic=0;snapToPoint=0;fixDash=1;" edge="1" parent="1" source="LB7Hno4nHKk7k6WSY0Ma-63" target="Fcg8xen1CVTa1HGGvQpZ-34">
          <mxGeometry width="50" height="50" relative="1" as="geometry">
            <mxPoint x="682" y="862" as="sourcePoint" />
            <mxPoint x="877" y="1024" as="targetPoint" />
          </mxGeometry>
        </mxCell>
        <mxCell id="Fcg8xen1CVTa1HGGvQpZ-34" value="&lt;font color=&quot;#ffffff&quot; style=&quot;font-size: 25px;&quot;&gt;&lt;b&gt;Jenkins&lt;/b&gt;&lt;/font&gt;" style="rounded=0;whiteSpace=wrap;html=1;strokeColor=#0C120F;fontColor=#1D3557;fillColor=#121212;" vertex="1" parent="1">
          <mxGeometry x="591" y="866.75" width="173" height="38" as="geometry" />
        </mxCell>
      </root>
    </mxGraphModel>
  </diagram>
</mxfile>
